<?xml version="1.0" encoding="UTF-8"?>
<svg width="176px" height="71px" viewBox="0 0 176 71" version="1.1" xmlns="http://www.w3.org/2000/svg" xmlns:xlink="http://www.w3.org/1999/xlink">
    <!-- Generator: Sketch 48.2 (47327) - http://www.bohemiancoding.com/sketch -->
    <title>Group 6</title>
    <desc>Created with Sketch.</desc>
    <defs>
        <linearGradient x1="3.8067801%" y1="100%" x2="100%" y2="0%" id="linearGradient-1">
            <stop stop-color="#FFFFFF" offset="0%"></stop>
            <stop stop-color="#B4CCE4" offset="100%"></stop>
        </linearGradient>
        <linearGradient x1="50%" y1="0%" x2="50%" y2="97.1679688%" id="linearGradient-2">
            <stop stop-color="#FF9F77" offset="0%"></stop>
            <stop stop-color="#F28C62" offset="100%"></stop>
        </linearGradient>
    </defs>
    <g id="Aquabyte-Homepage-Final" stroke="none" stroke-width="1" fill="none" fill-rule="evenodd" transform="translate(-732.000000, -1122.000000)">
        <g id="Machine-Learning" transform="translate(0.000000, 800.000000)" fill-rule="nonzero">
            <g id="Appetite-Detection" transform="translate(732.000000, 322.000000)">
                <g id="Group-6" transform="translate(87.500000, 35.500000) scale(-1, 1) translate(-87.500000, -35.500000) ">
                    <g id="noun_646125_cc">
                        <path d="M149.828484,13.0571158 C149.437335,13.0571158 149.057101,12.9443192 148.728718,12.7314611 L147.202325,11.7381233 C146.749319,11.4433967 146.438219,10.990391 146.325422,10.4609747 C146.212626,9.93155845 146.312687,9.39031671 146.609233,8.93731102 C147.197777,8.0322093 148.498576,7.75294675 149.408226,8.34330959 L150.934619,9.33573771 C151.387625,9.63137396 151.698725,10.0843796 151.811521,10.611067 C151.924318,11.1413929 151.823347,11.6826347 151.527711,12.1356403 C151.153845,12.7123584 150.517999,13.0571158 149.828484,13.0571158 Z M148.30755,9.56405986 C148.143813,9.56405986 147.99372,9.64592836 147.904575,9.78237585 C147.835441,9.88789525 147.81179,10.0152462 147.83908,10.1398683 C147.86546,10.2654 147.939141,10.3727387 148.04739,10.4427817 L149.571963,11.4352099 C149.783002,11.5716574 150.094102,11.5061626 150.231459,11.2942141 C150.302412,11.1850561 150.326063,11.0586148 150.299683,10.9349024 C150.273303,10.8093707 150.199622,10.7029416 150.091373,10.6319889 L148.5668,9.64047046 C148.48857,9.59043971 148.398515,9.56405986 148.30755,9.56405986 Z M171.889316,45.3333163 C171.621879,45.3333163 171.359899,45.2805566 171.112475,45.1768565 C170.08457,44.7511403 169.59245,43.5658663 170.018166,42.5343233 L170.717687,40.8523805 C171.136126,39.8463076 172.354147,39.335994 173.363858,39.7598908 C174.393582,40.188336 174.883883,41.3745196 174.456348,42.4042433 L173.757737,44.0852765 C173.442088,44.8439246 172.70982,45.3333163 171.889316,45.3333163 Z M172.587017,41.1507457 C172.393262,41.1507457 172.220428,41.2671809 172.145837,41.4463819 L171.447226,43.1265054 C171.347164,43.369382 171.4636,43.6486445 171.705566,43.7505253 C171.952991,43.8533157 172.230434,43.730513 172.329586,43.4930943 L173.028198,41.8120612 C173.129169,41.5691846 173.012733,41.2899221 172.768947,41.1880413 C172.70982,41.1625711 172.648873,41.1507457 172.587017,41.1507457 Z M171.889316,10.0179752 C171.621879,10.0179752 171.359899,9.9652155 171.112475,9.86242505 C170.08457,9.43579921 169.59245,8.25052529 170.018166,7.21898222 L170.717687,5.53703941 C171.136126,4.53096654 172.354147,4.0242915 173.363858,4.44364014 C174.393582,4.87299493 174.883883,6.0591785 174.456348,7.08799262 L173.757737,8.76902578 C173.442088,9.52767386 172.70982,10.0179752 171.889316,10.0179752 Z M172.587017,5.83449495 C172.393262,5.83449495 172.220428,5.95093015 172.145837,6.13013119 L171.447226,7.8102547 C171.347164,8.05313125 171.4636,8.33330344 171.705566,8.43427459 C171.952991,8.53888433 172.230434,8.41426229 172.329586,8.17684364 L173.028198,6.49581049 C173.129169,6.25293394 173.012733,5.97276175 172.768947,5.8717906 C172.70982,5.84723005 172.648873,5.83449495 172.587017,5.83449495 Z M108.347536,13.2927151 C107.586924,13.2927151 106.970326,12.6761172 106.970326,11.915505 C106.970326,11.1548929 107.586924,10.538295 108.347536,10.538295 C109.108148,10.538295 109.724746,11.1548929 109.724746,11.915505 C109.724746,12.6761172 109.108148,13.2927151 108.347536,13.2927151 Z M119.477103,21.692423 C118.716491,21.692423 118.099893,21.0758251 118.099893,20.3152129 C118.099893,19.5546008 118.716491,18.9380029 119.477103,18.9380029 C120.237715,18.9380029 120.854313,19.5546008 120.854313,20.3152129 C120.854313,21.0758251 120.237715,21.692423 119.477103,21.692423 Z M139.050042,43.9943115 C138.28943,43.9943115 137.672832,43.3777135 137.672832,42.6171014 C137.672832,41.8564893 138.28943,41.2398914 139.050042,41.2398914 C139.810654,41.2398914 140.427252,41.8564893 140.427252,42.6171014 C140.427252,43.3777135 139.810654,43.9943115 139.050042,43.9943115 Z M115.570054,58.7544201 C114.809442,58.7544201 114.192844,58.1378222 114.192844,57.3772101 C114.192844,56.6165979 114.809442,56 115.570054,56 C116.330666,56 116.947264,56.6165979 116.947264,57.3772101 C116.947264,58.1378222 116.330666,58.7544201 115.570054,58.7544201 Z M148.147451,68.5566802 C147.386839,68.5566802 146.770241,67.9400822 146.770241,67.1794701 C146.770241,66.418858 147.386839,65.80226 148.147451,65.80226 C148.908063,65.80226 149.524661,66.418858 149.524661,67.1794701 C149.524661,67.9400822 148.908063,68.5566802 148.147451,68.5566802 Z M157.244861,50.3618613 C156.484249,50.3618613 155.867651,49.7452634 155.867651,48.9846513 C155.867651,48.2240391 156.484249,47.6074412 157.244861,47.6074412 C158.005473,47.6074412 158.622071,48.2240391 158.622071,48.9846513 C158.622071,49.7452634 158.005473,50.3618613 157.244861,50.3618613 Z M167.25192,23.0696331 C166.491308,23.0696331 165.87471,22.4530351 165.87471,21.692423 C165.87471,20.9318109 166.491308,20.3152129 167.25192,20.3152129 C168.012532,20.3152129 168.62913,20.9318109 168.62913,21.692423 C168.62913,22.4530351 168.012532,23.0696331 167.25192,23.0696331 Z M139.959692,24.888933 C139.19908,24.888933 138.582482,24.2723351 138.582482,23.511723 C138.582482,22.7511108 139.19908,22.1345129 139.959692,22.1345129 C140.720304,22.1345129 141.336902,22.7511108 141.336902,23.511723 C141.336902,24.2723351 140.720304,24.888933 139.959692,24.888933 Z M96.5700542,68.7544201 C95.8094421,68.7544201 95.1928442,68.1378222 95.1928442,67.3772101 C95.1928442,66.6165979 95.8094421,66 96.5700542,66 C97.3306663,66 97.9472643,66.6165979 97.9472643,67.3772101 C97.9472643,68.1378222 97.3306663,68.7544201 96.5700542,68.7544201 Z M103.570054,31.2573925 C102.809442,31.2573925 102.192844,30.6407946 102.192844,29.8801824 C102.192844,29.1195703 102.809442,28.5029724 103.570054,28.5029724 C104.330666,28.5029724 104.947264,29.1195703 104.947264,29.8801824 C104.947264,30.6407946 104.330666,31.2573925 103.570054,31.2573925 Z M121.763963,38.7629145 C121.003351,38.7629145 120.386753,38.1463165 120.386753,37.3857044 C120.386753,36.6250923 121.003351,36.0084943 121.763963,36.0084943 C122.524576,36.0084943 123.141173,36.6250923 123.141173,37.3857044 C123.141173,38.1463165 122.524576,38.7629145 121.763963,38.7629145 Z M128.698225,5.86724235 C127.582085,5.86724235 126.674254,4.95941167 126.674254,3.84327115 L126.674254,2.0239712 C126.674254,0.907830677 127.582085,0 128.698225,0 C129.814366,0 130.722196,0.907830677 130.722196,2.0239712 L130.722196,3.84327115 C130.722196,4.95941167 129.814366,5.86724235 128.698225,5.86724235 Z M128.698225,1.54640496 C128.434427,1.54640496 128.220659,1.76017271 128.220659,2.0239712 L128.220659,3.84327115 C128.220659,4.10706965 128.434427,4.32083739 128.698225,4.32083739 C128.962024,4.32083739 129.175791,4.10706965 129.175791,3.84327115 L129.175791,2.0239712 C129.175791,1.76017271 128.962024,1.54640496 128.698225,1.54640496 Z M129.451415,22.3555578 C129.04844,22.3555578 128.657291,22.2363937 128.32254,22.0108005 L126.81343,20.9947215 C125.887407,20.3707016 125.641801,19.1108364 126.264911,18.1848127 C126.86528,17.2915364 128.176086,17.0322862 129.073911,17.6362938 L130.58302,18.6523728 C131.509044,19.2763927 131.754649,20.5362579 131.131539,21.4622816 C130.754944,22.0217163 130.127285,22.3555578 129.451415,22.3555578 Z M127.945035,18.8379414 C127.784937,18.8379414 127.636664,18.9161713 127.547518,19.0480705 C127.400155,19.2663865 127.458372,19.5638421 127.676688,19.7112054 L129.185798,20.7272844 C129.398656,20.8710091 129.707027,20.8073336 129.848932,20.5981141 C129.996296,20.3797981 129.938078,20.0823425 129.719762,19.9349792 L128.210653,18.9189002 C128.131513,18.8661405 128.039639,18.8379414 127.945035,18.8379414 Z M133.148233,36.9035899 C132.332277,36.9035899 131.600009,36.4178368 131.28345,35.6664659 C131.073321,35.1707067 131.067863,34.6203685 131.271625,34.1191513 C131.474477,33.6188438 131.860168,33.2267847 132.357747,33.0157459 L134.033322,32.3062189 C135.040305,31.8795931 136.263784,32.3808102 136.686771,33.3823349 C136.8969,33.8771844 136.902358,34.4275227 136.699506,34.9287398 C136.496654,35.429957 136.110963,35.8220161 135.612475,36.0330549 L133.937809,36.7425819 C133.684017,36.8490109 133.419309,36.9035899 133.148233,36.9035899 Z M134.821989,33.6916158 C134.758313,33.6916158 134.695547,33.7043509 134.635511,33.7298211 L132.960845,34.4393481 C132.8435,34.4893789 132.752535,34.5812535 132.704324,34.7004177 C132.657022,34.8177625 132.657932,34.9469328 132.707053,35.0642777 C132.807114,35.302606 133.090925,35.4217701 133.333801,35.3189797 L135.008467,34.6094527 C135.125812,34.5594219 135.216777,34.4675473 135.264988,34.3483831 C135.31229,34.2310383 135.311381,34.101868 135.262259,33.9845231 C135.186758,33.8053221 135.013925,33.6916158 134.821989,33.6916158 Z M152.961319,39.9008866 C152.266346,39.9008866 151.629591,39.5534003 151.255725,38.9712243 C150.655356,38.0333752 150.929161,36.7789679 151.865191,36.1740506 L153.398861,35.190719 C154.313969,34.6049044 155.613858,34.8941731 156.194215,35.8029134 C156.485303,36.2559191 156.583545,36.7971609 156.468929,37.3265772 C156.353404,37.8550838 156.039575,38.3062702 155.585659,38.5982678 L154.052899,39.5815994 C153.724515,39.7908189 153.34792,39.9008866 152.961319,39.9008866 Z M154.490441,36.4169272 C154.398566,36.4169272 154.31033,36.443307 154.23301,36.4924281 L152.702069,37.4739404 C152.481933,37.6167555 152.416439,37.9133014 152.558344,38.1361656 C152.694792,38.3481141 153.000434,38.4172475 153.220569,38.2789807 L154.750601,37.2974684 C154.85703,37.2292446 154.930711,37.1219059 154.95891,36.9972839 C154.98529,36.8726618 154.963459,36.7453108 154.894325,36.6379721 C154.80336,36.4987957 154.653268,36.4169272 154.490441,36.4169272 Z M154.978013,27.0648158 C154.021061,27.0648158 153.186912,26.3853072 152.994066,25.4501871 C152.768473,24.3586071 153.473452,23.2861298 154.565032,23.0587173 L156.347946,22.6893994 C157.431339,22.4647158 158.52019,23.1924358 158.740325,24.2621842 C158.849483,24.7906908 158.747603,25.3310229 158.451057,25.7831189 C158.154511,26.235215 157.699686,26.5435863 157.170269,26.653654 L155.389175,27.0229719 C155.250908,27.051171 155.114461,27.0648158 154.978013,27.0648158 Z M156.759108,24.1939604 C156.72636,24.1939604 156.693613,24.197599 156.661775,24.2039666 L154.88068,24.5732845 C154.62325,24.6269538 154.455874,24.8807462 154.508634,25.1390868 C154.562303,25.3910598 154.823373,25.562074 155.076255,25.5093143 L156.855531,25.1399964 C156.981062,25.1136166 157.088401,25.0408446 157.157534,24.9344155 C157.227577,24.8279865 157.252138,24.7006355 157.225758,24.5751038 C157.179366,24.3531492 156.983791,24.1939604 156.759108,24.1939604 Z M144.839964,60.8455773 C144.778108,60.8455773 144.714432,60.8419387 144.650757,60.8364808 L142.838734,60.6636473 C141.724413,60.5563086 140.908457,59.5656998 141.015796,58.4550172 C141.121315,57.3479731 142.09464,56.540204 143.220787,56.6320786 L145.03281,56.8049121 C145.572232,56.8567622 146.058895,57.1141931 146.402743,57.5317224 C146.74659,57.9492518 146.907598,58.4741198 146.854839,59.0126326 C146.758416,60.0560011 145.891519,60.8455773 144.839964,60.8455773 Z M143.070695,58.172116 C142.781426,58.172116 142.578574,58.3576846 142.554923,58.6041998 C142.530363,58.866179 142.724118,59.099959 142.987007,59.1254292 L144.840874,59.2991723 C145.08557,59.2991723 145.293879,59.1090555 145.315711,58.866179 C145.328446,58.7370087 145.29115,58.6142059 145.210192,58.5159637 C145.129233,58.4177215 145.013707,58.3558653 144.887266,58.3440399 L143.077062,58.172116 C143.074333,58.172116 143.072514,58.172116 143.070695,58.172116 Z M109.312675,70.9044868 C108.997026,70.9044868 108.681377,70.8280762 108.399386,70.6852611 C107.406048,70.1822247 107.005802,68.9623841 107.507019,67.9681366 L108.329343,66.3425921 C108.820554,65.3765438 110.079509,64.9590145 111.050106,65.4520448 C111.530401,65.6949213 111.888803,66.1124507 112.057998,66.6264029 C112.226283,67.1394455 112.185349,67.6879644 111.942473,68.1700789 L111.120149,69.7938041 C110.772663,70.4787706 110.079509,70.9044868 109.312675,70.9044868 Z M110.135908,66.7792241 C109.954887,66.7792241 109.79115,66.8792856 109.708372,67.0412033 L108.886958,68.6640189 C108.769613,68.8987086 108.863307,69.1870676 109.097997,69.3062317 C109.331777,69.4235766 109.623775,69.3235151 109.74112,69.0951929 L110.562534,67.473287 C110.618932,67.3604904 110.628938,67.2304105 110.588913,67.109427 C110.548889,66.9884436 110.464291,66.8892918 110.351495,66.8319838 C110.281452,66.7955978 110.209589,66.7792241 110.135908,66.7792241 Z M110.486123,44.9876493 C110.094974,44.9876493 109.71474,44.8748527 109.386356,44.6619946 L107.859964,43.6695664 C107.406958,43.3748399 107.095858,42.9209245 106.983971,42.3924179 C106.871174,41.8630016 106.972145,41.3217599 107.267781,40.8687542 C107.855415,39.9636524 109.157124,39.6825706 110.065865,40.2747527 L111.593167,41.2671809 C112.529197,41.8784656 112.794815,43.1337826 112.185349,44.0670835 C111.811483,44.6438016 111.175638,44.9876493 110.486123,44.9876493 Z M108.964279,41.4945933 C108.801451,41.4945933 108.651359,41.5764618 108.562213,41.7129093 C108.49217,41.8193384 108.469429,41.9466894 108.495809,42.0713114 C108.522189,42.1968431 108.59587,42.3041818 108.703209,42.3742249 L110.227782,43.3657434 C110.44155,43.5031005 110.749921,43.4385153 110.888188,43.2247476 C111.032823,43.0037027 110.969147,42.7080664 110.748102,42.5634321 L109.222619,41.5719136 C109.145299,41.5209732 109.056153,41.4945933 108.964279,41.4945933 Z M126.544174,54.068685 C125.523547,54.068685 124.660289,53.3054886 124.535667,52.2930482 C124.400129,51.1860042 125.188796,50.1735638 126.29493,50.0362066 L128.101495,49.8124327 C129.251292,49.6841721 130.224618,50.4810255 130.358336,51.5735151 C130.424741,52.1092989 130.279197,52.6396249 129.946265,53.0671604 C129.614243,53.4937862 129.135767,53.7648619 128.600893,53.832176 L126.793418,54.0550402 C126.70973,54.0632271 126.626043,54.068685 126.544174,54.068685 Z M128.349829,51.3433736 L126.485047,51.5707861 C126.223977,51.6026239 126.038409,51.8427715 126.070246,52.1047507 C126.099355,52.343079 126.303117,52.52228 126.543264,52.52228 L126.603301,52.5186414 L128.408956,52.2957772 C128.534488,52.2803131 128.647285,52.215728 128.725515,52.1156665 C128.803745,52.0146953 128.839221,51.8891636 128.822847,51.7627223 C128.794648,51.5225747 128.590886,51.3433736 128.349829,51.3433736 Z M129.946265,71 C129.944446,71 129.929891,71 129.927162,71 C129.389559,70.9972711 128.881974,70.784413 128.500831,70.3987214 C128.121507,70.0139394 127.913197,69.5045354 127.916836,68.965113 L127.930481,67.1439937 C127.938667,66.0351304 128.845588,65.1345769 129.952632,65.1345769 C131.084237,65.1427638 131.9857,66.056962 131.978423,67.1712832 L131.966598,68.9914929 C131.957501,70.1003562 131.05058,71 129.946265,71 Z M129.957181,66.6800723 C129.692473,66.6800723 129.479615,66.8929304 129.477795,67.1539999 L129.46415,68.9742095 C129.463241,69.1006508 129.512362,69.2207246 129.602417,69.3116896 C129.692473,69.4026546 129.811637,69.4526854 129.938988,69.453595 L129.946265,70.2267975 L129.946265,69.453595 C130.205515,69.453595 130.418373,69.2407369 130.420193,68.9796674 L130.432018,67.1603674 C130.433837,66.8974786 130.220979,66.6828012 129.957181,66.6800723 Z M38.6939092,35.3618613 C37.9332971,35.3618613 37.3166991,34.7452634 37.3166991,33.9846513 C37.3166991,33.2240391 37.9332971,32.6074412 38.6939092,32.6074412 C39.4545213,32.6074412 40.0711193,33.2240391 40.0711193,33.9846513 C40.0711193,34.7452634 39.4545213,35.3618613 38.6939092,35.3618613 Z M62.6939092,34.3618613 C61.9332971,34.3618613 61.3166991,33.7452634 61.3166991,32.9846513 C61.3166991,32.2240391 61.9332971,31.6074412 62.6939092,31.6074412 C63.4545213,31.6074412 64.0711193,32.2240391 64.0711193,32.9846513 C64.0711193,33.7452634 63.4545213,34.3618613 62.6939092,34.3618613 Z M48.6623789,15.1891303 C47.9017668,15.1891303 47.2851689,14.5725324 47.2851689,13.8119203 C47.2851689,13.0513081 47.9017668,12.4347102 48.6623789,12.4347102 C49.422991,12.4347102 50.039589,13.0513081 50.039589,13.8119203 C50.039589,14.5725324 49.422991,15.1891303 48.6623789,15.1891303 Z M75.9546072,21.5566802 C75.1939951,21.5566802 74.5773971,20.9400822 74.5773971,20.1794701 C74.5773971,19.418858 75.1939951,18.80226 75.9546072,18.80226 C76.7152193,18.80226 77.3318173,19.418858 77.3318173,20.1794701 C77.3318173,20.9400822 76.7152193,21.5566802 75.9546072,21.5566802 Z M85.0520166,3.36186132 C84.2914045,3.36186132 83.6748065,2.74526337 83.6748065,1.98465126 C83.6748065,1.22403914 84.2914045,0.607441193 85.0520166,0.607441193 C85.8126287,0.607441193 86.4292267,1.22403914 86.4292267,1.98465126 C86.4292267,2.74526337 85.8126287,3.36186132 85.0520166,3.36186132 Z M94.6939092,41.3618613 C93.9332971,41.3618613 93.3166991,40.7452634 93.3166991,39.9846513 C93.3166991,39.2240391 93.9332971,38.6074412 94.6939092,38.6074412 C95.4545213,38.6074412 96.0711193,39.2240391 96.0711193,39.9846513 C96.0711193,40.7452634 95.4545213,41.3618613 94.6939092,41.3618613 Z M26.6939092,10.3618613 C25.9332971,10.3618613 25.3166991,9.74526337 25.3166991,8.98465126 C25.3166991,8.22403914 25.9332971,7.60744119 26.6939092,7.60744119 C27.4545213,7.60744119 28.0711193,8.22403914 28.0711193,8.98465126 C28.0711193,9.74526337 27.4545213,10.3618613 26.6939092,10.3618613 Z M78.6939092,39.3618613 C77.9332971,39.3618613 77.3166991,38.7452634 77.3166991,37.9846513 C77.3166991,37.2240391 77.9332971,36.6074412 78.6939092,36.6074412 C79.4545213,36.6074412 80.0711193,37.2240391 80.0711193,37.9846513 C80.0711193,38.7452634 79.4545213,39.3618613 78.6939092,39.3618613 Z M99.0105955,23.2368037 C98.9041665,23.2368037 98.7968278,23.2286168 98.6885794,23.2113335 L96.8920207,22.9202455 C95.7877056,22.7392251 95.0372444,21.6976759 95.2164454,20.5979091 C95.3929175,19.5072388 96.405358,18.7413135 97.5378722,18.9241531 L99.3344309,19.2143315 C100.436927,19.3935325 101.187388,20.4359914 101.008187,21.5366679 C100.848088,22.5218188 100.007572,23.2368037 99.0105955,23.2368037 Z M97.273164,20.4505458 C96.9711603,20.4505458 96.7792241,20.6179214 96.7419285,20.8471532 C96.7000846,21.1054938 96.878376,21.3520089 97.1403551,21.3947625 L99.0105955,21.692218 C99.2416466,21.692218 99.4444985,21.5193845 99.4817942,21.2901527 C99.5236381,21.0299928 99.347166,20.7843873 99.0860964,20.7416338 L97.2904474,20.4514554 C97.2849895,20.4505458 97.2786219,20.4505458 97.273164,20.4505458 Z M72.6471199,13.8455773 C72.5852637,13.8455773 72.5215882,13.8419387 72.4579127,13.8364808 L70.6458899,13.6636473 C69.5315687,13.5563086 68.7156127,12.5656998 68.8229514,11.4550172 C68.9284708,10.3479731 69.9017962,9.54020397 71.0279429,9.63207861 L72.8399657,9.80491211 C73.3793881,9.85676216 73.8660508,10.1141931 74.2098985,10.5317224 C74.5537462,10.9492518 74.7147543,11.4741198 74.6619946,12.0126326 C74.5655717,13.0560011 73.6986752,13.8455773 72.6471199,13.8455773 Z M70.8778507,11.172116 C70.588582,11.172116 70.38573,11.3576846 70.3620791,11.6041998 C70.3375186,11.866179 70.531274,12.099959 70.7941629,12.1254292 L72.6480295,12.2991723 C72.8927254,12.2991723 73.1010352,12.1090555 73.1228668,11.866179 C73.1356019,11.7370087 73.0983063,11.6142059 73.0173474,11.5159637 C72.9363886,11.4177215 72.820863,11.3558653 72.6944217,11.3440399 L70.8842182,11.172116 C70.8814893,11.172116 70.87967,11.172116 70.8778507,11.172116 Z M37.1198304,23.9044868 C36.8041818,23.9044868 36.4885333,23.8280762 36.2065418,23.6852611 C35.213204,23.1822247 34.812958,21.9623841 35.3141752,20.9681366 L36.1364987,19.3425921 C36.6277097,18.3765438 37.8866653,17.9590145 38.8572618,18.4520448 C39.337557,18.6949213 39.6959591,19.1124507 39.865154,19.6264029 C40.0334392,20.1394455 39.992505,20.6879644 39.7496285,21.1700789 L38.9273049,22.7938041 C38.5798186,23.4787706 37.8866653,23.9044868 37.1198304,23.9044868 Z M37.9430636,19.7792241 C37.7620433,19.7792241 37.5983063,19.8792856 37.5155281,20.0412033 L36.6941142,21.6640189 C36.5767693,21.8987086 36.6704633,22.1870676 36.905153,22.3062317 C37.138933,22.4235766 37.4309307,22.3235151 37.5482755,22.0951929 L38.3696894,20.473287 C38.4260877,20.3604904 38.4360939,20.2304105 38.3960693,20.109427 C38.3560447,19.9884436 38.2714472,19.8892918 38.1586506,19.8319838 C38.0886076,19.7955978 38.0167452,19.7792241 37.9430636,19.7792241 Z M54.3513299,7.06868498 C53.3307026,7.06868498 52.4674448,6.30548865 52.3428227,5.29304822 C52.2072849,4.1860042 52.9959514,3.17356378 54.1020858,3.03620663 L55.9086506,2.81243274 C57.0584482,2.68417209 58.0317737,3.48102547 58.1654922,4.57351509 C58.2318967,5.10929893 58.0863527,5.63962487 57.7534208,6.06716035 C57.4213986,6.49378619 56.9429227,6.76486189 56.4080485,6.83217599 L54.600574,7.05504023 C54.5168862,7.06322708 54.4331984,7.06868498 54.3513299,7.06868498 Z M56.1569851,4.34337365 L54.2922026,4.57078614 C54.0311331,4.60262389 53.8455645,4.84277149 53.8774022,5.10475068 C53.906511,5.34307897 54.1102726,5.52228002 54.3504202,5.52228002 L54.4104571,5.51864142 L56.2161123,5.29577717 C56.341644,5.28031312 56.4544406,5.21572798 56.5326705,5.11566648 C56.6109004,5.01469533 56.6463768,4.88916363 56.6300031,4.76272229 C56.6018039,4.52257469 56.3980423,4.34337365 56.1569851,4.34337365 Z M57.7534208,24 C57.7516015,24 57.7370471,24 57.7343181,24 C57.196715,23.9972711 56.6891303,23.784413 56.307987,23.3987214 C55.9286629,23.0139394 55.7203531,22.5045354 55.7239917,21.965113 L55.7376364,20.1439937 C55.7458233,19.0351304 56.6527443,18.1345769 57.7597883,18.1345769 C58.8913929,18.1427638 59.792856,19.056962 59.7855788,20.1712832 L59.7737534,21.9914929 C59.7646569,23.1003562 58.8577359,24 57.7534208,24 Z M57.7643366,19.6800723 C57.4996285,19.6800723 57.2867704,19.8929304 57.2849511,20.1539999 L57.2713063,21.9742095 C57.2703967,22.1006508 57.3195178,22.2207246 57.4095731,22.3116896 C57.4996285,22.4026546 57.6187926,22.4526854 57.7461436,22.453595 L57.7534208,23.2267975 L57.7534208,22.453595 C58.012671,22.453595 58.2255291,22.2407369 58.2273484,21.9796674 L58.2391739,20.1603674 C58.2409932,19.8974786 58.0281351,19.6828012 57.7643366,19.6800723 Z" id="Shape" fill="url(#linearGradient-1)"></path>
                        <path d="M7.83043479,53.3559663 L7.94108355,53.4284781 C7.98082647,53.4548011 8.03884034,53.492399 8.09039723,53.5294579 C8.06569128,53.5493349 8.03561735,53.5724238 7.99908643,53.5976688 C7.91422161,53.6551437 7.7820899,53.7421535 7.61021527,53.8544082 C4.86236625,55.6521123 1.11227641,58.3328175 0.275464234,60.844332 C0.188454424,61.1053614 -0.0736530059,62.0018045 0.226052342,62.5560933 C0.337768099,62.7612648 0.517166709,62.9057495 0.732007241,62.9621464 C1.34000892,63.1205901 3.27467371,62.6328951 4.39400927,62.210727 C5.06110282,61.9588276 6.84107495,61.2052632 8.72632785,60.406577 C10.5965438,59.6143477 12.5301306,58.7952565 13.25845,58.5191791 C14.8677575,57.9086914 16.0855868,57.5835321 16.7338704,57.6004501 C16.7348824,57.6004501 16.7357514,57.6007141 16.7367524,57.6007141 C16.7431984,57.6007141 16.7485664,57.6007141 16.7539454,57.6007141 C16.7540774,57.6007141 16.7542094,57.6006481 16.7543524,57.6006481 L17.0515057,57.608249 C17.7774052,57.624628 19.1824871,57.6598829 20.7507757,57.8535705 C20.7270707,57.9024434 20.6876028,57.9419223 20.6791438,57.9976482 C20.6436909,58.2307487 20.7607857,58.4606372 20.9702582,58.56913 C24.8052129,60.5499836 29.4297128,62.9272215 29.6778613,63.0013503 C29.7143812,63.0120973 29.7584251,63.0174653 29.809993,63.0174653 C30.5775823,63.0174653 32.8439844,61.8456928 33.5247729,61.4841566 C34.0412658,61.6146713 34.7166203,61.8085679 35.4313767,62.0136075 C36.1070613,62.207504 36.8149647,62.4105306 37.4530513,62.5791822 C38.6681197,62.9000405 45.0717338,63.6792458 47.5188654,63.9619672 C47.1849832,64.6581887 46.9869946,65.3162843 46.9204557,65.9355719 C46.8846068,66.0240557 46.8773578,66.1197335 46.8908438,66.2168853 C46.8735188,66.6220694 46.8950018,67.0154286 46.9974556,67.3830808 C47.3616098,68.6877219 48.3638616,69.2387877 48.4068275,69.2613487 C48.4766553,69.2989466 48.5539962,69.3209686 48.632415,69.3257976 C48.646385,69.3268756 48.6603439,69.3268756 48.6753809,69.3268756 C49.2737246,69.3268756 50.4037962,68.5953331 51.379186,67.8675527 C51.4651288,67.9266336 51.5553617,67.9701385 51.6520404,67.9980674 C51.9560468,68.0829323 52.1891473,67.9717445 52.299796,67.9062176 C52.6218643,67.6767361 54.5079202,65.8444591 55.4804171,64.52928 C56.1561676,64.5825859 57.8983438,64.7029036 59.9095465,64.7029036 C60.3757585,64.7029036 60.8570074,64.6964576 61.3393234,64.6808817 C63.1504474,64.6234068 65.9659683,64.4343502 68.6880334,64.2517286 C70.675333,64.1185299 72.5767009,63.9912272 73.902275,63.9278563 C75.5189745,63.8510545 77.0561772,63.5642301 78.2915185,63.3343526 C78.6889806,63.2602348 79.0499118,63.1930909 79.3614421,63.14314 C80.7256922,62.9250765 83.0664101,62.4964624 84.7153395,62.1328362 C86.4867206,61.7423591 90.0337839,60.6718964 91.4109259,60.1799115 C92.8750777,59.6573026 96.0010509,57.8789365 96.7991982,57.2934957 C98.2096481,56.259025 98.9433355,55.5081446 98.9809335,55.0478506 C99.0120854,54.6896034 99.0700883,54.0230489 98.6339612,53.6733926 C98.5061305,53.5713458 98.2332761,53.4150472 97.815409,53.5466399 C97.7498821,53.5675838 97.6865003,53.5922898 97.6241964,53.6202187 C97.6274194,53.5734908 97.6274194,53.5235399 97.6263414,53.4714441 C97.5812195,52.2618757 96.1578886,51.9229664 95.6229268,51.7956637 C94.591679,51.5496712 90.6643465,50.3390249 88.3590706,49.4570908 C85.7025323,48.439274 81.6183622,47.0008951 76.8477716,46.2629067 C72.2675136,45.5553993 64.3804867,44.8594418 57.1121316,45.1942591 C56.2436944,43.4328769 54.4719723,40.7598937 52.8723338,39.1612562 C52.750949,39.0404105 52.5769294,38.9818576 52.4114898,39.0049575 C52.2417602,39.0275185 52.0924465,39.1274203 52.0065147,39.2756559 C50.6562236,41.6228198 47.2219541,44.2256452 45.6836734,45.0979103 C45.5117988,45.1956671 45.405451,45.3777387 45.405451,45.5753972 C45.405451,45.7730558 45.5107208,45.9556664 45.6825954,46.0539622 C45.6825954,46.0539622 45.6833984,46.0545012 45.6834644,46.0545012 C43.8339945,46.3094916 40.9211238,46.7499857 37.6743049,47.2409696 C30.2793949,48.3592932 20.3431606,49.8577649 17.844131,49.9325538 C17.84379,49.9325538 17.843526,49.9324218 17.843196,49.9324218 C17.841447,49.9325538 17.839434,49.9327628 17.837696,49.9328948 C17.6592434,49.9381307 17.5126797,49.9371957 17.4145929,49.9270538 C15.1995608,49.6901913 13.691354,48.9532809 11.6030856,47.9338471 L11.4709539,47.8693982 C5.79586822,45.0973823 2.18435608,43.7830831 0.715903276,43.9506568 C0.399004966,43.9877157 0.18094144,44.1338064 0.0692256832,44.3840998 C-0.118763908,44.8046509 0.0144458024,45.3933256 1.25086511,47.1544988 C2.8202867,49.3878019 4.91071115,51.3579197 7.83043479,53.3559663 Z M3.18283491,47.8475083 C5.81419418,48.6535095 8.82750563,49.7436292 10.9778139,50.7949519 C10.5986778,50.9197576 10.2688985,51.0615583 10.028747,51.2375249 C9.62792988,51.1125102 9.16796588,50.9550015 8.65972299,50.7767579 C7.31104893,50.3045069 5.88770702,49.818561 5.02041391,49.7518901 C4.34305738,49.1297975 3.73337271,48.4973429 3.18283491,47.8475083 Z M8.21284896,54.7749962 C8.39331457,54.6562955 8.53403726,54.5644457 8.62212507,54.5032198 C8.78540872,54.3909651 9.28169464,54.0493608 9.27417065,53.505269 C9.26772467,52.9815931 8.81332666,52.6850998 8.45131744,52.4476983 C7.91588261,52.0814541 7.41859569,51.7164309 6.93983273,51.3510557 C7.39684874,51.5009743 7.86507372,51.664192 8.29555778,51.8149797 C8.71658187,51.9625553 9.10121803,52.093741 9.45846425,52.2104948 C9.45826625,52.2141908 9.45584626,52.2168088 9.45571426,52.2204938 C9.42778532,52.9224902 10.1840337,53.1593637 10.7920354,53.3500373 C10.8210423,53.3591673 10.8532612,53.3693753 10.8876361,53.3801112 C10.7404675,53.4424151 10.5868528,53.50418 10.4590221,53.5557479 C9.48793319,53.947303 8.65004301,54.2846063 8.57376918,54.9688818 C8.55081223,55.1754723 8.58646315,55.350361 8.64788702,55.5106856 C7.85968373,55.7652031 7.01634857,56.0089185 6.10695855,56.23048 C6.75265714,55.7612651 7.44129964,55.2798181 8.21284896,54.7749962 Z M4.1533188,57.7554837 C6.29074615,57.4027365 8.04547333,56.8786536 9.6192729,56.3506108 C9.86922536,56.4507766 10.1481188,56.5267864 10.4357461,56.5908943 C8.08086025,57.4861823 4.67868865,58.7353616 2.55764027,59.2842274 C2.98685933,58.8047934 3.52121617,58.2942626 4.1533188,57.7554837 Z M12.8685118,57.4906153 C12.1208545,57.7742057 10.1765207,58.5975979 8.29664678,59.3935892 C6.50484968,60.1525215 4.65182671,60.9377768 4.00514912,61.1816243 C2.84284765,61.6199073 1.65476223,61.8546248 1.18640525,61.8949067 C1.18962825,61.7262551 1.22937116,61.4603857 1.31960396,61.1923713 C1.38136883,61.0069997 1.47281163,60.8126411 1.58117239,60.6131675 C3.72698172,60.3022532 8.79795969,58.4085413 12.5689935,56.9502195 C12.9806236,57.0226653 13.3801647,57.0982572 13.7619079,57.174597 C13.4734225,57.2732228 13.1881491,57.3693626 12.8685118,57.4906153 Z M23.5575626,58.6655447 C23.343525,58.555303 23.1306975,58.4457322 22.921027,58.3376355 L23.1876334,58.2903686 C23.4274549,58.3491854 23.6901673,58.4179353 23.9778497,58.4972231 L23.5575626,58.6655447 Z M25.7042519,59.7693043 C25.4241485,59.6256227 25.1390841,59.47907 24.8527328,59.3319013 L25.6904249,58.996413 C26.0275302,59.0989988 26.3718844,59.2052806 26.7246977,59.3156543 C26.3437465,59.4951739 25.9678993,59.6652996 25.7042519,59.7693043 Z M26.9671262,60.4164549 C27.4681861,60.1847624 27.970577,59.937692 28.2484694,59.7991143 C28.5556987,59.8977401 28.857142,59.9948919 29.1576614,60.0922416 L27.7798484,60.83177 C27.5228339,60.7006503 27.2499795,60.5612036 26.9671262,60.4164549 Z M29.9238427,61.9120997 C29.7562691,61.8321409 29.4224528,61.6654362 28.9741048,61.4387707 L30.6058412,60.5630186 C30.6221542,60.5683206 30.6402162,60.5742276 30.6564631,60.5795296 C31.17256,60.7477742 31.614055,60.8912579 32.0144102,61.0204306 C31.1395161,61.4435337 30.253424,61.8223949 29.9238427,61.9120997 Z M51.9044569,66.804075 C51.8260381,66.6907423 51.7057313,66.6101785 51.5682316,66.5811715 C51.409249,66.5473356 51.2448873,66.5854725 51.1170566,66.6848353 C50.2759434,67.3374199 49.1995848,68.0544643 48.7956767,68.202161 C48.5926501,68.0458623 48.2177489,67.6859981 48.0512423,67.0651045 C48.0025674,66.8841659 47.9891364,66.6884543 47.9820854,66.4902677 C48.9698283,66.0354737 52.0444316,64.6272458 54.0633562,63.7856596 C54.2610148,63.8176805 54.4405454,63.8485685 54.596437,63.8779054 C53.8465687,64.8917072 52.4433127,66.2996601 51.9044569,66.804075 Z M48.2034489,65.1786526 C48.3410806,64.7636675 48.5288722,64.3292784 48.7984926,63.8644854 C48.9474103,63.7542437 49.3891804,63.4637343 50.028873,63.3982735 C50.3808172,63.3626225 51.1237666,63.4153234 51.9353338,63.5022012 C50.5759898,64.0982569 49.1355979,64.7520515 48.2034489,65.1786526 Z M68.6149715,63.154426 C65.9014974,63.3359696 63.0967235,63.5244982 61.3049264,63.5819621 C58.8879347,63.6614589 56.5472168,63.5089112 55.6534687,63.4396334 C55.52456,63.167318 55.2774896,62.9621464 54.9724162,62.8896346 C53.7295509,62.5910072 50.9054281,62.2026751 49.9171572,62.3036548 C49.11472,62.3863747 48.5099303,62.7279679 48.2102249,62.9336785 C46.1681344,62.707552 38.9365191,61.8336809 37.7344637,61.5157155 C37.1028231,61.3492089 36.4024326,61.1477993 35.7353501,60.9565868 C34.9930717,60.7433522 34.2905252,60.5419427 33.7598644,60.409272 C33.4279291,60.3260241 32.3010805,59.9586359 30.9969784,59.5337839 C30.1894371,59.2704004 29.2873621,58.9768001 28.3767621,58.6851577 C28.3746171,58.6844207 28.3726041,58.6837497 28.3703821,58.6830787 C26.4819062,58.0783 24.5698684,57.4900983 23.347012,57.1964979 C23.338421,57.194287 23.3304241,57.191999 23.3217671,57.190184 C23.2600022,57.175477 23.1852024,57.155138 23.1272655,57.1420481 C20.6866458,56.5893653 18.1568713,56.5329684 17.0762007,56.5088014 L16.7711273,56.5007495 C16.7709293,56.5007495 16.7705223,56.5008155 16.7703243,56.5008155 C16.7702583,56.5008155 16.7701263,56.5007495 16.7700603,56.5007495 C15.8709443,56.4738985 14.9664493,56.2934219 14.0093193,56.1022203 C13.3529728,55.9711666 12.6622513,55.8336669 11.9081479,55.7278581 C10.8757562,55.5832415 10.3105884,55.4446638 9.99892608,55.343959 C9.90661428,55.2677621 9.79643852,55.2184822 9.67531778,55.2139833 C9.65087583,55.2000903 9.63570687,55.1902123 9.63402387,55.1902123 C9.76185459,55.0226387 10.48265,54.7325913 10.8704432,54.5762926 C11.425414,54.3525861 11.9062559,54.1560716 12.1805843,53.8910051 C15.3563654,53.949888 42.0337934,54.4395959 53.0130235,54.4710119 L56.6052087,54.4860488 C65.9917082,54.5311707 72.8935552,54.5644677 79.869509,53.3092494 C79.2077945,54.7288293 78.7093526,56.3836547 79.5826957,58.1937118 C79.6568135,58.3473924 79.7359693,58.4867731 79.8187551,58.6142629 C79.0554558,58.56693 77.9576802,58.557261 76.8799685,58.549275 C75.7874949,58.541751 74.7562472,58.534238 74.2255753,58.4869711 C73.0428579,58.3843854 71.4959863,58.6191028 71.4304594,58.6292998 C71.172642,58.6695817 70.9782174,58.8860393 70.9663924,59.1465297 C70.9642474,59.1728526 70.9653144,59.1986256 70.9674704,59.2238705 C69.7288951,59.4419341 68.6106375,59.7491634 68.2787023,60.1675695 C68.1540945,60.3260131 68.0971587,60.5172257 68.1197196,60.7057543 C68.1881285,61.287983 68.860524,61.8273669 69.7442731,62.2606779 C69.7532051,62.2648359 69.760927,62.2700059 69.770123,62.2736359 C70.3422098,62.5514513 70.9986883,62.7854978 71.6425499,62.9554254 C70.704252,63.0145723 69.6756882,63.0833221 68.6149715,63.154426 Z M73.7647643,62.1634601 C73.4245681,62.1783651 73.0334969,62.1364002 72.6289838,62.0619414 C73.5693937,61.8799248 74.4787838,61.6022414 75.3674938,61.2138432 C75.6457162,61.0924585 75.772469,60.7680472 75.6510842,60.4898248 C75.5296995,60.2110634 75.2063552,60.0853777 74.9270658,60.2062344 C73.4006761,60.8729209 71.8092216,61.1987402 70.0689924,61.2104222 C69.7500151,61.0503616 69.4947606,60.8915109 69.3465139,60.7535492 C69.9663406,60.5080957 71.5540331,60.2142974 72.9096922,60.0579987 C73.1685766,60.0284528 73.3705362,59.8205972 73.3941641,59.5617128 C73.6444576,59.5574118 73.896896,59.5622518 74.1289295,59.5826568 C74.7036343,59.6336856 75.757443,59.6411986 76.8724776,59.6492616 C77.5384931,59.6540906 78.2184676,59.6589306 78.8125103,59.6728896 C77.4450263,60.9657057 75.0688555,62.1070633 73.7647643,62.1634601 Z M79.1874005,62.0571124 C78.8672792,62.1081413 78.497757,62.1768911 78.0895479,62.2531539 C77.567819,62.3503717 76.9835773,62.4561145 76.3714067,62.5526613 C77.9634002,61.8465618 79.6184896,60.6972183 80.4238198,59.47577 C80.4514848,59.4338711 80.4551038,59.3842612 80.4702837,59.3377313 C80.9151448,59.6982005 81.3861197,59.8755751 81.7751889,60.0166388 C81.9706915,60.0875337 82.1576141,60.1525325 82.3208867,60.2432933 C82.8149616,60.5174237 83.0674661,60.8124981 83.2547847,61.315428 C81.8277578,61.6030554 80.2239613,61.8912107 79.1874005,62.0571124 Z M90.5365048,52.132428 C90.5440288,52.132428 90.5515418,52.132428 90.5590658,52.132967 C91.0961726,52.1587509 91.3271281,53.052499 91.367949,53.2313586 C91.4624828,53.6454637 91.3185371,53.9822389 90.9812339,54.5370667 C90.915707,54.6450205 90.7728393,54.6939044 90.6933425,54.7127034 C90.479569,54.7653382 90.2206845,54.7331083 90.0638469,54.6364295 C89.8902892,54.5296087 89.8269844,54.1958695 89.8048304,53.8273483 C89.9235312,54.0865077 90.1499877,54.2658293 90.4258671,54.2658293 C90.8254742,54.2658293 91.1380715,53.9032811 91.1380715,53.4408311 C91.1380715,52.9783811 90.8254742,52.6158329 90.4258671,52.6158329 C90.1590626,52.6158329 89.9407241,52.7854195 89.8186024,53.030477 C89.8496883,52.7308377 89.9506681,52.4713482 90.1304627,52.3064586 C90.2539814,52.1936538 90.3968491,52.132428 90.5365048,52.132428 Z M52.5693944,40.4401244 C53.8281767,41.8348554 55.1265699,43.7809381 55.9082612,45.2510079 L54.7552217,45.3072068 C53.9202905,43.8043131 52.5334685,42.010503 51.9372808,41.2650016 C52.1637483,40.9924002 52.3775879,40.7171368 52.5693944,40.4401244 Z M51.1919114,42.0958848 C51.7499622,42.8018413 52.7833,44.1523413 53.5234994,45.3670027 C53.0112305,45.3919066 52.5828254,45.4131256 52.2097282,45.4322655 C51.6784624,44.5632894 50.8828011,43.4217999 50.458961,42.8244682 C50.7097935,42.5874737 50.954312,42.3445063 51.1919114,42.0958848 Z M49.6355798,43.5664936 C49.9785921,44.0517025 50.5049519,44.8091609 50.953707,45.5025004 C50.5045449,45.5311003 50.1364307,45.5603713 49.7324566,45.5979692 C49.4385263,45.1576731 49.0434841,44.6465483 48.7596847,44.289775 C49.0485221,44.0612395 49.3404395,43.8208791 49.6355798,43.5664936 Z M47.8839986,44.9564616 C48.0556093,45.1719071 48.2693058,45.4470385 48.4746204,45.7254699 C48.3575256,45.7378229 48.2366139,45.7506489 48.1060332,45.7644758 L47.4284016,45.8365147 C47.2973479,45.7481629 47.1571642,45.6568521 47.0124815,45.5673563 C47.277064,45.3921926 47.5750313,45.1815101 47.8839986,44.9564616 Z M17.9420308,51.0281294 C17.9446488,51.0278654 17.9467278,51.0261824 17.9493458,51.0259184 C20.4644903,50.9356856 28.1640005,49.7923811 37.8386665,48.3286252 C42.2300659,47.6642267 46.0231217,47.0905889 47.3433388,46.9514832 L48.2220499,46.8585664 C50.5369839,46.612574 50.5369839,46.612574 54.3182256,46.4299524 L56.9543479,46.3015827 C64.1977881,45.9454804 72.1072439,46.6437259 76.680187,47.3500234 C81.3465858,48.0718968 85.3555601,49.4844917 87.9659094,50.4840486 C88.5426932,50.7047301 89.2050127,50.9408556 89.8921812,51.17598 C89.7121116,51.2524519 89.540039,51.3552357 89.3870953,51.4954304 C88.9681502,51.8794615 88.7232248,52.4450363 88.6985188,53.0879519 C88.6701169,53.8460152 88.6896528,54.6662395 89.1067169,55.2162383 C88.6881788,55.0923015 88.4310984,54.863293 88.2194149,54.6638195 C87.8902296,54.406948 87.8413567,53.957049 87.6189262,53.6207577 C87.3199578,53.1687797 86.789231,52.9693171 86.9249817,52.3381385 C86.9958765,52.0040582 87.3052509,51.6893159 87.7693178,51.7720247 C88.0604322,51.8235926 88.3547696,51.6270011 88.4074045,51.3278347 C88.4611173,51.0286684 88.2623808,50.742922 87.9626754,50.6892091 C86.9862076,50.5114275 86.0559396,51.1376891 85.848612,52.108789 C85.7117833,52.7504946 85.8852749,53.2972044 86.2826601,53.7930284 C86.6331193,54.2302994 86.8042569,54.6449545 87.1216283,55.1002875 C87.685729,55.9097757 88.7361057,56.4083497 89.7007596,56.4083497 C90.000465,56.4083497 90.2453905,56.1677252 90.2507584,55.8669418 C90.2510994,55.8453929 90.2414965,55.8269239 90.2394175,55.80598 C90.3203883,55.815451 90.3985321,55.8368679 90.4806469,55.8368679 C90.6385516,55.8368679 90.7975453,55.8191469 90.9511489,55.782088 C91.375462,55.6800412 91.7202893,55.4404838 91.9222378,55.1080205 C92.290693,54.5005468 92.6344423,53.8366873 92.4400067,52.9864441 C92.3394339,52.5445421 92.1806493,52.1658789 91.9754117,51.8627416 C93.4781734,52.3413725 94.8211495,52.7354027 95.3672543,52.8655874 C95.8904022,52.9901951 96.5155968,53.2028906 96.5263328,53.5525469 C96.5155858,53.5734908 96.4586609,53.6320437 96.416762,53.6750096 C96.0826818,54.0219819 95.7486015,54.4522019 95.6497667,55.5452255 C95.6250608,55.815396 95.8055264,56.0527974 96.0687118,56.1183243 C96.3243732,56.1854681 96.6068966,56.0382995 96.7121664,55.788006 C96.7153894,55.781021 96.7862842,55.6177374 97.0333547,55.4292198 C97.1590404,55.333619 97.2879491,55.2229702 97.4179249,55.1101765 C97.5726175,54.9758998 97.7412692,54.8298091 97.8991738,54.7240003 C97.8980958,54.7718062 97.8948728,54.8276641 97.8905828,54.891574 C97.7230092,55.1300534 96.9807198,55.796069 96.1482086,56.4062157 C95.4059302,56.9513855 92.3487069,58.6771057 91.0413817,59.1443957 C89.6900127,59.6267227 86.2116992,60.6767694 84.478994,61.0586445 C84.4359621,61.0681155 84.3876832,61.0780485 84.3437053,61.0876515 C84.3418903,61.0815465 84.3435073,61.0754965 84.3414943,61.0693915 C84.0600489,60.2298953 83.6303679,59.7121155 82.8558485,59.2818954 C82.643153,59.1637337 82.4036065,59.0740399 82.1500901,58.9821901 C81.5474564,58.7635875 80.9791976,58.557338 80.5731445,57.7156858 C79.7857442,56.0834104 80.3969689,54.6547115 81.3455078,52.8145695 C81.4421866,52.6271189 81.4228487,52.4004644 81.2960959,52.2318017 C81.1693432,52.0631391 80.9544917,51.9793633 80.7493201,52.0234072 C73.5037349,53.4666151 66.4235673,53.4338571 56.6105987,53.3860512 L53.0152015,53.3710143 C41.9669575,53.3393233 15.0004942,52.8429054 12.1432834,52.7899295 C11.891175,52.556961 11.5087608,52.4218043 11.1207586,52.3000236 C10.9768129,52.2549017 10.7641174,52.1883078 10.6201717,52.12761 C11.1712485,51.5271213 15.088912,51.2429919 16.4381251,51.1452351 C16.9763099,51.1065482 17.4876328,51.0694893 17.9420308,51.0281294 Z M10.9875489,48.8576801 L11.1207476,48.9226679 C12.1594424,49.4295688 13.0905243,49.8831529 14.0559812,50.2445571 C13.5433164,50.296521 13.0621334,50.3545348 12.6246534,50.4216017 C10.0948019,48.9656339 5.45412097,47.3252404 2.04388639,46.3648875 C1.59097337,45.7088819 1.3473239,45.2897279 1.22828216,45.0442084 C2.18220009,45.1274672 4.66578568,45.7693048 10.9875489,48.8576801 Z" id="Shape" stroke="url(#linearGradient-2)" fill="url(#linearGradient-2)"></path>
                    </g>
                </g>
            </g>
        </g>
    </g>
</svg>