<?xml version="1.0" encoding="UTF-8"?>
<svg width="176px" height="70px" viewBox="0 0 176 70" version="1.1" xmlns="http://www.w3.org/2000/svg" xmlns:xlink="http://www.w3.org/1999/xlink">
    <!-- Generator: Sketch 48.2 (47327) - http://www.bohemiancoding.com/sketch -->
    <title>Group 6</title>
    <desc>Created with Sketch.</desc>
    <defs>
        <linearGradient x1="50%" y1="0%" x2="50%" y2="97.1679688%" id="linearGradient-1">
            <stop stop-color="#FF9F77" offset="0%"></stop>
            <stop stop-color="#F28C62" offset="100%"></stop>
        </linearGradient>
        <linearGradient x1="0%" y1="0%" x2="100%" y2="100%" id="linearGradient-2">
            <stop stop-color="#DBE8F3" offset="0%"></stop>
            <stop stop-color="#B4CCE4" offset="100%"></stop>
        </linearGradient>
    </defs>
    <g id="Aquabyte-Homepage-Final" stroke="none" stroke-width="1" fill="none" fill-rule="evenodd" transform="translate(-132.000000, -1121.000000)">
        <g id="Machine-Learning" transform="translate(0.000000, 800.000000)">
            <g id="Lice-Counting" transform="translate(132.000000, 322.000000)">
                <g id="Group-6" transform="translate(1.000000, 0.000000)">
                    <path d="M22.6727696,5.92790755 C26.021607,3.31805399 28.6483931,1.90194679 30.553128,1.67958595 C32.4578629,1.45722511 35.0961327,2.2586839 38.4679373,4.08396234 C39.0075257,5.31325914 41.238829,5.5954126 45.1618473,4.93042272 C49.0848656,4.26543283 55.5605286,3.98327937 64.5888365,4.08396234 C81.4221842,4.34893338 92.2633883,6.9118273 96.9650416,9.19449558 C75.5442886,6.06118639 59.0741833,5.30029697 47.5547257,6.9118273 C46.3429127,6.9118273 45.7927738,7.67271673 45.9043088,9.19449558 C56.1106676,9.19449558 68.5742541,10.7028122 78.7245439,13.1788897 C83.3601806,14.4455658 90.4519993,15.9506857 100,17.6942494 C98.0412039,18.7499133 90.8372473,17.9079746 78.3881302,15.1684334 C59.7144546,11.0591214 44.4971588,11.0410347 38.4679373,11.7409923 C37.5002956,14.4031356 32.6792697,17.5034341 22.6727696,12.9727007 C20.3920291,18.7080123 14.5174494,19.4399232 5.04903043,15.1684334 C-1.68301014,11.775405 -1.68301014,7.766776 5.04903043,3.14254647 C11.781071,-1.48168306 17.6556507,-0.553229365 22.6727696,5.92790755 Z M42.8969112,8.06593486 L31.3480842,8.45523084 C33.0536944,8.2958951 36.9033034,8.16612977 42.8969112,8.06593486 Z" id="Path-2" stroke="url(#linearGradient-1)" stroke-width="2"></path>
                    <path d="M124.056833,48.717771 C126.424053,46.8729225 128.280871,45.8719072 129.627287,45.7147251 C130.973702,45.5575431 132.838638,46.1240768 135.222093,47.4143264 C135.603516,48.2832895 137.180776,48.4827376 139.953872,48.0126708 C142.726968,47.5426039 147.304473,47.3431558 153.686387,47.4143264 C165.585513,47.6016286 173.248924,49.4132825 176.57242,51.0268509 C161.430557,48.811983 149.788199,48.2741268 141.645345,49.4132825 C140.788741,49.4132825 140.39986,49.9511386 140.478702,51.0268509 C147.693354,51.0268509 156.503592,52.0930471 163.67861,53.8433323 C166.955441,54.738718 171.968493,55.8026544 178.717766,57.0351416 C177.333136,57.7813674 172.240816,57.1862193 163.440807,55.2496973 C150.240793,52.3449143 139.484018,52.3321291 135.222093,52.8269139 C134.538088,54.708725 131.13021,56.9002584 124.056833,53.6975817 C122.444627,57.7517485 118.292015,58.2691203 111.598996,55.2496973 C106.840263,52.8512395 106.840263,50.0176271 111.598996,46.74886 C116.357729,43.480093 120.510341,44.1363967 124.056833,48.717771 Z M138.352838,50.2290959 L130.189224,50.5042808 C131.394882,50.3916498 134.116087,50.2999215 138.352838,50.2290959 Z" id="Path-2-Copy" fill="url(#linearGradient-2)" transform="translate(143.373856, 51.026851) rotate(20.000000) translate(-143.373856, -51.026851) "></path>
                    <path d="M53.7639244,39.7524429 C55.7190597,38.2287449 57.2526434,37.401986 58.3646754,37.2721662 C59.4767075,37.1423463 61.0169956,37.6102581 62.9855398,38.6759014 C63.300565,39.3935958 64.6032559,39.5583241 66.8936125,39.1700863 C69.183969,38.7818485 72.9646237,38.6171202 78.2355764,38.6759014 C88.0633074,38.8305982 94.3926745,40.32688 97.1376177,41.659559 C84.6316444,39.8302545 75.0159834,39.3860281 68.2906349,40.32688 C67.5831481,40.32688 67.2619632,40.7711063 67.3270801,41.659559 C73.2858086,41.659559 80.5623633,42.5401522 86.4883573,43.9857484 C89.1947583,44.7252657 93.3351401,45.6039924 98.9095026,46.6219287 C97.7659082,47.2382518 93.5600575,46.7467068 86.2919505,45.1472939 C75.3897899,42.7481744 66.5055507,42.7376149 62.9855398,43.1462677 C62.4206063,44.7004939 59.6059703,46.5105259 53.7639244,43.86537 C52.4323709,47.2137889 49.0026438,47.6410969 43.4747431,45.1472939 C39.5444088,43.1663587 39.5444088,40.8260205 43.4747431,38.1262792 C47.4050773,35.426538 50.8348045,35.9685925 53.7639244,39.7524429 Z M65.5712859,41.000677 L58.8287908,41.2279577 C59.8245688,41.1349335 62.0720672,41.0591733 65.5712859,41.000677 Z" id="Path-2-Copy-2" fill="url(#linearGradient-2)" transform="translate(69.718247, 41.659559) rotate(-15.000000) translate(-69.718247, -41.659559) "></path>
                </g>
            </g>
        </g>
    </g>
</svg>