<?xml version="1.0" encoding="UTF-8"?>
<svg width="18px" height="17px" viewBox="0 0 18 17" version="1.1" xmlns="http://www.w3.org/2000/svg" xmlns:xlink="http://www.w3.org/1999/xlink">
    <!-- Generator: Sketch 48.2 (47327) - http://www.bohemiancoding.com/sketch -->
    <title>Fill 88</title>
    <desc>Created with Sketch.</desc>
    <defs></defs>
    <g id="Aquabyte-Homepage-Final" stroke="none" stroke-width="1" fill="none" fill-rule="evenodd" transform="translate(-1290.000000, -4856.000000)">
        <g id="Contact-Details" transform="translate(-55.000000, 4690.000000)" fill="#2D4359">
            <g id="Group-16" transform="translate(1187.000000, 80.000000)">
                <g id="Social" transform="translate(55.000000, 85.000000)">
                    <path d="M103.453782,6.45139552 L106.962049,6.45139552 L106.962049,18 L103.453782,18 L103.453782,6.45139552 Z M116.547574,6.34038049 C119.040933,6.34038049 121,8.00155057 121,11.5788705 L121,18 L117.021849,18 L117.021849,12.0239444 C117.021849,10.4595957 116.399729,9.39202648 115.031065,9.39202648 C113.98444,9.39202648 113.402331,10.1123569 113.131526,10.8068344 C113.030035,11.0562381 113.045649,11.4034769 113.045649,11.7507156 L113.045649,18 L109.104581,18 C109.104581,18 109.155327,7.41403268 109.104581,6.45139552 L113.045649,6.45139552 L113.045649,8.26413406 C113.278395,7.47131441 114.537761,6.34038049 116.547574,6.34038049 Z M105.14302,1 C106.437517,1 107.233342,1.86226741 107.258715,3.00181894 C107.258715,4.12109375 106.437517,5.00718631 105.118623,5.00718631 L105.09325,5.00718631 C103.823638,5.00718631 103,4.12413526 103,3.00486045 C103,1.86429509 103.847547,1 105.14302,1 Z" id="Fill-88"></path>
                </g>
            </g>
        </g>
    </g>
</svg>