<?xml version="1.0" encoding="UTF-8"?>
<svg width="19px" height="16px" viewBox="0 0 19 16" version="1.1" xmlns="http://www.w3.org/2000/svg" xmlns:xlink="http://www.w3.org/1999/xlink">
    <!-- Generator: Sketch 48.2 (47327) - http://www.bohemiancoding.com/sketch -->
    <title>Twitter</title>
    <desc>Created with Sketch.</desc>
    <defs></defs>
    <g id="Aquabyte-Homepage-Final" stroke="none" stroke-width="1" fill="none" fill-rule="evenodd" transform="translate(-1221.000000, -4857.000000)">
        <g id="Contact-Details" transform="translate(-55.000000, 4690.000000)" fill="#2D4359">
            <g id="Group-16" transform="translate(1187.000000, 80.000000)">
                <g id="Social" transform="translate(55.000000, 85.000000)">
                    <path d="M52.4759565,2.29579315 C51.722105,2.75819423 50.8891144,3.09448592 49.9987985,3.27442248 C49.2895896,2.49008362 48.2759993,2 47.1538462,2 C45.0028836,2 43.2572558,3.80859312 43.2572558,6.03908878 C43.2572558,6.35590016 43.2907377,6.66297139 43.3577017,6.95876454 C40.118068,6.79010605 37.2462286,5.18400564 35.3225376,2.737176 C34.9867033,3.33593925 34.794943,4.03056615 34.794943,4.77030534 C34.794943,6.1708372 35.4828452,7.40732434 36.5294102,8.13168434 C35.8912237,8.11220403 35.2890556,7.92867899 34.7624756,7.62827208 L34.7624756,7.6774855 C34.7624756,9.6352568 36.1063199,11.2685271 37.8910101,11.6381404 C37.5643073,11.7329788 37.2193416,11.7806543 36.8637225,11.7806543 C36.6126078,11.7806543 36.3675807,11.7560475 36.1301631,11.7088847 C36.626305,13.3129345 38.0650148,14.4812406 39.7710731,14.5125116 C38.4373748,15.5962321 36.7556671,16.2421582 34.9298855,16.2421582 C34.6153579,16.2421582 34.3043815,16.2237032 34,16.1867931 C35.7248285,17.3310051 37.7748378,18 39.975516,18 C47.1462366,18 51.0661629,11.8462721 51.0661629,6.50815418 C51.0661629,6.33231873 51.0631191,6.15699593 51.0565242,5.98474897 C51.8179852,5.41520618 52.4795076,4.70417481 53,3.89420397 C52.3019518,4.21511647 51.5501295,4.43247573 50.7617814,4.52987729 C51.5668705,4.03056615 52.1847649,3.23905033 52.4759565,2.29579315" id="Twitter"></path>
                </g>
            </g>
        </g>
    </g>
</svg>