<?xml version="1.0" encoding="UTF-8"?>
<svg width="1440px" height="800px" viewBox="0 0 1440 800" version="1.1" xmlns="http://www.w3.org/2000/svg" xmlns:xlink="http://www.w3.org/1999/xlink">
    <!-- Generator: Sketch 48.2 (47327) - http://www.bohemiancoding.com/sketch -->
    <title>Banner</title>
    <desc>Created with Sketch.</desc>
    <defs>
        <linearGradient x1="50%" y1="0%" x2="50%" y2="99.5436065%" id="linearGradient-1">
            <stop stop-color="#FFFFFF" offset="0%"></stop>
            <stop stop-color="#DFEFFF" offset="100%"></stop>
        </linearGradient>
        <rect id="path-2" x="0" y="0" width="1440" height="804"></rect>
        <linearGradient x1="50%" y1="100%" x2="50%" y2="0%" id="linearGradient-4">
            <stop stop-color="#FFFFFF" stop-opacity="0" offset="0%"></stop>
            <stop stop-color="#FFFFFF" offset="100%"></stop>
        </linearGradient>
        <linearGradient x1="50%" y1="0%" x2="50%" y2="100%" id="linearGradient-5">
            <stop stop-color="#FFFFFF" offset="0%"></stop>
            <stop stop-color="#FFFFFF" stop-opacity="0" offset="100%"></stop>
        </linearGradient>
        <circle id="path-6" cx="38" cy="38" r="38"></circle>
        <filter x="-8.9%" y="-8.9%" width="117.7%" height="117.7%" filterUnits="objectBoundingBox" id="filter-7">
            <feGaussianBlur stdDeviation="2.24609375" in="SourceGraphic"></feGaussianBlur>
        </filter>
        <circle id="path-8" cx="439" cy="215" r="38"></circle>
        <filter x="-8.9%" y="-8.9%" width="117.7%" height="117.7%" filterUnits="objectBoundingBox" id="filter-9">
            <feGaussianBlur stdDeviation="2.24609375" in="SourceGraphic"></feGaussianBlur>
        </filter>
        <circle id="path-10" cx="762" cy="155" r="38"></circle>
        <filter x="-8.9%" y="-8.9%" width="117.7%" height="117.7%" filterUnits="objectBoundingBox" id="filter-11">
            <feGaussianBlur stdDeviation="2.24609375" in="SourceGraphic"></feGaussianBlur>
        </filter>
        <circle id="path-12" cx="1214" cy="135" r="38"></circle>
        <filter x="-8.9%" y="-8.9%" width="117.7%" height="117.7%" filterUnits="objectBoundingBox" id="filter-13">
            <feGaussianBlur stdDeviation="2.24609375" in="SourceGraphic"></feGaussianBlur>
        </filter>
        <circle id="path-14" cx="88" cy="195" r="12"></circle>
        <filter x="-28.1%" y="-28.1%" width="156.2%" height="156.2%" filterUnits="objectBoundingBox" id="filter-15">
            <feGaussianBlur stdDeviation="2.24609375" in="SourceGraphic"></feGaussianBlur>
        </filter>
        <circle id="path-16" cx="688" cy="351" r="12"></circle>
        <filter x="-28.1%" y="-28.1%" width="156.2%" height="156.2%" filterUnits="objectBoundingBox" id="filter-17">
            <feGaussianBlur stdDeviation="2.24609375" in="SourceGraphic"></feGaussianBlur>
        </filter>
        <circle id="path-18" cx="1088" cy="195" r="12"></circle>
        <filter x="-28.1%" y="-28.1%" width="156.2%" height="156.2%" filterUnits="objectBoundingBox" id="filter-19">
            <feGaussianBlur stdDeviation="2.24609375" in="SourceGraphic"></feGaussianBlur>
        </filter>
    </defs>
    <g id="Aquabyte-Homepage-Final" stroke="none" stroke-width="1" fill="none" fill-rule="evenodd">
        <g id="Banner" transform="translate(0.000000, -4.000000)">
            <mask id="mask-3" fill="white">
                <use xlink:href="#path-2"></use>
            </mask>
            <use id="BG" fill="url(#linearGradient-1)" xlink:href="#path-2"></use>
            <g id="BG-Base" mask="url(#mask-3)">
                <g transform="translate(707.500000, 815.000000) scale(-1, 1) translate(-707.500000, -815.000000) translate(-108.000000, 598.000000)">
                    <path d="M1597.26552,15.0843121 L1627.31615,338.496306 L33.5009907,418.969299 L3.45035579,95.5573049 C30.9616589,89.6406674 57.987925,84.495497 84.6591543,79.956479 C108.826039,75.8436605 133.463369,81.9288012 157.143978,78.6883297 C190.6389,74.1048607 218.655601,55.5429194 251.644814,52.1106503 C272.858303,49.9035531 305.470418,52.7657357 326.660731,50.7982186 C357.382765,47.9456827 384.8618,40.5083329 414.943476,38.9117485 C432.871135,37.9602383 462.074892,43.5216136 479.775111,43.0161868 C513.638099,42.0492347 536.334997,32.4020511 569.365533,33.0678097 C598.52545,33.6555526 631.633956,43.1035624 660.145088,44.9637841 C692.255732,47.0588576 719.041967,44.9436767 750.329667,48.6528101 C767.11993,50.6432832 782.991891,56.8624778 799.54516,59.3177736 C807.904602,60.5577041 817.094079,57.7420525 825.513981,58.8634393 C884.341927,66.6983141 947.0404,75.9198203 1008.81974,77.9679886 C1042.03027,79.069016 1083.13091,70.837455 1117.19433,70.2662508 C1161.15167,69.5291369 1197.94545,77.3871059 1243.32308,73.8652643 C1270.4021,71.7636117 1304.17713,61.2312635 1331.76193,58.137946 C1356.39129,55.3760463 1372.79435,54.3827739 1397.82692,50.8303197 C1400.03568,50.5168687 1419.35502,50.7345856 1421.56691,50.4149797 C1439.71715,47.7923703 1440.86406,44.4283002 1459.22567,41.3912599 C1504.59375,33.8873079 1550.60703,25.1183253 1597.26552,15.0843121 Z" id="Back" fill="#2D4359" opacity="0.0199999996" transform="translate(815.383253, 217.026806) rotate(1.000000) translate(-815.383253, -217.026806) "></path>
                    <path d="M54.2435536,181.379546 C336.894026,202.845006 591.920302,193.918725 819.322383,154.600702 C1046.72446,115.282678 1301.74244,106.356688 1584.37631,127.82273 L1575.60915,218.94355 L45.4763934,272.500366 L54.2435536,181.379546 Z" id="Mid" fill="#FFFFFF" opacity="0.60716712" transform="translate(814.926350, 194.475959) rotate(1.000000) translate(-814.926350, -194.475959) "></path>
                    <path d="M58,165.811715 C330.150336,197.123408 576.654348,197.123408 797.512036,165.811715 C1018.36972,134.500021 1264.86571,134.500021 1537,165.811715 L1537,233.538106 L58,233.538106 L58,165.811715 Z" id="Front" fill="#FFFFFF" transform="translate(797.500000, 187.933025) rotate(1.000000) translate(-797.500000, -187.933025) "></path>
                </g>
            </g>
            <g id="Bubbles" mask="url(#mask-3)">
                <g transform="translate(132.000000, 350.000000)">
                    <g id="Oval-2" filter="url(#filter-7)">
                        <use fill-opacity="0.599999964" fill="url(#linearGradient-4)" fill-rule="evenodd" xlink:href="#path-6"></use>
                        <circle stroke="url(#linearGradient-5)" stroke-width="2" cx="38" cy="38" r="37"></circle>
                    </g>
                    <g id="Oval-2-Copy" opacity="0.60326087" filter="url(#filter-9)">
                        <use fill-opacity="0.599999964" fill="url(#linearGradient-4)" fill-rule="evenodd" xlink:href="#path-8"></use>
                        <circle stroke="url(#linearGradient-5)" stroke-width="2" cx="439" cy="215" r="37"></circle>
                    </g>
                    <g id="Oval-2-Copy-6" opacity="0.60326087" filter="url(#filter-11)">
                        <use fill-opacity="0.599999964" fill="url(#linearGradient-4)" fill-rule="evenodd" xlink:href="#path-10"></use>
                        <circle stroke="url(#linearGradient-5)" stroke-width="2" cx="762" cy="155" r="37"></circle>
                    </g>
                    <g id="Oval-2-Copy-2" filter="url(#filter-13)">
                        <use fill-opacity="0.599999964" fill="url(#linearGradient-4)" fill-rule="evenodd" xlink:href="#path-12"></use>
                        <circle stroke="url(#linearGradient-5)" stroke-width="2" cx="1214" cy="135" r="37"></circle>
                    </g>
                    <g id="Oval-2-Copy-5" filter="url(#filter-15)">
                        <use fill-opacity="0.599999964" fill="url(#linearGradient-4)" fill-rule="evenodd" xlink:href="#path-14"></use>
                        <circle stroke="url(#linearGradient-5)" stroke-width="2" cx="88" cy="195" r="11"></circle>
                    </g>
                    <g id="Oval-2-Copy-4" opacity="0.60326087" filter="url(#filter-17)">
                        <use fill-opacity="0.599999964" fill="url(#linearGradient-4)" fill-rule="evenodd" xlink:href="#path-16"></use>
                        <circle stroke="url(#linearGradient-5)" stroke-width="2" cx="688" cy="351" r="11"></circle>
                    </g>
                    <g id="Oval-2-Copy-3" filter="url(#filter-19)">
                        <use fill-opacity="0.599999964" fill="url(#linearGradient-4)" fill-rule="evenodd" xlink:href="#path-18"></use>
                        <circle stroke="url(#linearGradient-5)" stroke-width="2" cx="1088" cy="195" r="11"></circle>
                    </g>
                </g>
            </g>
            <g id="Scan" mask="url(#mask-3)" stroke-opacity="0.198539402">
                <g transform="translate(186.000000, 478.000000)">
                    <g id="Group-2">
                        <rect id="Rectangle-8-Copy" stroke="#FF9F77" fill-opacity="0.100000001" fill="#F4A97B" x="0" y="0" width="37" height="37"></rect>
                        <rect id="Rectangle-8-Copy-4" stroke="#FF9F77" fill-opacity="0.0500000007" fill="#F4A97B" x="111" y="0" width="37" height="37"></rect>
                        <rect id="Rectangle-8-Copy-2" stroke="#FF9F77" fill-opacity="0.0500000007" fill="#F4A97B" x="37" y="0" width="37" height="37"></rect>
                        <rect id="Rectangle-8-Copy-5" stroke="#FF9F77" x="148" y="0" width="37" height="37"></rect>
                        <rect id="Rectangle-8-Copy-3" stroke="#FF9F77" fill-opacity="0.0500000007" fill="#F4A97B" x="74" y="0" width="37" height="37"></rect>
                        <rect id="Rectangle-8-Copy-6" stroke="#FF9F77" x="185" y="0" width="37" height="37"></rect>
                    </g>
                    <g id="Group-2-Copy" transform="translate(0.000000, 37.000000)">
                        <rect id="Rectangle-8-Copy" stroke="#FF9F77" x="0" y="0" width="37" height="37"></rect>
                        <rect id="Rectangle-8-Copy-4" stroke="#FF9F77" fill-opacity="0.0500000007" fill="#F4A97B" x="111" y="0" width="37" height="37"></rect>
                        <rect id="Rectangle-8-Copy-2" stroke="#FF9F77" x="37" y="0" width="37" height="37"></rect>
                        <rect id="Rectangle-8-Copy-5" stroke="#FF9F77" fill-opacity="0.100000001" fill="#F4A97B" x="148" y="0" width="37" height="37"></rect>
                        <rect id="Rectangle-8-Copy-3" stroke="#FF9F77" x="74" y="0" width="37" height="37"></rect>
                        <rect id="Rectangle-8-Copy-6" stroke="#FF9F77" fill-opacity="0.0500000007" fill="#F4A97B" x="185" y="0" width="37" height="37"></rect>
                    </g>
                    <g id="Group-2-Copy-2" transform="translate(0.000000, 74.000000)">
                        <rect id="Rectangle-8-Copy" stroke="#FF9F77" fill-opacity="0.0500000007" fill="#F4A97B" x="0" y="0" width="37" height="37"></rect>
                        <rect id="Rectangle-8-Copy-4" stroke="#FF9F77" fill-opacity="0.200000003" fill="#F4A97B" x="111" y="0" width="37" height="37"></rect>
                        <rect id="Rectangle-8-Copy-2" stroke="#FF9F77" fill-opacity="0.100000001" fill="#F4A97B" x="37" y="0" width="37" height="37"></rect>
                        <rect id="Rectangle-8-Copy-5" stroke="#FF9F77" fill-opacity="0.0500000007" fill="#F4A97B" x="148" y="0" width="37" height="37"></rect>
                        <rect id="Rectangle-8-Copy-3" stroke="#FF9F77" fill-opacity="0.196444746" fill="#F4A97B" x="74" y="0" width="37" height="37"></rect>
                        <rect id="Rectangle-8-Copy-6" stroke="#FF9F77" fill-opacity="0.100000001" fill="#F4A97B" x="185" y="0" width="37" height="37"></rect>
                    </g>
                    <g id="Group-2-Copy-3" transform="translate(0.000000, 111.000000)">
                        <rect id="Rectangle-8-Copy" stroke="#FF9F77" fill-opacity="0.100000001" fill="#F4A97B" x="0" y="0" width="37" height="37"></rect>
                        <rect id="Rectangle-8-Copy-4" stroke="#FF9F77" fill-opacity="0.196444746" fill="#F4A97B" x="111" y="0" width="37" height="37"></rect>
                        <rect id="Rectangle-8-Copy-2" stroke="#FF9F77" fill-opacity="0.200000003" fill="#F4A97B" x="37" y="0" width="37" height="37"></rect>
                        <rect id="Rectangle-8-Copy-5" stroke="#FF9F77" fill-opacity="0.200000003" fill="#F4A97B" x="148" y="0" width="37" height="37"></rect>
                        <rect id="Rectangle-8-Copy-3" stroke="#FF9F77" fill-opacity="0.196444746" fill="#F4A97B" x="74" y="0" width="37" height="37"></rect>
                        <rect id="Rectangle-8-Copy-6" stroke="#FF9F77" fill-opacity="0.100000001" fill="#F4A97B" x="185" y="0" width="37" height="37"></rect>
                    </g>
                    <g id="Group-2-Copy-4" transform="translate(0.000000, 148.000000)">
                        <rect id="Rectangle-8-Copy" stroke="#FF9F77" x="0" y="0" width="37" height="37"></rect>
                        <rect id="Rectangle-8-Copy-4" stroke="#FF9F77" x="111" y="0" width="37" height="37"></rect>
                        <rect id="Rectangle-8-Copy-2" stroke="#FF9F77" x="37" y="0" width="37" height="37"></rect>
                        <rect id="Rectangle-8-Copy-5" stroke="#FF9F77" x="148" y="0" width="37" height="37"></rect>
                        <rect id="Rectangle-8-Copy-3" stroke="#FF9F77" x="74" y="0" width="37" height="37"></rect>
                        <rect id="Rectangle-8-Copy-6" stroke="#FF9F77" x="185" y="0" width="37" height="37"></rect>
                    </g>
                    <g id="Group-2-Copy-5" transform="translate(0.000000, 185.000000)">
                        <rect id="Rectangle-8-Copy" stroke="#FF9F77" x="0" y="0" width="37" height="37"></rect>
                        <rect id="Rectangle-8-Copy-4" stroke="#FF9F77" x="111" y="0" width="37" height="37"></rect>
                        <rect id="Rectangle-8-Copy-2" stroke="#FF9F77" x="37" y="0" width="37" height="37"></rect>
                        <rect id="Rectangle-8-Copy-5" stroke="#FF9F77" x="148" y="0" width="37" height="37"></rect>
                        <rect id="Rectangle-8-Copy-3" stroke="#FF9F77" x="74" y="0" width="37" height="37"></rect>
                        <rect id="Rectangle-8-Copy-6" stroke="#FF9F77" x="185" y="0" width="37" height="37"></rect>
                    </g>
                </g>
            </g>
            <g id="Scan-Copy" mask="url(#mask-3)" stroke-opacity="0.201936141">
                <g transform="translate(1009.000000, 468.000000)">
                    <g id="Group-2">
                        <rect id="Rectangle-8-Copy" stroke="#FF9F77" x="0" y="0" width="37" height="37"></rect>
                        <rect id="Rectangle-8-Copy-4" stroke="#FF9F77" x="111" y="0" width="37" height="37"></rect>
                        <rect id="Rectangle-8-Copy-2" stroke="#FF9F77" x="37" y="0" width="37" height="37"></rect>
                        <rect id="Rectangle-8-Copy-5" stroke="#FF9F77" x="148" y="0" width="37" height="37"></rect>
                        <rect id="Rectangle-8-Copy-3" stroke="#FF9F77" x="74" y="0" width="37" height="37"></rect>
                        <rect id="Rectangle-8-Copy-6" stroke="#FF9F77" x="185" y="0" width="37" height="37"></rect>
                    </g>
                    <g id="Group-2-Copy" transform="translate(0.000000, 37.000000)">
                        <rect id="Rectangle-8-Copy" stroke="#FF9F77" x="0" y="0" width="37" height="37"></rect>
                        <rect id="Rectangle-8-Copy-4" stroke="#FF9F77" x="111" y="0" width="37" height="37"></rect>
                        <rect id="Rectangle-8-Copy-2" stroke="#FF9F77" x="37" y="0" width="37" height="37"></rect>
                        <rect id="Rectangle-8-Copy-5" stroke="#FF9F77" x="148" y="0" width="37" height="37"></rect>
                        <rect id="Rectangle-8-Copy-3" stroke="#FF9F77" x="74" y="0" width="37" height="37"></rect>
                        <rect id="Rectangle-8-Copy-6" stroke="#FF9F77" x="185" y="0" width="37" height="37"></rect>
                    </g>
                    <g id="Group-2-Copy-2" transform="translate(0.000000, 74.000000)">
                        <rect id="Rectangle-8-Copy" stroke="#FF9F77" fill-opacity="0.0500000007" fill="#F4A97B" x="0" y="0" width="37" height="37"></rect>
                        <rect id="Rectangle-8-Copy-4" stroke="#FF9F77" fill-opacity="0.200000003" fill="#F4A97B" x="111" y="0" width="37" height="37"></rect>
                        <rect id="Rectangle-8-Copy-2" stroke="#FF9F77" fill-opacity="0.100000001" fill="#F4A97B" x="37" y="0" width="37" height="37"></rect>
                        <rect id="Rectangle-8-Copy-5" stroke="#FF9F77" fill-opacity="0.0500000007" fill="#F4A97B" x="148" y="0" width="37" height="37"></rect>
                        <rect id="Rectangle-8-Copy-3" stroke="#FF9F77" fill-opacity="0.196444746" fill="#F4A97B" x="74" y="0" width="37" height="37"></rect>
                        <rect id="Rectangle-8-Copy-6" stroke="#FF9F77" fill-opacity="0.100000001" fill="#F4A97B" x="185" y="0" width="37" height="37"></rect>
                    </g>
                    <g id="Group-2-Copy-3" transform="translate(0.000000, 111.000000)">
                        <rect id="Rectangle-8-Copy" stroke="#FF9F77" fill-opacity="0.100000001" fill="#F4A97B" x="0" y="0" width="37" height="37"></rect>
                        <rect id="Rectangle-8-Copy-4" stroke="#FF9F77" fill-opacity="0.196444746" fill="#F4A97B" x="111" y="0" width="37" height="37"></rect>
                        <rect id="Rectangle-8-Copy-2" stroke="#FF9F77" fill-opacity="0.200000003" fill="#F4A97B" x="37" y="0" width="37" height="37"></rect>
                        <rect id="Rectangle-8-Copy-5" stroke="#FF9F77" fill-opacity="0.200000003" fill="#F4A97B" x="148" y="0" width="37" height="37"></rect>
                        <rect id="Rectangle-8-Copy-3" stroke="#FF9F77" fill-opacity="0.196444746" fill="#F4A97B" x="74" y="0" width="37" height="37"></rect>
                        <rect id="Rectangle-8-Copy-6" stroke="#FF9F77" fill-opacity="0.100000001" fill="#F4A97B" x="185" y="0" width="37" height="37"></rect>
                    </g>
                    <g id="Group-2-Copy-4" transform="translate(0.000000, 148.000000)">
                        <rect id="Rectangle-8-Copy" stroke="#FF9F77" x="0" y="0" width="37" height="37"></rect>
                        <rect id="Rectangle-8-Copy-4" stroke="#FF9F77" x="111" y="0" width="37" height="37"></rect>
                        <rect id="Rectangle-8-Copy-2" stroke="#FF9F77" x="37" y="0" width="37" height="37"></rect>
                        <rect id="Rectangle-8-Copy-5" stroke="#FF9F77" x="148" y="0" width="37" height="37"></rect>
                        <rect id="Rectangle-8-Copy-3" stroke="#FF9F77" x="74" y="0" width="37" height="37"></rect>
                        <rect id="Rectangle-8-Copy-6" stroke="#FF9F77" x="185" y="0" width="37" height="37"></rect>
                    </g>
                    <g id="Group-2-Copy-5" transform="translate(0.000000, 185.000000)">
                        <rect id="Rectangle-8-Copy" stroke="#FF9F77" fill-opacity="0.196444746" fill="#F4A97B" x="0" y="0" width="37" height="37"></rect>
                        <rect id="Rectangle-8-Copy-4" stroke="#FF9F77" x="111" y="0" width="37" height="37"></rect>
                        <rect id="Rectangle-8-Copy-2" stroke="#FF9F77" fill-opacity="0.100000001" fill="#F4A97B" x="37" y="0" width="37" height="37"></rect>
                        <rect id="Rectangle-8-Copy-5" stroke="#FF9F77" x="148" y="0" width="37" height="37"></rect>
                        <rect id="Rectangle-8-Copy-3" stroke="#FF9F77" x="74" y="0" width="37" height="37"></rect>
                        <rect id="Rectangle-8-Copy-6" stroke="#FF9F77" x="185" y="0" width="37" height="37"></rect>
                    </g>
                </g>
            </g>
            <g id="Fish" mask="url(#mask-3)">
                <g transform="translate(729.000000, 584.500000) scale(-1, 1) translate(-729.000000, -584.500000) translate(-45.000000, 459.000000)">
                    <g id="Small" opacity="0.0508378623" transform="translate(195.000000, 26.000000)">
                        <path d="M1141.93707,5.86190222 L1141.57601,5.86190222 C1141.55503,5.67120424 1141.65928,5.43172307 1141.59635,5.24799412 C1141.04014,4.82858529 1140.21251,5.06806646 1139.64231,4.67970149 C1139.03017,4.5757996 1138.3837,4.42754935 1137.75057,4.29830554 C1136.5053,4.01827729 1135.22571,3.86179091 1133.99506,3.5494517 L1130.16962,3.0711229 C1128.41709,2.78729336 1126.58764,2.96405327 1124.83511,3.0711229 C1124.18165,2.03147049 1123.64578,0.943668425 1122.69292,0.0218559597 C1122.33122,-0.113723331 1122.31025,0.427326735 1121.96317,0.38931385 C1121.85892,0.593316333 1121.62945,0.714957566 1121.4343,0.784014307 C1121.01031,1.11029157 1120.63463,1.49105397 1120.12673,1.64310551 C1119.91124,1.81606414 1119.57752,1.7470074 1119.42432,2.02513501 C1119.05627,1.97635181 1118.89608,2.41286644 1118.54075,2.38879161 C1118.49943,2.42997223 1118.4365,2.46101609 1118.40154,2.50346381 C1118.71492,2.85001462 1118.9997,3.21367122 1119.20883,3.60520393 L1119.13954,3.67109294 C1117.6025,3.86875994 1116.10043,4.22608106 1114.56339,4.27423071 C1114.4032,4.3610268 1114.14639,4.33695197 1113.9862,4.31287715 L1113.83364,4.39270421 L1109.72279,4.87103301 L1107.52529,5.0579297 C1106.29401,4.28119974 1104.98009,3.7338142 1103.5956,3.32200794 C1103.57463,3.2871628 1103.51932,3.28019377 1103.54729,3.22507508 C1103.55429,3.25992023 1103.51233,3.26308797 1103.50534,3.28779634 C1103.03304,3.16298737 1102.58045,3.02043905 1102.20477,2.67768954 C1102.19778,2.62890633 1102.2124,2.58392442 1102.16345,2.55921604 C1102.09416,2.53514122 1102.05221,2.6219373 1102.06619,2.67768954 C1102.0592,3.4848298 1102.62304,4.06072501 1102.98409,4.71898147 C1103.74181,5.59961331 1104.72963,6.18817948 1105.64753,6.83313143 C1104.6114,7.82400064 1103.35278,8.75658342 1102.56646,9.96285898 C1102.3783,10.1947376 1101.87104,10.3125775 1102.0306,10.7041102 C1103.61658,10.7560612 1105.0214,10.1630602 1106.42623,9.67839589 C1107.20555,9.3597212 1107.76176,8.62860671 1108.45654,8.1673837 C1108.63008,8.1673837 1108.69301,8.02483538 1108.83985,7.96274767 C1109.66049,7.92790253 1110.35591,8.29536042 1111.15558,8.37518747 C1111.14223,8.60389833 1110.82249,8.73187505 1110.91212,9.00936911 C1112.47713,9.45285277 1114.00718,10.0281144 1115.5029,10.6838367 C1115.90591,10.7041102 1116.03813,10.219446 1116.37885,10.035717 L1116.74753,9.74808618 C1117.96483,10.0914692 1119.30037,10.1712963 1120.58632,10.3442549 C1120.56598,10.5659968 1120.25323,10.7041102 1120.07143,10.8536276 C1119.93222,10.9961759 1119.67541,11.0025114 1119.63346,11.1799049 C1120.26658,11.4086157 1120.99696,11.4396596 1121.69238,11.5194866 C1122.25558,11.4985795 1122.71453,11.1900416 1123.09021,10.7814031 C1125.26673,11.1450597 1127.6937,10.9752688 1129.90582,10.8536276 C1132.1726,10.5831026 1134.51694,10.2473221 1136.67948,9.59920238 C1137.72324,9.20766966 1138.81468,8.83704403 1139.87179,8.45184679 C1140.75537,7.84934256 1141.8468,6.99975458 1142,5.89421317 L1141.93707,5.86190222 Z" id="Path-Copy-9" fill="#2D4359"></path>
                        <path d="M1177.93707,196.861902 L1177.57601,196.861902 C1177.55503,196.671204 1177.65928,196.431723 1177.59635,196.247994 C1177.04014,195.828585 1176.21251,196.068066 1175.64231,195.679701 C1175.03017,195.5758 1174.3837,195.427549 1173.75057,195.298306 C1172.5053,195.018277 1171.22571,194.861791 1169.99506,194.549452 L1166.16962,194.071123 C1164.41709,193.787293 1162.58764,193.964053 1160.83511,194.071123 C1160.18165,193.03147 1159.64578,191.943668 1158.69292,191.021856 C1158.33122,190.886277 1158.31025,191.427327 1157.96317,191.389314 C1157.85892,191.593316 1157.62945,191.714958 1157.4343,191.784014 C1157.01031,192.110292 1156.63463,192.491054 1156.12673,192.643106 C1155.91124,192.816064 1155.57752,192.747007 1155.42432,193.025135 C1155.05627,192.976352 1154.89608,193.412866 1154.54075,193.388792 C1154.49943,193.429972 1154.4365,193.461016 1154.40154,193.503464 C1154.71492,193.850015 1154.9997,194.213671 1155.20883,194.605204 L1155.13954,194.671093 C1153.6025,194.86876 1152.10043,195.226081 1150.56339,195.274231 C1150.4032,195.361027 1150.14639,195.336952 1149.9862,195.312877 L1149.83364,195.392704 L1145.72279,195.871033 L1143.52529,196.05793 C1142.29401,195.2812 1140.98009,194.733814 1139.5956,194.322008 C1139.57463,194.287163 1139.51932,194.280194 1139.54729,194.225075 C1139.55429,194.25992 1139.51233,194.263088 1139.50534,194.287796 C1139.03304,194.162987 1138.58045,194.020439 1138.20477,193.67769 C1138.19778,193.628906 1138.2124,193.583924 1138.16345,193.559216 C1138.09416,193.535141 1138.05221,193.621937 1138.06619,193.67769 C1138.0592,194.48483 1138.62304,195.060725 1138.98409,195.718981 C1139.74181,196.599613 1140.72963,197.188179 1141.64753,197.833131 C1140.6114,198.824001 1139.35278,199.756583 1138.56646,200.962859 C1138.3783,201.194738 1137.87104,201.312578 1138.0306,201.70411 C1139.61658,201.756061 1141.0214,201.16306 1142.42623,200.678396 C1143.20555,200.359721 1143.76176,199.628607 1144.45654,199.167384 C1144.63008,199.167384 1144.69301,199.024835 1144.83985,198.962748 C1145.66049,198.927903 1146.35591,199.29536 1147.15558,199.375187 C1147.14223,199.603898 1146.82249,199.731875 1146.91212,200.009369 C1148.47713,200.452853 1150.00718,201.028114 1151.5029,201.683837 C1151.90591,201.70411 1152.03813,201.219446 1152.37885,201.035717 L1152.74753,200.748086 C1153.96483,201.091469 1155.30037,201.171296 1156.58632,201.344255 C1156.56598,201.565997 1156.25323,201.70411 1156.07143,201.853628 C1155.93222,201.996176 1155.67541,202.002511 1155.63346,202.179905 C1156.26658,202.408616 1156.99696,202.43966 1157.69238,202.519487 C1158.25558,202.49858 1158.71453,202.190042 1159.09021,201.781403 C1161.26673,202.14506 1163.6937,201.975269 1165.90582,201.853628 C1168.1726,201.583103 1170.51694,201.247322 1172.67948,200.599202 C1173.72324,200.20767 1174.81468,199.837044 1175.87179,199.451847 C1176.75537,198.849343 1177.8468,197.999755 1178,196.894213 L1177.93707,196.861902 Z" id="Path-Copy-18" fill="#2D4359"></path>
                        <path d="M976.937069,50.8619022 L976.576011,50.8619022 C976.555034,50.6712042 976.659283,50.4317231 976.596352,50.2479941 C976.040144,49.8285853 975.212507,50.0680665 974.642315,49.6797015 C974.030169,49.5757996 973.383696,49.4275493 972.750573,49.2983055 C971.505303,49.0182773 970.225708,48.8617909 968.995058,48.5494517 L965.169621,48.0711229 C963.41709,47.7872934 961.587643,47.9640533 959.835112,48.0711229 C959.181647,47.0314705 958.645781,45.9436684 957.692918,45.021856 C957.331224,44.8862767 957.310247,45.4273267 956.963173,45.3893138 C956.858924,45.5933163 956.629448,45.7149576 956.434299,45.7840143 C956.01031,46.1102916 955.634631,46.491054 955.126734,46.6431055 C954.911243,46.8160641 954.577519,46.7470074 954.424323,47.025135 C954.056273,46.9763518 953.896085,47.4128664 953.540747,47.3887916 C953.499429,47.4299722 953.436498,47.4610161 953.401537,47.5034638 C953.71492,47.8500146 953.999698,48.2136712 954.208832,48.6052039 L954.139545,48.6710929 C952.602504,48.8687599 951.100426,49.2260811 949.563385,49.2742307 C949.403198,49.3610268 949.146389,49.336952 948.986201,49.3128771 L948.833641,49.3927042 L944.722789,49.871033 L942.525292,50.0579297 C941.294007,49.2811997 939.980085,48.7338142 938.595605,48.3220079 C938.574628,48.2871628 938.519325,48.2801938 938.547294,48.2250751 C938.554287,48.2599202 938.512333,48.263088 938.50534,48.2877963 C938.03304,48.1629874 937.580446,48.0204391 937.204768,47.6776895 C937.197775,47.6289063 937.212396,47.5839244 937.163449,47.559216 C937.094162,47.5351412 937.052208,47.6219373 937.066193,47.6776895 C937.0592,48.4848298 937.623036,49.060725 937.984094,49.7189815 C938.741808,50.5996133 939.729633,51.1881795 940.647535,51.8331314 C939.611399,52.8240006 938.35278,53.7565834 937.566462,54.962859 C937.378305,55.1947376 936.871043,55.3125775 937.030595,55.7041102 C938.616582,55.7560612 940.021404,55.1630602 941.426225,54.6783959 C942.205552,54.3597212 942.76176,53.6286067 943.456543,53.1673837 C943.630079,53.1673837 943.69301,53.0248354 943.839849,52.9627477 C944.660494,52.9279025 945.355912,53.2953604 946.15558,53.3751875 C946.142231,53.6038983 945.822491,53.731875 945.91212,54.0093691 C947.47713,54.4528528 949.007178,55.0281144 950.5029,55.6838367 C950.905912,55.7041102 951.038131,55.219446 951.378847,55.035717 L951.747534,54.7480862 C952.964834,55.0914692 954.300368,55.1712963 955.586321,55.3442549 C955.565979,55.5659968 955.253232,55.7041102 955.071431,55.8536276 C954.93222,55.9961759 954.675411,56.0025114 954.633457,56.1799049 C955.266581,56.4086157 955.996961,56.4396596 956.692379,56.5194866 C957.255579,56.4985795 957.71453,56.1900416 958.090209,55.7814031 C960.266729,56.1450597 962.693702,55.9752688 964.905819,55.8536276 C967.172604,55.5831026 969.51694,55.2473221 971.679476,54.5992024 C972.723239,54.2076697 973.814678,53.837044 974.87179,53.4518468 C975.755366,52.8493426 976.846805,51.9997546 977,50.8942132 L976.937069,50.8619022 Z" id="Path-Copy-10" fill="#2D4359"></path>
                        <path d="M741.937069,116.861902 L741.576011,116.861902 C741.555034,116.671204 741.659283,116.431723 741.596352,116.247994 C741.040144,115.828585 740.212507,116.068066 739.642315,115.679701 C739.030169,115.5758 738.383696,115.427549 737.750573,115.298306 C736.505303,115.018277 735.225708,114.861791 733.995058,114.549452 L730.169621,114.071123 C728.41709,113.787293 726.587643,113.964053 724.835112,114.071123 C724.181647,113.03147 723.645781,111.943668 722.692918,111.021856 C722.331224,110.886277 722.310247,111.427327 721.963173,111.389314 C721.858924,111.593316 721.629448,111.714958 721.434299,111.784014 C721.01031,112.110292 720.634631,112.491054 720.126734,112.643106 C719.911243,112.816064 719.577519,112.747007 719.424323,113.025135 C719.056273,112.976352 718.896085,113.412866 718.540747,113.388792 C718.499429,113.429972 718.436498,113.461016 718.401537,113.503464 C718.71492,113.850015 718.999698,114.213671 719.208832,114.605204 L719.139545,114.671093 C717.602504,114.86876 716.100426,115.226081 714.563385,115.274231 C714.403198,115.361027 714.146389,115.336952 713.986201,115.312877 L713.833641,115.392704 L709.722789,115.871033 L707.525292,116.05793 C706.294007,115.2812 704.980085,114.733814 703.595605,114.322008 C703.574628,114.287163 703.519325,114.280194 703.547294,114.225075 C703.554287,114.25992 703.512333,114.263088 703.50534,114.287796 C703.03304,114.162987 702.580446,114.020439 702.204768,113.67769 C702.197775,113.628906 702.212396,113.583924 702.163449,113.559216 C702.094162,113.535141 702.052208,113.621937 702.066193,113.67769 C702.0592,114.48483 702.623036,115.060725 702.984094,115.718981 C703.741808,116.599613 704.729633,117.188179 705.647535,117.833131 C704.611399,118.824001 703.35278,119.756583 702.566462,120.962859 C702.378305,121.194738 701.871043,121.312578 702.030595,121.70411 C703.616582,121.756061 705.021404,121.16306 706.426225,120.678396 C707.205552,120.359721 707.76176,119.628607 708.456543,119.167384 C708.630079,119.167384 708.69301,119.024835 708.839849,118.962748 C709.660494,118.927903 710.355912,119.29536 711.15558,119.375187 C711.142231,119.603898 710.822491,119.731875 710.91212,120.009369 C712.47713,120.452853 714.007178,121.028114 715.5029,121.683837 C715.905912,121.70411 716.038131,121.219446 716.378847,121.035717 L716.747534,120.748086 C717.964834,121.091469 719.300368,121.171296 720.586321,121.344255 C720.565979,121.565997 720.253232,121.70411 720.071431,121.853628 C719.93222,121.996176 719.675411,122.002511 719.633457,122.179905 C720.266581,122.408616 720.996961,122.43966 721.692379,122.519487 C722.255579,122.49858 722.71453,122.190042 723.090209,121.781403 C725.266729,122.14506 727.693702,121.975269 729.905819,121.853628 C732.172604,121.583103 734.51694,121.247322 736.679476,120.599202 C737.723239,120.20767 738.814678,119.837044 739.87179,119.451847 C740.755366,118.849343 741.846805,117.999755 742,116.894213 L741.937069,116.861902 Z" id="Path-Copy-11" fill="#2D4359"></path>
                        <path d="M715.937069,129.861902 L715.576011,129.861902 C715.555034,129.671204 715.659283,129.431723 715.596352,129.247994 C715.040144,128.828585 714.212507,129.068066 713.642315,128.679701 C713.030169,128.5758 712.383696,128.427549 711.750573,128.298306 C710.505303,128.018277 709.225708,127.861791 707.995058,127.549452 L704.169621,127.071123 C702.41709,126.787293 700.587643,126.964053 698.835112,127.071123 C698.181647,126.03147 697.645781,124.943668 696.692918,124.021856 C696.331224,123.886277 696.310247,124.427327 695.963173,124.389314 C695.858924,124.593316 695.629448,124.714958 695.434299,124.784014 C695.01031,125.110292 694.634631,125.491054 694.126734,125.643106 C693.911243,125.816064 693.577519,125.747007 693.424323,126.025135 C693.056273,125.976352 692.896085,126.412866 692.540747,126.388792 C692.499429,126.429972 692.436498,126.461016 692.401537,126.503464 C692.71492,126.850015 692.999698,127.213671 693.208832,127.605204 L693.139545,127.671093 C691.602504,127.86876 690.100426,128.226081 688.563385,128.274231 C688.403198,128.361027 688.146389,128.336952 687.986201,128.312877 L687.833641,128.392704 L683.722789,128.871033 L681.525292,129.05793 C680.294007,128.2812 678.980085,127.733814 677.595605,127.322008 C677.574628,127.287163 677.519325,127.280194 677.547294,127.225075 C677.554287,127.25992 677.512333,127.263088 677.50534,127.287796 C677.03304,127.162987 676.580446,127.020439 676.204768,126.67769 C676.197775,126.628906 676.212396,126.583924 676.163449,126.559216 C676.094162,126.535141 676.052208,126.621937 676.066193,126.67769 C676.0592,127.48483 676.623036,128.060725 676.984094,128.718981 C677.741808,129.599613 678.729633,130.188179 679.647535,130.833131 C678.611399,131.824001 677.35278,132.756583 676.566462,133.962859 C676.378305,134.194738 675.871043,134.312578 676.030595,134.70411 C677.616582,134.756061 679.021404,134.16306 680.426225,133.678396 C681.205552,133.359721 681.76176,132.628607 682.456543,132.167384 C682.630079,132.167384 682.69301,132.024835 682.839849,131.962748 C683.660494,131.927903 684.355912,132.29536 685.15558,132.375187 C685.142231,132.603898 684.822491,132.731875 684.91212,133.009369 C686.47713,133.452853 688.007178,134.028114 689.5029,134.683837 C689.905912,134.70411 690.038131,134.219446 690.378847,134.035717 L690.747534,133.748086 C691.964834,134.091469 693.300368,134.171296 694.586321,134.344255 C694.565979,134.565997 694.253232,134.70411 694.071431,134.853628 C693.93222,134.996176 693.675411,135.002511 693.633457,135.179905 C694.266581,135.408616 694.996961,135.43966 695.692379,135.519487 C696.255579,135.49858 696.71453,135.190042 697.090209,134.781403 C699.266729,135.14506 701.693702,134.975269 703.905819,134.853628 C706.172604,134.583103 708.51694,134.247322 710.679476,133.599202 C711.723239,133.20767 712.814678,132.837044 713.87179,132.451847 C714.755366,131.849343 715.846805,130.999755 716,129.894213 L715.937069,129.861902 Z" id="Path-Copy-16" fill="#2D4359"></path>
                        <path d="M538.937069,188.861902 L538.576011,188.861902 C538.555034,188.671204 538.659283,188.431723 538.596352,188.247994 C538.040144,187.828585 537.212507,188.068066 536.642315,187.679701 C536.030169,187.5758 535.383696,187.427549 534.750573,187.298306 C533.505303,187.018277 532.225708,186.861791 530.995058,186.549452 L527.169621,186.071123 C525.41709,185.787293 523.587643,185.964053 521.835112,186.071123 C521.181647,185.03147 520.645781,183.943668 519.692918,183.021856 C519.331224,182.886277 519.310247,183.427327 518.963173,183.389314 C518.858924,183.593316 518.629448,183.714958 518.434299,183.784014 C518.01031,184.110292 517.634631,184.491054 517.126734,184.643106 C516.911243,184.816064 516.577519,184.747007 516.424323,185.025135 C516.056273,184.976352 515.896085,185.412866 515.540747,185.388792 C515.499429,185.429972 515.436498,185.461016 515.401537,185.503464 C515.71492,185.850015 515.999698,186.213671 516.208832,186.605204 L516.139545,186.671093 C514.602504,186.86876 513.100426,187.226081 511.563385,187.274231 C511.403198,187.361027 511.146389,187.336952 510.986201,187.312877 L510.833641,187.392704 L506.722789,187.871033 L504.525292,188.05793 C503.294007,187.2812 501.980085,186.733814 500.595605,186.322008 C500.574628,186.287163 500.519325,186.280194 500.547294,186.225075 C500.554287,186.25992 500.512333,186.263088 500.50534,186.287796 C500.03304,186.162987 499.580446,186.020439 499.204768,185.67769 C499.197775,185.628906 499.212396,185.583924 499.163449,185.559216 C499.094162,185.535141 499.052208,185.621937 499.066193,185.67769 C499.0592,186.48483 499.623036,187.060725 499.984094,187.718981 C500.741808,188.599613 501.729633,189.188179 502.647535,189.833131 C501.611399,190.824001 500.35278,191.756583 499.566462,192.962859 C499.378305,193.194738 498.871043,193.312578 499.030595,193.70411 C500.616582,193.756061 502.021404,193.16306 503.426225,192.678396 C504.205552,192.359721 504.76176,191.628607 505.456543,191.167384 C505.630079,191.167384 505.69301,191.024835 505.839849,190.962748 C506.660494,190.927903 507.355912,191.29536 508.15558,191.375187 C508.142231,191.603898 507.822491,191.731875 507.91212,192.009369 C509.47713,192.452853 511.007178,193.028114 512.5029,193.683837 C512.905912,193.70411 513.038131,193.219446 513.378847,193.035717 L513.747534,192.748086 C514.964834,193.091469 516.300368,193.171296 517.586321,193.344255 C517.565979,193.565997 517.253232,193.70411 517.071431,193.853628 C516.93222,193.996176 516.675411,194.002511 516.633457,194.179905 C517.266581,194.408616 517.996961,194.43966 518.692379,194.519487 C519.255579,194.49858 519.71453,194.190042 520.090209,193.781403 C522.266729,194.14506 524.693702,193.975269 526.905819,193.853628 C529.172604,193.583103 531.51694,193.247322 533.679476,192.599202 C534.723239,192.20767 535.814678,191.837044 536.87179,191.451847 C537.755366,190.849343 538.846805,189.999755 539,188.894213 L538.937069,188.861902 Z" id="Path-Copy-19" fill="#2D4359"></path>
                        <path d="M576.937069,108.861902 L576.576011,108.861902 C576.555034,108.671204 576.659283,108.431723 576.596352,108.247994 C576.040144,107.828585 575.212507,108.068066 574.642315,107.679701 C574.030169,107.5758 573.383696,107.427549 572.750573,107.298306 C571.505303,107.018277 570.225708,106.861791 568.995058,106.549452 L565.169621,106.071123 C563.41709,105.787293 561.587643,105.964053 559.835112,106.071123 C559.181647,105.03147 558.645781,103.943668 557.692918,103.021856 C557.331224,102.886277 557.310247,103.427327 556.963173,103.389314 C556.858924,103.593316 556.629448,103.714958 556.434299,103.784014 C556.01031,104.110292 555.634631,104.491054 555.126734,104.643106 C554.911243,104.816064 554.577519,104.747007 554.424323,105.025135 C554.056273,104.976352 553.896085,105.412866 553.540747,105.388792 C553.499429,105.429972 553.436498,105.461016 553.401537,105.503464 C553.71492,105.850015 553.999698,106.213671 554.208832,106.605204 L554.139545,106.671093 C552.602504,106.86876 551.100426,107.226081 549.563385,107.274231 C549.403198,107.361027 549.146389,107.336952 548.986201,107.312877 L548.833641,107.392704 L544.722789,107.871033 L542.525292,108.05793 C541.294007,107.2812 539.980085,106.733814 538.595605,106.322008 C538.574628,106.287163 538.519325,106.280194 538.547294,106.225075 C538.554287,106.25992 538.512333,106.263088 538.50534,106.287796 C538.03304,106.162987 537.580446,106.020439 537.204768,105.67769 C537.197775,105.628906 537.212396,105.583924 537.163449,105.559216 C537.094162,105.535141 537.052208,105.621937 537.066193,105.67769 C537.0592,106.48483 537.623036,107.060725 537.984094,107.718981 C538.741808,108.599613 539.729633,109.188179 540.647535,109.833131 C539.611399,110.824001 538.35278,111.756583 537.566462,112.962859 C537.378305,113.194738 536.871043,113.312578 537.030595,113.70411 C538.616582,113.756061 540.021404,113.16306 541.426225,112.678396 C542.205552,112.359721 542.76176,111.628607 543.456543,111.167384 C543.630079,111.167384 543.69301,111.024835 543.839849,110.962748 C544.660494,110.927903 545.355912,111.29536 546.15558,111.375187 C546.142231,111.603898 545.822491,111.731875 545.91212,112.009369 C547.47713,112.452853 549.007178,113.028114 550.5029,113.683837 C550.905912,113.70411 551.038131,113.219446 551.378847,113.035717 L551.747534,112.748086 C552.964834,113.091469 554.300368,113.171296 555.586321,113.344255 C555.565979,113.565997 555.253232,113.70411 555.071431,113.853628 C554.93222,113.996176 554.675411,114.002511 554.633457,114.179905 C555.266581,114.408616 555.996961,114.43966 556.692379,114.519487 C557.255579,114.49858 557.71453,114.190042 558.090209,113.781403 C560.266729,114.14506 562.693702,113.975269 564.905819,113.853628 C567.172604,113.583103 569.51694,113.247322 571.679476,112.599202 C572.723239,112.20767 573.814678,111.837044 574.87179,111.451847 C575.755366,110.849343 576.846805,109.999755 577,108.894213 L576.937069,108.861902 Z" id="Path-Copy-12" fill="#2D4359"></path>
                        <path d="M439.937069,218.861902 L439.576011,218.861902 C439.555034,218.671204 439.659283,218.431723 439.596352,218.247994 C439.040144,217.828585 438.212507,218.068066 437.642315,217.679701 C437.030169,217.5758 436.383696,217.427549 435.750573,217.298306 C434.505303,217.018277 433.225708,216.861791 431.995058,216.549452 L428.169621,216.071123 C426.41709,215.787293 424.587643,215.964053 422.835112,216.071123 C422.181647,215.03147 421.645781,213.943668 420.692918,213.021856 C420.331224,212.886277 420.310247,213.427327 419.963173,213.389314 C419.858924,213.593316 419.629448,213.714958 419.434299,213.784014 C419.01031,214.110292 418.634631,214.491054 418.126734,214.643106 C417.911243,214.816064 417.577519,214.747007 417.424323,215.025135 C417.056273,214.976352 416.896085,215.412866 416.540747,215.388792 C416.499429,215.429972 416.436498,215.461016 416.401537,215.503464 C416.71492,215.850015 416.999698,216.213671 417.208832,216.605204 L417.139545,216.671093 C415.602504,216.86876 414.100426,217.226081 412.563385,217.274231 C412.403198,217.361027 412.146389,217.336952 411.986201,217.312877 L411.833641,217.392704 L407.722789,217.871033 L405.525292,218.05793 C404.294007,217.2812 402.980085,216.733814 401.595605,216.322008 C401.574628,216.287163 401.519325,216.280194 401.547294,216.225075 C401.554287,216.25992 401.512333,216.263088 401.50534,216.287796 C401.03304,216.162987 400.580446,216.020439 400.204768,215.67769 C400.197775,215.628906 400.212396,215.583924 400.163449,215.559216 C400.094162,215.535141 400.052208,215.621937 400.066193,215.67769 C400.0592,216.48483 400.623036,217.060725 400.984094,217.718981 C401.741808,218.599613 402.729633,219.188179 403.647535,219.833131 C402.611399,220.824001 401.35278,221.756583 400.566462,222.962859 C400.378305,223.194738 399.871043,223.312578 400.030595,223.70411 C401.616582,223.756061 403.021404,223.16306 404.426225,222.678396 C405.205552,222.359721 405.76176,221.628607 406.456543,221.167384 C406.630079,221.167384 406.69301,221.024835 406.839849,220.962748 C407.660494,220.927903 408.355912,221.29536 409.15558,221.375187 C409.142231,221.603898 408.822491,221.731875 408.91212,222.009369 C410.47713,222.452853 412.007178,223.028114 413.5029,223.683837 C413.905912,223.70411 414.038131,223.219446 414.378847,223.035717 L414.747534,222.748086 C415.964834,223.091469 417.300368,223.171296 418.586321,223.344255 C418.565979,223.565997 418.253232,223.70411 418.071431,223.853628 C417.93222,223.996176 417.675411,224.002511 417.633457,224.179905 C418.266581,224.408616 418.996961,224.43966 419.692379,224.519487 C420.255579,224.49858 420.71453,224.190042 421.090209,223.781403 C423.266729,224.14506 425.693702,223.975269 427.905819,223.853628 C430.172604,223.583103 432.51694,223.247322 434.679476,222.599202 C435.723239,222.20767 436.814678,221.837044 437.87179,221.451847 C438.755366,220.849343 439.846805,219.999755 440,218.894213 L439.937069,218.861902 Z" id="Path-Copy-15" fill="#2D4359"></path>
                        <path d="M276.937069,126.861902 L276.576011,126.861902 C276.555034,126.671204 276.659283,126.431723 276.596352,126.247994 C276.040144,125.828585 275.212507,126.068066 274.642315,125.679701 C274.030169,125.5758 273.383696,125.427549 272.750573,125.298306 C271.505303,125.018277 270.225708,124.861791 268.995058,124.549452 L265.169621,124.071123 C263.41709,123.787293 261.587643,123.964053 259.835112,124.071123 C259.181647,123.03147 258.645781,121.943668 257.692918,121.021856 C257.331224,120.886277 257.310247,121.427327 256.963173,121.389314 C256.858924,121.593316 256.629448,121.714958 256.434299,121.784014 C256.01031,122.110292 255.634631,122.491054 255.126734,122.643106 C254.911243,122.816064 254.577519,122.747007 254.424323,123.025135 C254.056273,122.976352 253.896085,123.412866 253.540747,123.388792 C253.499429,123.429972 253.436498,123.461016 253.401537,123.503464 C253.71492,123.850015 253.999698,124.213671 254.208832,124.605204 L254.139545,124.671093 C252.602504,124.86876 251.100426,125.226081 249.563385,125.274231 C249.403198,125.361027 249.146389,125.336952 248.986201,125.312877 L248.833641,125.392704 L244.722789,125.871033 L242.525292,126.05793 C241.294007,125.2812 239.980085,124.733814 238.595605,124.322008 C238.574628,124.287163 238.519325,124.280194 238.547294,124.225075 C238.554287,124.25992 238.512333,124.263088 238.50534,124.287796 C238.03304,124.162987 237.580446,124.020439 237.204768,123.67769 C237.197775,123.628906 237.212396,123.583924 237.163449,123.559216 C237.094162,123.535141 237.052208,123.621937 237.066193,123.67769 C237.0592,124.48483 237.623036,125.060725 237.984094,125.718981 C238.741808,126.599613 239.729633,127.188179 240.647535,127.833131 C239.611399,128.824001 238.35278,129.756583 237.566462,130.962859 C237.378305,131.194738 236.871043,131.312578 237.030595,131.70411 C238.616582,131.756061 240.021404,131.16306 241.426225,130.678396 C242.205552,130.359721 242.76176,129.628607 243.456543,129.167384 C243.630079,129.167384 243.69301,129.024835 243.839849,128.962748 C244.660494,128.927903 245.355912,129.29536 246.15558,129.375187 C246.142231,129.603898 245.822491,129.731875 245.91212,130.009369 C247.47713,130.452853 249.007178,131.028114 250.5029,131.683837 C250.905912,131.70411 251.038131,131.219446 251.378847,131.035717 L251.747534,130.748086 C252.964834,131.091469 254.300368,131.171296 255.586321,131.344255 C255.565979,131.565997 255.253232,131.70411 255.071431,131.853628 C254.93222,131.996176 254.675411,132.002511 254.633457,132.179905 C255.266581,132.408616 255.996961,132.43966 256.692379,132.519487 C257.255579,132.49858 257.71453,132.190042 258.090209,131.781403 C260.266729,132.14506 262.693702,131.975269 264.905819,131.853628 C267.172604,131.583103 269.51694,131.247322 271.679476,130.599202 C272.723239,130.20767 273.814678,129.837044 274.87179,129.451847 C275.755366,128.849343 276.846805,127.999755 277,126.894213 L276.937069,126.861902 Z" id="Path-Copy-13" fill="#2D4359"></path>
                        <path d="M76.9370691,83.8619022 L76.5760108,83.8619022 C76.5550338,83.6712042 76.659283,83.4317231 76.5963521,83.2479941 C76.0401444,82.8285853 75.2125073,83.0680665 74.6423149,82.6797015 C74.0301686,82.5757996 73.3836963,82.4275493 72.750573,82.2983055 C71.5053034,82.0182773 70.2257078,81.8617909 68.9950585,81.5494517 L65.1696207,81.0711229 C63.4170896,80.7872934 61.5876429,80.9640533 59.8351118,81.0711229 C59.1816472,80.0314705 58.6457808,78.9436684 57.6929175,78.021856 C57.3312236,77.8862767 57.3102466,78.4273267 56.963173,78.3893138 C56.8589238,78.5933163 56.6294484,78.7149576 56.4342989,78.7840143 C56.0103097,79.1102916 55.6346311,79.491054 55.126734,79.6431055 C54.9112433,79.8160641 54.5775186,79.7470074 54.4243231,80.025135 C54.0562725,79.9763518 53.8960847,80.4128664 53.5407474,80.3887916 C53.4994291,80.4299722 53.4364982,80.4610161 53.4015366,80.5034638 C53.7149199,80.8500146 53.9996983,81.2136712 54.2088324,81.6052039 L54.1395448,81.6710929 C52.6025045,81.8687599 51.1004258,82.2260811 49.5633855,82.2742307 C49.4031976,82.3610268 49.1463886,82.336952 48.9862008,82.3128771 L48.8336409,82.3927042 L44.7227891,82.871033 L42.5252919,83.0579297 C41.2940069,82.2811997 39.9800853,81.7338142 38.5956048,81.3220079 C38.5746279,81.2871628 38.5193249,81.2801938 38.5472942,81.2250751 C38.5542866,81.2599202 38.5123326,81.263088 38.5053403,81.2877963 C38.0330405,81.1629874 37.5804463,81.0204391 37.2047677,80.6776895 C37.1977754,80.6289063 37.2123957,80.5839244 37.1634494,80.559216 C37.0941618,80.5351412 37.0522079,80.6219373 37.0661925,80.6776895 C37.0592002,81.4848298 37.6230359,82.060725 37.9840942,82.7189815 C38.741808,83.5996133 39.7296329,84.1881795 40.6475346,84.8331314 C39.6113991,85.8240006 38.3527804,86.7565834 37.5664616,87.962859 C37.3783045,88.1947376 36.8710431,88.3125775 37.0305952,88.7041102 C38.6165818,88.7560612 40.0214036,88.1630602 41.4262254,87.6783959 C42.2055519,87.3597212 42.7617596,86.6286067 43.4565425,86.1673837 C43.6300793,86.1673837 43.6930102,86.0248354 43.8398491,85.9627477 C44.6604938,85.9279025 45.3559124,86.2953604 46.1555802,86.3751875 C46.1422312,86.6038983 45.8224912,86.731875 45.9121201,87.0093691 C47.4771298,87.4528528 49.0071777,88.0281144 50.5028998,88.6838367 C50.905912,88.7041102 51.0381305,88.219446 51.3788475,88.035717 L51.7475337,87.7480862 C52.9648341,88.0914692 54.3003683,88.1712963 55.5863205,88.3442549 C55.5659792,88.5659968 55.2532315,88.7041102 55.0714311,88.8536276 C54.9322202,88.9961759 54.6754112,89.0025114 54.6334572,89.1799049 C55.2665805,89.4086157 55.9969607,89.4396596 56.6923793,89.5194866 C57.2555793,89.4985795 57.7145302,89.1900416 58.0902088,88.7814031 C60.266729,89.1450597 62.6937017,88.9752688 64.9058193,88.8536276 C67.1726041,88.5831026 69.5169402,88.2473221 71.6794758,87.5992024 C72.7232394,87.2076697 73.8146778,86.837044 74.8717903,86.4518468 C75.755366,85.8493426 76.8468045,84.9997546 77,83.8942132 L76.9370691,83.8619022 Z" id="Path-Copy-14" fill="#2D4359"></path>
                        <path d="M39.9370691,59.8619022 L39.5760108,59.8619022 C39.5550338,59.6712042 39.659283,59.4317231 39.5963521,59.2479941 C39.0401444,58.8285853 38.2125073,59.0680665 37.6423149,58.6797015 C37.0301686,58.5757996 36.3836963,58.4275493 35.750573,58.2983055 C34.5053034,58.0182773 33.2257078,57.8617909 31.9950585,57.5494517 L28.1696207,57.0711229 C26.4170896,56.7872934 24.5876429,56.9640533 22.8351118,57.0711229 C22.1816472,56.0314705 21.6457808,54.9436684 20.6929175,54.021856 C20.3312236,53.8862767 20.3102466,54.4273267 19.963173,54.3893138 C19.8589238,54.5933163 19.6294484,54.7149576 19.4342989,54.7840143 C19.0103097,55.1102916 18.6346311,55.491054 18.126734,55.6431055 C17.9112433,55.8160641 17.5775186,55.7470074 17.4243231,56.025135 C17.0562725,55.9763518 16.8960847,56.4128664 16.5407474,56.3887916 C16.4994291,56.4299722 16.4364982,56.4610161 16.4015366,56.5034638 C16.7149199,56.8500146 16.9996983,57.2136712 17.2088324,57.6052039 L17.1395448,57.6710929 C15.6025045,57.8687599 14.1004258,58.2260811 12.5633855,58.2742307 C12.4031976,58.3610268 12.1463886,58.336952 11.9862008,58.3128771 L11.8336409,58.3927042 L7.72278911,58.871033 L5.52529186,59.0579297 C4.29400687,58.2811997 2.98008532,57.7338142 1.59560484,57.3220079 C1.57462786,57.2871628 1.51932492,57.2801938 1.54729422,57.2250751 C1.55428655,57.2599202 1.5123326,57.263088 1.50534027,57.2877963 C1.03304046,57.1629874 0.580446286,57.0204391 0.204767699,56.6776895 C0.197775373,56.6289063 0.21239569,56.5839244 0.163449411,56.559216 C0.0941618201,56.5351412 0.0522078661,56.6219373 0.0661925174,56.6776895 C0.0592001918,57.4848298 0.623035906,58.060725 0.984094176,58.7189815 C1.74180801,59.5996133 2.72963293,60.1881795 3.64753458,60.8331314 C2.61139906,61.8240006 1.35278044,62.7565834 0.566461635,63.962859 C0.378304508,64.1947376 -0.128956935,64.3125775 0.0305952232,64.7041102 C1.61658181,64.7560612 3.02140361,64.1630602 4.4262254,63.6783959 C5.20555187,63.3597212 5.7617596,62.6286067 6.4565425,62.1673837 C6.63007931,62.1673837 6.69301024,62.0248354 6.83984908,61.9627477 C7.66049384,61.9279025 8.35591241,62.2953604 9.1555802,62.3751875 C9.14223122,62.6038983 8.82249124,62.731875 8.91212014,63.0093691 C10.4771298,63.4528528 12.0071777,64.0281144 13.5028998,64.6838367 C13.905912,64.7041102 14.0381305,64.219446 14.3788475,64.035717 L14.7475337,63.7480862 C15.9648341,64.0914692 17.3003683,64.1712963 18.5863205,64.3442549 C18.5659792,64.5659968 18.2532315,64.7041102 18.0714311,64.8536276 C17.9322202,64.9961759 17.6754112,65.0025114 17.6334572,65.1799049 C18.2665805,65.4086157 18.9969607,65.4396596 19.6923793,65.5194866 C20.2555793,65.4985795 20.7145302,65.1900416 21.0902088,64.7814031 C23.266729,65.1450597 25.6937017,64.9752688 27.9058193,64.8536276 C30.1726041,64.5831026 32.5169402,64.2473221 34.6794758,63.5992024 C35.7232394,63.2076697 36.8146778,62.837044 37.8717903,62.4518468 C38.755366,61.8493426 39.8468045,60.9997546 40,59.8942132 L39.9370691,59.8619022 Z" id="Path-Copy-17" fill="#2D4359"></path>
                    </g>
                    <g id="Medium" opacity="0.0700000003">
                        <path d="M795,77.3570343 C794.529347,80.7884014 791.133057,83.4190589 788.398785,85.290245 C785.11628,86.4741268 781.71999,87.6305164 778.496101,88.8436086 C771.798342,90.8539739 764.519594,91.888367 757.50117,92.7354696 C750.636182,93.1014592 743.128141,93.6358383 736.375214,92.5086592 C735.225303,93.7681444 733.79093,94.726934 732.056582,94.7939462 C729.886059,94.5482349 727.624165,94.4554488 725.662247,93.7406523 C725.793272,93.1959635 726.586314,93.1770627 727.019039,92.7354696 C727.584513,92.2663844 728.548232,91.8419739 728.622364,91.1563878 C724.624396,90.6116991 720.493681,90.3659878 716.702594,89.3041025 L715.571647,90.1975982 C714.514832,90.7611878 714.118311,92.2663844 712.854615,92.2096818 C708.232558,90.1683878 703.479477,88.3934242 698.614335,87.0205338 C698.350562,86.1562485 699.329797,85.7610485 699.386689,85.046252 C696.914466,84.8022589 694.747392,83.6647702 692.199313,83.7695841 C691.747623,83.9654658 691.559707,84.4087772 691.013197,84.4087772 C688.861639,85.836652 687.12729,88.1013199 684.730923,89.0893199 C680.355399,90.5945165 676.016079,92.4364922 671.094045,92.2681026 C670.602703,91.0550104 672.1681,90.6890208 672.754261,89.9742243 C675.186832,86.231852 679.091703,83.3486102 682.317317,80.2729231 C679.46926,78.2711491 676.393636,76.446356 674.055885,73.7211942 C672.923214,71.6730272 671.188865,69.8946271 671.207829,67.3859662 C671.171625,67.2158583 671.283685,66.9426548 671.50953,67.0182583 C671.661242,67.0938618 671.60435,67.2347592 671.642278,67.3859662 C672.79219,68.4478514 674.205874,68.8894445 675.65921,69.2829262 C675.695414,69.209041 675.810922,69.1884219 675.790234,69.0870445 C675.716102,69.2571523 675.885054,69.2829262 675.960911,69.3877401 C680.241615,70.6661263 684.317162,72.3586133 688.127213,74.7744881 L694.937032,74.1902794 L707.687772,72.705702 L708.158426,72.4617089 C708.648043,72.5373124 709.439361,72.6111976 709.930703,72.3397124 C714.702748,72.1885054 719.379974,71.0802271 724.115815,70.4685263 L724.34166,70.2726445 C723.70033,69.0595523 722.814191,67.9323731 721.852197,66.8498687 C721.947017,66.7192809 722.155622,66.6247766 722.267682,66.50278 C723.381389,66.5783835 723.871006,65.2243939 725.022642,65.3652913 C725.476055,64.5113156 726.512182,64.7260982 727.19144,64.1900008 C728.7758,63.7209156 729.927436,62.5353156 731.248023,61.5198234 C731.851425,61.3033225 732.549647,60.9373329 732.887552,60.2981398 C733.963331,60.4201364 734.039187,58.7379589 735.15117,59.1606511 C738.113011,62.018119 739.773227,65.3927835 741.792037,68.6179592 C747.222653,68.2794618 752.882561,67.7330549 758.333864,68.6179592 L770.179502,70.0922271 C773.989552,71.059608 777.97028,71.5493124 781.816535,72.4153159 C783.780176,72.8087976 785.778298,73.2796011 787.683323,73.5991977 C789.4556,74.8019803 792.022644,74.0596916 793.738028,75.3655699 C793.925945,75.9291595 793.607004,76.6714482 793.68286,77.26253 L794.796567,77.26253 L795,77.3570343 Z" id="Path" fill="#2D4359"></path>
                        <path d="M121.640732,88.9171788 C121.179033,92.2832594 117.847362,94.8638651 115.165114,96.6994494 C111.945063,97.8608062 108.613392,98.9951939 105.450842,100.185205 C98.8805169,102.157321 91.7402563,103.172033 84.8553675,104.003018 C78.1209957,104.362045 70.7558051,104.886256 64.1313616,103.780523 C63.003329,105.016045 61.5962478,105.956593 59.8948972,106.02233 C57.7656722,105.781293 55.5468134,105.690273 53.622224,104.989076 C53.7507554,104.454751 54.528709,104.43621 54.953201,104.003018 C55.5079157,103.542858 56.4532984,103.126523 56.5260201,102.453981 C52.6041195,101.919656 48.5519963,101.678619 44.8330401,100.636938 L43.7236107,101.513434 C42.6869031,102.0663 42.2979263,103.542858 41.0582742,103.487234 C36.5241581,101.484779 31.8615104,99.7435864 27.0889345,98.396817 C26.8301804,97.548976 27.7907839,97.1612952 27.8465937,96.4600986 C25.421408,96.2207479 23.2955654,95.1049014 20.7959669,95.2077211 C20.3528716,95.3998759 20.1685304,95.8347526 19.632419,95.8347526 C17.5217972,97.2354602 15.8204466,99.4570397 13.4696739,100.426242 C9.17739984,101.9028 4.920641,103.70973 0.0922554232,103.544544 C-0.389737532,102.354532 1.14587511,101.995506 1.72088425,101.29431 C4.10717218,97.623141 7.93774778,94.7947568 11.1019893,91.7775888 C8.30812131,89.8139013 5.29101453,88.0238274 2.99774278,85.3505154 C1.88662218,83.3413176 0.185271608,81.596754 0.203874845,79.1358237 C0.168359574,78.9689524 0.278287792,78.700947 0.499835431,78.775112 C0.648661326,78.849277 0.592851616,78.9874937 0.630058089,79.1358237 C1.75809073,80.1775052 3.14487748,80.6106963 4.5705619,80.9966915 C4.60607717,80.9242121 4.7193878,80.9039853 4.69909336,80.8045367 C4.62637161,80.971408 4.79210954,80.9966915 4.86652249,81.0995112 C9.06578041,82.3535743 13.0637851,84.0138595 16.8013446,86.383769 L23.4815978,85.8106757 L35.9897378,84.3543444 L36.4514363,84.1149936 C36.9317381,84.1891586 37.7080004,84.2616381 38.1899934,83.9953182 C42.8712442,83.8469882 47.4594789,82.7597964 52.1052145,82.1597339 L52.3267622,81.9675791 C51.6976345,80.7775676 50.828356,79.6718346 49.8846645,78.6099263 C49.9776807,78.4818231 50.1823163,78.3891168 50.2922446,78.2694414 C51.3847619,78.3436064 51.8650637,77.0153783 52.9947875,77.153595 C53.439574,76.3158673 54.4559872,76.5265634 55.1223213,76.000666 C56.6765372,75.5405057 57.8062611,74.3774633 59.1017228,73.3812923 C59.693644,73.1689106 60.3785814,72.8098845 60.7100572,72.1828529 C61.7653681,72.3025283 61.839781,70.6523566 62.9306072,71.0670065 C65.8360946,73.8701072 67.4647234,77.1805641 69.4451225,80.3443765 C74.7724131,80.0123194 80.3246337,79.4763086 85.6722187,80.3443765 L97.2924769,81.7905944 C101.030036,82.7395696 104.935025,83.2199566 108.7081,84.0694832 C110.63438,84.4554785 112.594485,84.9173243 114.463265,85.2308401 C116.201822,86.4107381 118.720023,85.6825725 120.402771,86.9636047 C120.587112,87.5164712 120.274239,88.2446369 120.348652,88.8244725 L121.44117,88.8244725 L121.640732,88.9171788 Z" id="Path-Copy-2" fill="#2D4359"></path>
                        <path d="M871.880431,32.1376142 L871.194421,32.1376142 C871.154564,31.7752881 871.352638,31.3202738 871.233069,30.9711888 C870.176274,30.174312 868.603764,30.6293263 867.520398,29.8914328 C866.35732,29.6940192 865.129023,29.4123438 863.926089,29.1667805 C861.560076,28.6347268 859.128845,28.3374027 856.790611,27.7439582 L849.522279,26.8351335 C846.19247,26.2958574 842.716522,26.6317012 839.386713,26.8351335 C838.14513,24.8597939 837.126984,22.79297 835.316543,21.0415263 C834.629325,20.7839257 834.589469,21.8119208 833.930029,21.7396963 C833.731955,22.127301 833.295952,22.3584194 832.925168,22.4896272 C832.119588,23.109554 831.405799,23.8330025 830.440795,24.1219005 C830.031362,24.4505219 829.397285,24.3193141 829.106214,24.8477565 C828.406918,24.7550684 828.102561,25.5844462 827.42742,25.5387041 C827.348915,25.6169472 827.229347,25.6759306 827.16292,25.7565812 C827.758348,26.4150278 828.299427,27.1059753 828.696781,27.8498875 L828.565135,27.9750766 C825.644758,28.3506439 822.790809,29.029554 819.870432,29.1210384 C819.566076,29.2859509 819.078138,29.2402087 818.773781,29.1944666 L818.483918,29.346138 L810.673299,30.2549627 L806.498055,30.6100664 C804.158613,29.1342795 801.662162,28.094247 799.031649,27.3118151 C798.991793,27.2456093 798.886717,27.2323682 798.939859,27.1276427 C798.953144,27.1938484 798.873432,27.1998671 798.860147,27.2468131 C797.962777,27.009676 797.102848,26.7388342 796.389059,26.0876101 C796.375773,25.994922 796.403552,25.9094564 796.310554,25.8625105 C796.178907,25.8167683 796.099195,25.9816809 796.125766,26.0876101 C796.11248,27.6211766 797.183768,28.7153775 797.869779,29.9660648 C799.309435,31.6392653 801.186303,32.757541 802.930316,33.9829497 C800.961658,35.8656012 798.570283,37.6375085 797.076277,39.9294321 C796.718779,40.3700014 795.754982,40.5938973 796.058131,41.3378095 C799.071505,41.4365162 801.740667,40.3098143 804.409828,39.3889522 C805.890549,38.7834703 806.947343,37.3943527 808.267431,36.518029 C808.597151,36.518029 808.716719,36.2471872 808.995713,36.1292206 C810.554938,36.0630148 811.876234,36.7611848 813.395602,36.9128562 C813.370239,37.3474068 812.762733,37.5905626 812.933028,38.1178013 C815.906547,38.9604203 818.813638,40.0534174 821.65551,41.2992897 C822.421233,41.3378095 822.672448,40.4169473 823.31981,40.0678623 L824.020314,39.5213637 C826.333185,40.1737916 828.8707,40.325463 831.314009,40.6540844 C831.27536,41.0753938 830.68114,41.3378095 830.335719,41.6218924 C830.071218,41.8927342 829.583281,41.9047716 829.503569,42.2418192 C830.706503,42.6763698 832.094225,42.7353532 833.415521,42.8870246 C834.485601,42.8473011 835.357607,42.2610791 836.071397,41.4846659 C840.206785,42.1756134 844.818033,41.8530108 849.021057,41.6218924 C853.327948,41.1078949 857.782186,40.4699119 861.891004,39.2384845 C863.874155,38.4945724 865.947888,37.7903837 867.956402,37.0585089 C869.635195,35.9137509 871.708929,34.2995337 872,32.199005 L871.880431,32.1376142 Z" id="Path" fill="#2D4359"></path>
                        <path d="M1095.88043,94.1376142 L1095.19442,94.1376142 C1095.15456,93.7752881 1095.35264,93.3202738 1095.23307,92.9711888 C1094.17627,92.174312 1092.60376,92.6293263 1091.5204,91.8914328 C1090.35732,91.6940192 1089.12902,91.4123438 1087.92609,91.1667805 C1085.56008,90.6347268 1083.12884,90.3374027 1080.79061,89.7439582 L1073.52228,88.8351335 C1070.19247,88.2958574 1066.71652,88.6317012 1063.38671,88.8351335 C1062.14513,86.8597939 1061.12698,84.79297 1059.31654,83.0415263 C1058.62932,82.7839257 1058.58947,83.8119208 1057.93003,83.7396963 C1057.73196,84.127301 1057.29595,84.3584194 1056.92517,84.4896272 C1056.11959,85.109554 1055.4058,85.8330025 1054.44079,86.1219005 C1054.03136,86.4505219 1053.39729,86.3193141 1053.10621,86.8477565 C1052.40692,86.7550684 1052.10256,87.5844462 1051.42742,87.5387041 C1051.34892,87.6169472 1051.22935,87.6759306 1051.16292,87.7565812 C1051.75835,88.4150278 1052.29943,89.1059753 1052.69678,89.8498875 L1052.56514,89.9750766 C1049.64476,90.3506439 1046.79081,91.029554 1043.87043,91.1210384 C1043.56608,91.2859509 1043.07814,91.2402087 1042.77378,91.1944666 L1042.48392,91.346138 L1034.6733,92.2549627 L1030.49805,92.6100664 C1028.15861,91.1342795 1025.66216,90.094247 1023.03165,89.3118151 C1022.99179,89.2456093 1022.88672,89.2323682 1022.93986,89.1276427 C1022.95314,89.1938484 1022.87343,89.1998671 1022.86015,89.2468131 C1021.96278,89.009676 1021.10285,88.7388342 1020.38906,88.0876101 C1020.37577,87.994922 1020.40355,87.9094564 1020.31055,87.8625105 C1020.17891,87.8167683 1020.09919,87.9816809 1020.12577,88.0876101 C1020.11248,89.6211766 1021.18377,90.7153775 1021.86978,91.9660648 C1023.30944,93.6392653 1025.1863,94.757541 1026.93032,95.9829497 C1024.96166,97.8656012 1022.57028,99.6375085 1021.07628,101.929432 C1020.71878,102.370001 1019.75498,102.593897 1020.05813,103.337809 C1023.07151,103.436516 1025.74067,102.309814 1028.40983,101.388952 C1029.89055,100.78347 1030.94734,99.3943527 1032.26743,98.518029 C1032.59715,98.518029 1032.71672,98.2471872 1032.99571,98.1292206 C1034.55494,98.0630148 1035.87623,98.7611848 1037.3956,98.9128562 C1037.37024,99.3474068 1036.76273,99.5905626 1036.93303,100.117801 C1039.90655,100.96042 1042.81364,102.053417 1045.65551,103.29929 C1046.42123,103.337809 1046.67245,102.416947 1047.31981,102.067862 L1048.02031,101.521364 C1050.33318,102.173792 1052.8707,102.325463 1055.31401,102.654084 C1055.27536,103.075394 1054.68114,103.337809 1054.33572,103.621892 C1054.07122,103.892734 1053.58328,103.904772 1053.50357,104.241819 C1054.7065,104.67637 1056.09423,104.735353 1057.41552,104.887025 C1058.4856,104.847301 1059.35761,104.261079 1060.0714,103.484666 C1064.20679,104.175613 1068.81803,103.853011 1073.02106,103.621892 C1077.32795,103.107895 1081.78219,102.469912 1085.891,101.238485 C1087.87415,100.494572 1089.94789,99.7903837 1091.9564,99.0585089 C1093.6352,97.9137509 1095.70893,96.2995337 1096,94.199005 L1095.88043,94.1376142 Z" id="Path-Copy-7" fill="#2D4359"></path>
                        <path d="M195.880431,141.137614 L195.194421,141.137614 C195.154564,140.775288 195.352638,140.320274 195.233069,139.971189 C194.176274,139.174312 192.603764,139.629326 191.520398,138.891433 C190.35732,138.694019 189.129023,138.412344 187.926089,138.166781 C185.560076,137.634727 183.128845,137.337403 180.790611,136.743958 L173.522279,135.835134 C170.19247,135.295857 166.716522,135.631701 163.386713,135.835134 C162.14513,133.859794 161.126984,131.79297 159.316543,130.041526 C158.629325,129.783926 158.589469,130.811921 157.930029,130.739696 C157.731955,131.127301 157.295952,131.358419 156.925168,131.489627 C156.119588,132.109554 155.405799,132.833003 154.440795,133.1219 C154.031362,133.450522 153.397285,133.319314 153.106214,133.847757 C152.406918,133.755068 152.102561,134.584446 151.42742,134.538704 C151.348915,134.616947 151.229347,134.675931 151.16292,134.756581 C151.758348,135.415028 152.299427,136.105975 152.696781,136.849887 L152.565135,136.975077 C149.644758,137.350644 146.790809,138.029554 143.870432,138.121038 C143.566076,138.285951 143.078138,138.240209 142.773781,138.194467 L142.483918,138.346138 L134.673299,139.254963 L130.498055,139.610066 C128.158613,138.13428 125.662162,137.094247 123.031649,136.311815 C122.991793,136.245609 122.886717,136.232368 122.939859,136.127643 C122.953144,136.193848 122.873432,136.199867 122.860147,136.246813 C121.962777,136.009676 121.102848,135.738834 120.389059,135.08761 C120.375773,134.994922 120.403552,134.909456 120.310554,134.86251 C120.178907,134.816768 120.099195,134.981681 120.125766,135.08761 C120.11248,136.621177 121.183768,137.715378 121.869779,138.966065 C123.309435,140.639265 125.186303,141.757541 126.930316,142.98295 C124.961658,144.865601 122.570283,146.637509 121.076277,148.929432 C120.718779,149.370001 119.754982,149.593897 120.058131,150.337809 C123.071505,150.436516 125.740667,149.309814 128.409828,148.388952 C129.890549,147.78347 130.947343,146.394353 132.267431,145.518029 C132.597151,145.518029 132.716719,145.247187 132.995713,145.129221 C134.554938,145.063015 135.876234,145.761185 137.395602,145.912856 C137.370239,146.347407 136.762733,146.590563 136.933028,147.117801 C139.906547,147.96042 142.813638,149.053417 145.65551,150.29929 C146.421233,150.337809 146.672448,149.416947 147.31981,149.067862 L148.020314,148.521364 C150.333185,149.173792 152.8707,149.325463 155.314009,149.654084 C155.27536,150.075394 154.68114,150.337809 154.335719,150.621892 C154.071218,150.892734 153.583281,150.904772 153.503569,151.241819 C154.706503,151.67637 156.094225,151.735353 157.415521,151.887025 C158.485601,151.847301 159.357607,151.261079 160.071397,150.484666 C164.206785,151.175613 168.818033,150.853011 173.021057,150.621892 C177.327948,150.107895 181.782186,149.469912 185.891004,148.238485 C187.874155,147.494572 189.947888,146.790384 191.956402,146.058509 C193.635195,144.913751 195.708929,143.299534 196,141.199005 L195.880431,141.137614 Z" id="Path-Copy-4" fill="#2D4359"></path>
                        <path d="M1447.88043,77.1376142 L1447.19442,77.1376142 C1447.15456,76.7752881 1447.35264,76.3202738 1447.23307,75.9711888 C1446.17627,75.174312 1444.60376,75.6293263 1443.5204,74.8914328 C1442.35732,74.6940192 1441.12902,74.4123438 1439.92609,74.1667805 C1437.56008,73.6347268 1435.12884,73.3374027 1432.79061,72.7439582 L1425.52228,71.8351335 C1422.19247,71.2958574 1418.71652,71.6317012 1415.38671,71.8351335 C1414.14513,69.8597939 1413.12698,67.79297 1411.31654,66.0415263 C1410.62932,65.7839257 1410.58947,66.8119208 1409.93003,66.7396963 C1409.73196,67.127301 1409.29595,67.3584194 1408.92517,67.4896272 C1408.11959,68.109554 1407.4058,68.8330025 1406.44079,69.1219005 C1406.03136,69.4505219 1405.39729,69.3193141 1405.10621,69.8477565 C1404.40692,69.7550684 1404.10256,70.5844462 1403.42742,70.5387041 C1403.34892,70.6169472 1403.22935,70.6759306 1403.16292,70.7565812 C1403.75835,71.4150278 1404.29943,72.1059753 1404.69678,72.8498875 L1404.56514,72.9750766 C1401.64476,73.3506439 1398.79081,74.029554 1395.87043,74.1210384 C1395.56608,74.2859509 1395.07814,74.2402087 1394.77378,74.1944666 L1394.48392,74.346138 L1386.6733,75.2549627 L1382.49805,75.6100664 C1380.15861,74.1342795 1377.66216,73.094247 1375.03165,72.3118151 C1374.99179,72.2456093 1374.88672,72.2323682 1374.93986,72.1276427 C1374.95314,72.1938484 1374.87343,72.1998671 1374.86015,72.2468131 C1373.96278,72.009676 1373.10285,71.7388342 1372.38906,71.0876101 C1372.37577,70.994922 1372.40355,70.9094564 1372.31055,70.8625105 C1372.17891,70.8167683 1372.09919,70.9816809 1372.12577,71.0876101 C1372.11248,72.6211766 1373.18377,73.7153775 1373.86978,74.9660648 C1375.30944,76.6392653 1377.1863,77.757541 1378.93032,78.9829497 C1376.96166,80.8656012 1374.57028,82.6375085 1373.07628,84.9294321 C1372.71878,85.3700014 1371.75498,85.5938973 1372.05813,86.3378095 C1375.07151,86.4365162 1377.74067,85.3098143 1380.40983,84.3889522 C1381.89055,83.7834703 1382.94734,82.3943527 1384.26743,81.518029 C1384.59715,81.518029 1384.71672,81.2471872 1384.99571,81.1292206 C1386.55494,81.0630148 1387.87623,81.7611848 1389.3956,81.9128562 C1389.37024,82.3474068 1388.76273,82.5905626 1388.93303,83.1178013 C1391.90655,83.9604203 1394.81364,85.0534174 1397.65551,86.2992897 C1398.42123,86.3378095 1398.67245,85.4169473 1399.31981,85.0678623 L1400.02031,84.5213637 C1402.33318,85.1737916 1404.8707,85.325463 1407.31401,85.6540844 C1407.27536,86.0753938 1406.68114,86.3378095 1406.33572,86.6218924 C1406.07122,86.8927342 1405.58328,86.9047716 1405.50357,87.2418192 C1406.7065,87.6763698 1408.09423,87.7353532 1409.41552,87.8870246 C1410.4856,87.8473011 1411.35761,87.2610791 1412.0714,86.4846659 C1416.20679,87.1756134 1420.81803,86.8530108 1425.02106,86.6218924 C1429.32795,86.1078949 1433.78219,85.4699119 1437.891,84.2384845 C1439.87415,83.4945724 1441.94789,82.7903837 1443.9564,82.0585089 C1445.6352,80.9137509 1447.70893,79.2995337 1448,77.199005 L1447.88043,77.1376142 Z" id="Path-Copy-5" fill="#2D4359"></path>
                        <path d="M1547.88043,116.137614 L1547.19442,116.137614 C1547.15456,115.775288 1547.35264,115.320274 1547.23307,114.971189 C1546.17627,114.174312 1544.60376,114.629326 1543.5204,113.891433 C1542.35732,113.694019 1541.12902,113.412344 1539.92609,113.166781 C1537.56008,112.634727 1535.12884,112.337403 1532.79061,111.743958 L1525.52228,110.835134 C1522.19247,110.295857 1518.71652,110.631701 1515.38671,110.835134 C1514.14513,108.859794 1513.12698,106.79297 1511.31654,105.041526 C1510.62932,104.783926 1510.58947,105.811921 1509.93003,105.739696 C1509.73196,106.127301 1509.29595,106.358419 1508.92517,106.489627 C1508.11959,107.109554 1507.4058,107.833003 1506.44079,108.1219 C1506.03136,108.450522 1505.39729,108.319314 1505.10621,108.847757 C1504.40692,108.755068 1504.10256,109.584446 1503.42742,109.538704 C1503.34892,109.616947 1503.22935,109.675931 1503.16292,109.756581 C1503.75835,110.415028 1504.29943,111.105975 1504.69678,111.849887 L1504.56514,111.975077 C1501.64476,112.350644 1498.79081,113.029554 1495.87043,113.121038 C1495.56608,113.285951 1495.07814,113.240209 1494.77378,113.194467 L1494.48392,113.346138 L1486.6733,114.254963 L1482.49805,114.610066 C1480.15861,113.13428 1477.66216,112.094247 1475.03165,111.311815 C1474.99179,111.245609 1474.88672,111.232368 1474.93986,111.127643 C1474.95314,111.193848 1474.87343,111.199867 1474.86015,111.246813 C1473.96278,111.009676 1473.10285,110.738834 1472.38906,110.08761 C1472.37577,109.994922 1472.40355,109.909456 1472.31055,109.86251 C1472.17891,109.816768 1472.09919,109.981681 1472.12577,110.08761 C1472.11248,111.621177 1473.18377,112.715378 1473.86978,113.966065 C1475.30944,115.639265 1477.1863,116.757541 1478.93032,117.98295 C1476.96166,119.865601 1474.57028,121.637509 1473.07628,123.929432 C1472.71878,124.370001 1471.75498,124.593897 1472.05813,125.337809 C1475.07151,125.436516 1477.74067,124.309814 1480.40983,123.388952 C1481.89055,122.78347 1482.94734,121.394353 1484.26743,120.518029 C1484.59715,120.518029 1484.71672,120.247187 1484.99571,120.129221 C1486.55494,120.063015 1487.87623,120.761185 1489.3956,120.912856 C1489.37024,121.347407 1488.76273,121.590563 1488.93303,122.117801 C1491.90655,122.96042 1494.81364,124.053417 1497.65551,125.29929 C1498.42123,125.337809 1498.67245,124.416947 1499.31981,124.067862 L1500.02031,123.521364 C1502.33318,124.173792 1504.8707,124.325463 1507.31401,124.654084 C1507.27536,125.075394 1506.68114,125.337809 1506.33572,125.621892 C1506.07122,125.892734 1505.58328,125.904772 1505.50357,126.241819 C1506.7065,126.67637 1508.09423,126.735353 1509.41552,126.887025 C1510.4856,126.847301 1511.35761,126.261079 1512.0714,125.484666 C1516.20679,126.175613 1520.81803,125.853011 1525.02106,125.621892 C1529.32795,125.107895 1533.78219,124.469912 1537.891,123.238485 C1539.87415,122.494572 1541.94789,121.790384 1543.9564,121.058509 C1545.6352,119.913751 1547.70893,118.299534 1548,116.199005 L1547.88043,116.137614 Z" id="Path-Copy-8" fill="#2D4359"></path>
                        <path d="M1269.88043,11.1376142 L1269.19442,11.1376142 C1269.15456,10.7752881 1269.35264,10.3202738 1269.23307,9.97118883 C1268.17627,9.17431205 1266.60376,9.62932628 1265.5204,8.89143283 C1264.35732,8.69401924 1263.12902,8.41234376 1261.92609,8.16678053 C1259.56008,7.63472684 1257.12884,7.33740273 1254.79061,6.74395824 L1247.52228,5.83513351 C1244.19247,5.29585737 1240.71652,5.63170122 1237.38671,5.83513351 C1236.14513,3.85979393 1235.12698,1.79297001 1233.31654,0.0415263235 C1232.62932,-0.216074328 1232.58947,0.811920796 1231.93003,0.739696314 C1231.73196,1.12730103 1231.29595,1.35841938 1230.92517,1.48962718 C1230.11959,2.10955399 1229.4058,2.83300255 1228.44079,3.12190047 C1228.03136,3.45052186 1227.39729,3.31931406 1227.10621,3.84775651 C1226.40692,3.75506843 1226.10256,4.58444623 1225.42742,4.53870406 C1225.34892,4.61694725 1225.22935,4.67593057 1225.16292,4.75658124 C1225.75835,5.41502777 1226.29943,6.10597531 1226.69678,6.84988748 L1226.56514,6.97507658 C1223.64476,7.35064388 1220.79081,8.02955401 1217.87043,8.12103835 C1217.56608,8.28595092 1217.07814,8.24020875 1216.77378,8.19446658 L1216.48392,8.34613799 L1208.6733,9.25496272 L1204.49805,9.61006642 C1202.15861,8.13427951 1199.66216,7.09424697 1197.03165,6.31181509 C1196.99179,6.24560931 1196.88672,6.23236816 1196.93986,6.12764266 C1196.95314,6.19384843 1196.87343,6.19986714 1196.86015,6.24681305 C1195.96278,6.009676 1195.10285,5.7388342 1194.38906,5.08761012 C1194.37577,4.99492203 1194.40355,4.9094564 1194.31055,4.86251048 C1194.17891,4.81676831 1194.09919,4.98168088 1194.12577,5.08761012 C1194.11248,6.62117662 1195.18377,7.71537752 1195.86978,8.96606479 C1197.30944,10.6392653 1199.1863,11.757541 1200.93032,12.9829497 C1198.96166,14.8656012 1196.57028,16.6375085 1195.07628,18.9294321 C1194.71878,19.3700014 1193.75498,19.5938973 1194.05813,20.3378095 C1197.07151,20.4365162 1199.74067,19.3098143 1202.40983,18.3889522 C1203.89055,17.7834703 1204.94734,16.3943527 1206.26743,15.518029 C1206.59715,15.518029 1206.71672,15.2471872 1206.99571,15.1292206 C1208.55494,15.0630148 1209.87623,15.7611848 1211.3956,15.9128562 C1211.37024,16.3474068 1210.76273,16.5905626 1210.93303,17.1178013 C1213.90655,17.9604203 1216.81364,19.0534174 1219.65551,20.2992897 C1220.42123,20.3378095 1220.67245,19.4169473 1221.31981,19.0678623 L1222.02031,18.5213637 C1224.33318,19.1737916 1226.8707,19.325463 1229.31401,19.6540844 C1229.27536,20.0753938 1228.68114,20.3378095 1228.33572,20.6218924 C1228.07122,20.8927342 1227.58328,20.9047716 1227.50357,21.2418192 C1228.7065,21.6763698 1230.09423,21.7353532 1231.41552,21.8870246 C1232.4856,21.8473011 1233.35761,21.2610791 1234.0714,20.4846659 C1238.20679,21.1756134 1242.81803,20.8530108 1247.02106,20.6218924 C1251.32795,20.1078949 1255.78219,19.4699119 1259.891,18.2384845 C1261.87415,17.4945724 1263.94789,16.7903837 1265.9564,16.0585089 C1267.6352,14.9137509 1269.70893,13.2995337 1270,11.199005 L1269.88043,11.1376142 Z" id="Path-Copy-3" fill="#2D4359"></path>
                    </g>
                    <g id="Large" transform="translate(295.000000, 92.000000)" opacity="0.109999999">
                        <path d="M176,25.5796501 C175.331976,30.3852708 170.511436,34.0694997 166.630534,36.6900911 C161.971494,38.3481145 157.150954,39.9676351 152.575111,41.6665676 C143.068615,44.482079 132.737488,45.9307438 122.775854,47.1171089 C113.032001,47.6296763 102.375426,48.3780729 92.7906261,46.7994614 C91.1584939,48.5633673 89.122611,49.9061496 86.6609545,50 C83.5802134,49.6558819 80.3697826,49.5259353 77.5851254,48.5248646 C77.7710955,47.7620294 78.8967038,47.7355588 79.5108945,47.1171089 C80.3135022,46.4601562 81.681361,45.8657705 81.7865809,44.9056089 C76.1120466,44.1427738 70.2490953,43.7986557 64.868198,42.3114882 L63.2629826,43.5628266 C61.7629871,44.3521323 61.200183,46.4601562 59.4065505,46.3807444 C52.8462114,43.5219174 46.0999022,41.0360856 39.1945397,39.113356 C38.8201525,37.9029268 40.2100342,37.3494502 40.2907843,36.3483795 C36.7818226,36.0066678 33.7059755,34.4136178 30.0893469,34.5604094 C29.4482395,34.8347413 29.1815193,35.4555976 28.4058283,35.4555976 C25.3520039,37.4553326 22.8903474,40.6269942 19.4890526,42.0106857 C13.2786308,44.1187096 7.11959558,46.6983918 0.133482874,46.4625626 C-0.563904909,44.7636301 1.6579481,44.2510627 2.48991949,43.249992 C5.94260076,38.0088092 11.4849984,33.9708365 16.063288,29.6633448 C12.0208859,26.8598655 7.65548304,24.3042475 4.33738537,20.4876654 C2.72972301,17.6192128 0.268066482,15.1285681 0.294983203,11.6151949 C0.243596735,11.3769593 0.402650089,10.9943386 0.723203772,11.100221 C0.938537544,11.2061035 0.857787379,11.40343 0.911620822,11.6151949 C2.54375293,13.1023625 4.55027217,13.7208124 6.61307182,14.2718826 C6.66445829,14.1684065 6.82840559,14.1395295 6.7990419,13.9975507 C6.69382199,14.2357863 6.93362551,14.2718826 7.04129239,14.4186742 C13.1171305,16.2090507 18.9017787,18.5793743 24.3095927,21.9628008 L33.9751427,21.144618 L52.0729674,19.0654712 L52.7409915,18.7237595 C53.4359323,18.829642 54.5590937,18.9331181 55.2564815,18.5529037 C62.0297074,18.3411388 68.6683497,16.7889979 75.3901891,15.9323124 L75.7107428,15.6579805 C74.8004682,13.959048 73.5427232,12.3804365 72.1773114,10.8643919 C72.311895,10.681504 72.6079789,10.5491509 72.7670323,10.378295 C74.3477779,10.4841775 75.0427187,8.58791858 76.6772978,8.78524502 C77.3208521,7.58925429 78.7914839,7.89005679 79.7555919,7.13925375 C82.0043617,6.4823011 83.6389408,4.82187131 85.5133234,3.39967711 C86.3697645,3.09646819 87.3607892,2.58390073 87.8403963,1.6887125 C89.3673085,1.85956832 89.4749754,-0.496316839 91.053274,0.0956624756 C95.2571765,4.0975389 97.6136131,8.82374774 100.47902,13.340598 C108.186991,12.8665333 116.220409,12.1012918 123.957743,13.340598 L140.770906,15.4053064 C146.17872,16.7601208 151.828784,17.4459505 157.287985,18.6587862 C160.075089,19.2098564 162.911132,19.8692154 165.615039,20.3168096 C168.130529,22.0013035 171.774075,20.9617301 174.208815,22.7906093 C174.475535,23.5799151 174.022844,24.6194885 174.130511,25.447297 L175.711257,25.447297 L176,25.5796501 Z" id="Path" fill="#2D4359"></path>
                        <path d="M1001,39.5796501 C1000.33198,44.3852708 995.511436,48.0694997 991.630534,50.6900911 C986.971494,52.3481145 982.150954,53.9676351 977.575111,55.6665676 C968.068615,58.482079 957.737488,59.9307438 947.775854,61.1171089 C938.032001,61.6296763 927.375426,62.3780729 917.790626,60.7994614 C916.158494,62.5633673 914.122611,63.9061496 911.660954,64 C908.580213,63.6558819 905.369783,63.5259353 902.585125,62.5248646 C902.771095,61.7620294 903.896704,61.7355588 904.510894,61.1171089 C905.313502,60.4601562 906.681361,59.8657705 906.786581,58.9056089 C901.112047,58.1427738 895.249095,57.7986557 889.868198,56.3114882 L888.262983,57.5628266 C886.762987,58.3521323 886.200183,60.4601562 884.406551,60.3807444 C877.846211,57.5219174 871.099902,55.0360856 864.19454,53.113356 C863.820153,51.9029268 865.210034,51.3494502 865.290784,50.3483795 C861.781823,50.0066678 858.705975,48.4136178 855.089347,48.5604094 C854.44824,48.8347413 854.181519,49.4555976 853.405828,49.4555976 C850.352004,51.4553326 847.890347,54.6269942 844.489053,56.0106857 C838.278631,58.1187096 832.119596,60.6983918 825.133483,60.4625626 C824.436095,58.7636301 826.657948,58.2510627 827.489919,57.249992 C830.942601,52.0088092 836.484998,47.9708365 841.063288,43.6633448 C837.020886,40.8598655 832.655483,38.3042475 829.337385,34.4876654 C827.729723,31.6192128 825.268066,29.1285681 825.294983,25.6151949 C825.243597,25.3769593 825.40265,24.9943386 825.723204,25.100221 C825.938538,25.2061035 825.857787,25.40343 825.911621,25.6151949 C827.543753,27.1023625 829.550272,27.7208124 831.613072,28.2718826 C831.664458,28.1684065 831.828406,28.1395295 831.799042,27.9975507 C831.693822,28.2357863 831.933626,28.2718826 832.041292,28.4186742 C838.117131,30.2090507 843.901779,32.5793743 849.309593,35.9628008 L858.975143,35.144618 L877.072967,33.0654712 L877.740991,32.7237595 C878.435932,32.829642 879.559094,32.9331181 880.256481,32.5529037 C887.029707,32.3411388 893.66835,30.7889979 900.390189,29.9323124 L900.710743,29.6579805 C899.800468,27.959048 898.542723,26.3804365 897.177311,24.8643919 C897.311895,24.681504 897.607979,24.5491509 897.767032,24.378295 C899.347778,24.4841775 900.042719,22.5879186 901.677298,22.785245 C902.320852,21.5892543 903.791484,21.8900568 904.755592,21.1392538 C907.004362,20.4823011 908.638941,18.8218713 910.513323,17.3996771 C911.369764,17.0964682 912.360789,16.5839007 912.840396,15.6887125 C914.367308,15.8595683 914.474975,13.5036832 916.053274,14.0956625 C920.257177,18.0975389 922.613613,22.8237477 925.47902,27.340598 C933.186991,26.8665333 941.220409,26.1012918 948.957743,27.340598 L965.770906,29.4053064 C971.17872,30.7601208 976.828784,31.4459505 982.287985,32.6587862 C985.075089,33.2098564 987.911132,33.8692154 990.615039,34.3168096 C993.130529,36.0013035 996.774075,34.9617301 999.208815,36.7906093 C999.475535,37.5799151 999.022844,38.6194885 999.130511,39.447297 L1000.71126,39.447297 L1001,39.5796501 Z" id="Path-Copy-6" fill="#2D4359"></path>
                        <path d="M276.151372,120.348069 L275.014038,120.348069 C274.947961,119.752111 275.276346,119.003699 275.078113,118.42952 C273.326059,117.118809 270.719002,117.867221 268.922896,116.653527 C266.994635,116.328819 264.958247,115.865516 262.963909,115.461611 C259.04131,114.586484 255.010584,114.097442 251.134038,113.121339 L239.083909,111.626495 C233.563436,110.739488 227.800679,111.291887 222.280206,111.626495 C220.221793,108.377436 218.533814,104.977903 215.532294,102.097111 C214.392958,101.673407 214.326881,103.364263 213.233599,103.245468 C212.905214,103.883004 212.182367,104.26315 211.567646,104.478962 C210.23208,105.498624 209.048692,106.688559 207.448816,107.163741 C206.77002,107.704261 205.718788,107.488449 205.236222,108.357637 C204.076863,108.205182 203.572271,109.569351 202.452959,109.494114 C202.322806,109.622809 202.124573,109.719826 202.014444,109.852481 C203.001602,110.9355 203.898654,112.071978 204.557426,113.295572 L204.33917,113.501484 C199.497493,114.119221 194.765945,115.2359 189.924268,115.386374 C189.419677,115.657624 188.610728,115.582387 188.106137,115.507149 L187.625573,115.75662 L174.67639,117.251464 L167.754273,117.835542 C163.875726,115.408153 159.736873,113.697497 155.375759,112.410545 C155.309682,112.301649 155.135478,112.27987 155.223581,112.107617 C155.245607,112.216512 155.113452,112.226412 155.091426,112.303629 C153.603682,111.913584 152.17801,111.4681 150.994622,110.39696 C150.972597,110.244506 151.018651,110.103931 150.86447,110.026714 C150.646214,109.951477 150.514059,110.222727 150.558111,110.39696 C150.536085,112.919386 152.312167,114.719139 153.449501,116.776282 C155.836299,119.528379 158.947948,121.36773 161.839338,123.383295 C158.575511,126.479899 154.610863,129.39435 152.133958,133.16413 C151.541263,133.888782 149.94339,134.257049 150.445979,135.480643 C155.441837,135.642997 159.867025,133.789786 164.292214,132.275143 C166.747093,131.27924 168.499147,128.994405 170.687713,127.553019 C171.234354,127.553019 171.432586,127.107536 171.895129,126.913503 C174.48016,126.804607 176.670728,127.952964 179.189682,128.202435 C179.147632,128.917188 178.140452,129.317133 178.422783,130.184341 C183.352563,131.570289 188.172214,133.368062 192.883738,135.417285 C194.153227,135.480643 194.569715,133.966 195.642974,133.391821 L196.804335,132.492935 C200.638831,133.566055 204.845764,133.815525 208.896514,134.356045 C208.832439,135.049019 207.847284,135.480643 207.274612,135.947906 C206.836098,136.393389 206.027149,136.413188 205.894994,136.967567 C207.889333,137.682321 210.19003,137.779337 212.380599,138.028808 C214.154679,137.96347 215.600374,136.999246 216.783762,135.722194 C223.639801,136.858671 231.284765,136.328051 238.252935,135.947906 C245.393307,135.102477 252.777966,134.053116 259.589953,132.027652 C262.877808,130.804058 266.315839,129.645801 269.645744,128.442006 C272.429007,126.559096 275.867038,123.904016 276.349604,120.449045 L276.151372,120.348069 Z" id="Path" fill="#2D4359"></path>
                    </g>
                </g>
            </g>
        </g>
    </g>
</svg>