<?xml version="1.0" encoding="UTF-8"?>
<svg width="101px" height="193px" viewBox="0 0 101 193" version="1.1" xmlns="http://www.w3.org/2000/svg" xmlns:xlink="http://www.w3.org/1999/xlink">
    <!-- Generator: Sketch 48.2 (47327) - http://www.bohemiancoding.com/sketch -->
    <title>Group 9</title>
    <desc>Created with Sketch.</desc>
    <defs></defs>
    <g id="Aquabyte-Homepage-Final" stroke="none" stroke-width="1" fill="none" fill-rule="evenodd" transform="translate(-332.000000, -4389.000000)" opacity="0.379812047">
        <g id="Get-in-touch" transform="translate(0.000000, 3978.000000)" fill="#B4CCE4">
            <g id="Group-11" transform="translate(382.500000, 507.500000) scale(-1, 1) translate(-382.500000, -507.500000) translate(332.000000, 411.000000)">
                <g id="Group-9">
                    <path d="M39.9370691,173.861902 L39.5760108,173.861902 C39.5550338,173.671204 39.659283,173.431723 39.5963521,173.247994 C39.0401444,172.828585 38.2125073,173.068066 37.6423149,172.679701 C37.0301686,172.5758 36.3836963,172.427549 35.750573,172.298306 C34.5053034,172.018277 33.2257078,171.861791 31.9950585,171.549452 L28.1696207,171.071123 C26.4170896,170.787293 24.5876429,170.964053 22.8351118,171.071123 C22.1816472,170.03147 21.6457808,168.943668 20.6929175,168.021856 C20.3312236,167.886277 20.3102466,168.427327 19.963173,168.389314 C19.8589238,168.593316 19.6294484,168.714958 19.4342989,168.784014 C19.0103097,169.110292 18.6346311,169.491054 18.126734,169.643106 C17.9112433,169.816064 17.5775186,169.747007 17.4243231,170.025135 C17.0562725,169.976352 16.8960847,170.412866 16.5407474,170.388792 C16.4994291,170.429972 16.4364982,170.461016 16.4015366,170.503464 C16.7149199,170.850015 16.9996983,171.213671 17.2088324,171.605204 L17.1395448,171.671093 C15.6025045,171.86876 14.1004258,172.226081 12.5633855,172.274231 C12.4031976,172.361027 12.1463886,172.336952 11.9862008,172.312877 L11.8336409,172.392704 L7.72278911,172.871033 L5.52529186,173.05793 C4.29400687,172.2812 2.98008532,171.733814 1.59560484,171.322008 C1.57462786,171.287163 1.51932492,171.280194 1.54729422,171.225075 C1.55428655,171.25992 1.5123326,171.263088 1.50534027,171.287796 C1.03304046,171.162987 0.580446286,171.020439 0.204767699,170.67769 C0.197775373,170.628906 0.21239569,170.583924 0.163449411,170.559216 C0.0941618201,170.535141 0.0522078661,170.621937 0.0661925174,170.67769 C0.0592001918,171.48483 0.623035906,172.060725 0.984094176,172.718981 C1.74180801,173.599613 2.72963293,174.188179 3.64753458,174.833131 C2.61139906,175.824001 1.35278044,176.756583 0.566461635,177.962859 C0.378304508,178.194738 -0.128956935,178.312578 0.0305952232,178.70411 C1.61658181,178.756061 3.02140361,178.16306 4.4262254,177.678396 C5.20555187,177.359721 5.7617596,176.628607 6.4565425,176.167384 C6.63007931,176.167384 6.69301024,176.024835 6.83984908,175.962748 C7.66049384,175.927903 8.35591241,176.29536 9.1555802,176.375187 C9.14223122,176.603898 8.82249124,176.731875 8.91212014,177.009369 C10.4771298,177.452853 12.0071777,178.028114 13.5028998,178.683837 C13.905912,178.70411 14.0381305,178.219446 14.3788475,178.035717 L14.7475337,177.748086 C15.9648341,178.091469 17.3003683,178.171296 18.5863205,178.344255 C18.5659792,178.565997 18.2532315,178.70411 18.0714311,178.853628 C17.9322202,178.996176 17.6754112,179.002511 17.6334572,179.179905 C18.2665805,179.408616 18.9969607,179.43966 19.6923793,179.519487 C20.2555793,179.49858 20.7145302,179.190042 21.0902088,178.781403 C23.266729,179.14506 25.6937017,178.975269 27.9058193,178.853628 C30.1726041,178.583103 32.5169402,178.247322 34.6794758,177.599202 C35.7232394,177.20767 36.8146778,176.837044 37.8717903,176.451847 C38.755366,175.849343 39.8468045,174.999755 40,173.894213 L39.9370691,173.861902 Z" id="Path-Copy-11"></path>
                    <path d="M100.880431,11.1376142 L100.194421,11.1376142 C100.154564,10.7752881 100.352638,10.3202738 100.233069,9.97118883 C99.1762743,9.17431205 97.6037639,9.62932628 96.5203984,8.89143283 C95.3573203,8.69401924 94.129023,8.41234376 92.9260887,8.16678053 C90.5600764,7.63472684 88.1288448,7.33740273 85.7906111,6.74395824 L78.5222792,5.83513351 C75.1924702,5.29585737 71.7165216,5.63170122 68.3867125,5.83513351 C67.1451297,3.85979393 66.1269836,1.79297001 64.3165433,0.0415263235 C63.6293248,-0.216074328 63.5894686,0.811920796 62.9300287,0.739696314 C62.7319552,1.12730103 62.2959519,1.35841938 61.9251679,1.48962718 C61.1195885,2.10955399 60.4057991,2.83300255 59.4407946,3.12190047 C59.0313622,3.45052186 58.3972854,3.31931406 58.1062139,3.84775651 C57.4069178,3.75506843 57.1025609,4.58444623 56.4274201,4.53870406 C56.3489154,4.61694725 56.2293466,4.67593057 56.1629195,4.75658124 C56.7583478,5.41502777 57.2994267,6.10597531 57.6967815,6.84988748 L57.5651351,6.97507658 C54.6447585,7.35064388 51.790809,8.02955401 48.8704324,8.12103835 C48.5660755,8.28595092 48.0781383,8.24020875 47.7737814,8.19446658 L47.4839178,8.34613799 L39.6732993,9.25496272 L35.4980545,9.61006642 C33.1586131,8.13427951 30.6621621,7.09424697 28.0316492,6.31181509 C27.9917929,6.24560931 27.8867174,6.23236816 27.939859,6.12764266 C27.9531444,6.19384843 27.8734319,6.19986714 27.8601465,6.24681305 C26.9627769,6.009676 26.1028479,5.7388342 25.3890586,5.08761012 C25.3757732,4.99492203 25.4035518,4.9094564 25.3105539,4.86251048 C25.1789075,4.81676831 25.0991949,4.98168088 25.1257658,5.08761012 C25.1124804,6.62117662 26.1837682,7.71537752 26.8697789,8.96606479 C28.3094352,10.6392653 30.1863026,11.757541 31.9303157,12.9829497 C29.9616582,14.8656012 27.5702828,16.6375085 26.0762771,18.9294321 C25.7187786,19.3700014 24.7549818,19.5938973 25.0581309,20.3378095 C28.0715054,20.4365162 30.7406669,19.3098143 33.4098283,18.3889522 C34.8905486,17.7834703 35.9473432,16.3943527 37.2674308,15.518029 C37.5971507,15.518029 37.7167195,15.2471872 37.9957133,15.1292206 C39.5549383,15.0630148 40.8762336,15.7611848 42.3956024,15.9128562 C42.3702393,16.3474068 41.7627333,16.5905626 41.9330283,17.1178013 C44.9065465,17.9604203 47.8136377,19.0534174 50.6555095,20.2992897 C51.4212328,20.3378095 51.672448,19.4169473 52.3198102,19.0678623 L53.0203141,18.5213637 C55.3331847,19.1737916 57.8706997,19.325463 60.314009,19.6540844 C60.2753605,20.0753938 59.6811399,20.3378095 59.3357191,20.6218924 C59.0712184,20.8927342 58.5832812,20.9047716 58.5035687,21.2418192 C59.706503,21.6763698 61.0942254,21.7353532 62.4155207,21.8870246 C63.4856008,21.8473011 64.3576073,21.2610791 65.0713967,20.4846659 C69.2067852,21.1756134 73.8180332,20.8530108 78.0210566,20.6218924 C82.3279478,20.1078949 86.7821864,19.4699119 90.8910041,18.2384845 C92.8741548,17.4945724 94.9478879,16.7903837 96.9564016,16.0585089 C98.6351955,14.9137509 100.708929,13.2995337 101,11.199005 L100.880431,11.1376142 Z" id="Path-Copy-3"></path>
                    <path d="M65.9370691,186.861902 L65.5760108,186.861902 C65.5550338,186.671204 65.659283,186.431723 65.5963521,186.247994 C65.0401444,185.828585 64.2125073,186.068066 63.6423149,185.679701 C63.0301686,185.5758 62.3836963,185.427549 61.750573,185.298306 C60.5053034,185.018277 59.2257078,184.861791 57.9950585,184.549452 L54.1696207,184.071123 C52.4170896,183.787293 50.5876429,183.964053 48.8351118,184.071123 C48.1816472,183.03147 47.6457808,181.943668 46.6929175,181.021856 C46.3312236,180.886277 46.3102466,181.427327 45.963173,181.389314 C45.8589238,181.593316 45.6294484,181.714958 45.4342989,181.784014 C45.0103097,182.110292 44.6346311,182.491054 44.126734,182.643106 C43.9112433,182.816064 43.5775186,182.747007 43.4243231,183.025135 C43.0562725,182.976352 42.8960847,183.412866 42.5407474,183.388792 C42.4994291,183.429972 42.4364982,183.461016 42.4015366,183.503464 C42.7149199,183.850015 42.9996983,184.213671 43.2088324,184.605204 L43.1395448,184.671093 C41.6025045,184.86876 40.1004258,185.226081 38.5633855,185.274231 C38.4031976,185.361027 38.1463886,185.336952 37.9862008,185.312877 L37.8336409,185.392704 L33.7227891,185.871033 L31.5252919,186.05793 C30.2940069,185.2812 28.9800853,184.733814 27.5956048,184.322008 C27.5746279,184.287163 27.5193249,184.280194 27.5472942,184.225075 C27.5542866,184.25992 27.5123326,184.263088 27.5053403,184.287796 C27.0330405,184.162987 26.5804463,184.020439 26.2047677,183.67769 C26.1977754,183.628906 26.2123957,183.583924 26.1634494,183.559216 C26.0941618,183.535141 26.0522079,183.621937 26.0661925,183.67769 C26.0592002,184.48483 26.6230359,185.060725 26.9840942,185.718981 C27.741808,186.599613 28.7296329,187.188179 29.6475346,187.833131 C28.6113991,188.824001 27.3527804,189.756583 26.5664616,190.962859 C26.3783045,191.194738 25.8710431,191.312578 26.0305952,191.70411 C27.6165818,191.756061 29.0214036,191.16306 30.4262254,190.678396 C31.2055519,190.359721 31.7617596,189.628607 32.4565425,189.167384 C32.6300793,189.167384 32.6930102,189.024835 32.8398491,188.962748 C33.6604938,188.927903 34.3559124,189.29536 35.1555802,189.375187 C35.1422312,189.603898 34.8224912,189.731875 34.9121201,190.009369 C36.4771298,190.452853 38.0071777,191.028114 39.5028998,191.683837 C39.905912,191.70411 40.0381305,191.219446 40.3788475,191.035717 L40.7475337,190.748086 C41.9648341,191.091469 43.3003683,191.171296 44.5863205,191.344255 C44.5659792,191.565997 44.2532315,191.70411 44.0714311,191.853628 C43.9322202,191.996176 43.6754112,192.002511 43.6334572,192.179905 C44.2665805,192.408616 44.9969607,192.43966 45.6923793,192.519487 C46.2555793,192.49858 46.7145302,192.190042 47.0902088,191.781403 C49.266729,192.14506 51.6937017,191.975269 53.9058193,191.853628 C56.1726041,191.583103 58.5169402,191.247322 60.6794758,190.599202 C61.7232394,190.20767 62.8146778,189.837044 63.8717903,189.451847 C64.755366,188.849343 65.8468045,187.999755 66,186.894213 L65.9370691,186.861902 Z" id="Path-Copy-16"></path>
                </g>
            </g>
        </g>
    </g>
</svg>