<?xml version="1.0" encoding="UTF-8"?>
<svg width="24px" height="16px" viewBox="0 0 24 16" version="1.1" xmlns="http://www.w3.org/2000/svg" xmlns:xlink="http://www.w3.org/1999/xlink">
    <!-- Generator: Sketch 48.2 (47327) - http://www.bohemiancoding.com/sketch -->
    <title>Page 1</title>
    <desc>Created with Sketch.</desc>
    <defs></defs>
    <g id="Aquabyte-Homepage-Final" stroke="none" stroke-width="1" fill="none" fill-rule="evenodd" transform="translate(-1284.000000, -54.000000)">
        <g id="Header" transform="translate(0.000000, -10.000000)">
            <g id="Right" transform="translate(1049.000000, 48.000000)">
                <g id="Page-1" transform="translate(235.000000, 16.000000)">
                    <polygon id="Fill-1" fill="#CB001C" points="0 15.66248 23.6929412 15.66248 23.6929412 14.45768 0 14.45768"></polygon>
                    <polygon id="Fill-2" fill="#FFFFFF" points="0 14.45768 23.6929412 14.45768 23.6929412 13.25288 0 13.25288"></polygon>
                    <polygon id="Fill-3" fill="#CB001C" points="0 13.25368 23.6929412 13.25368 23.6929412 12.04968 0 12.04968"></polygon>
                    <polygon id="Fill-4" fill="#FFFFFF" points="0 12.04968 23.6929412 12.04968 23.6929412 10.84408 0 10.84408"></polygon>
                    <polygon id="Fill-5" fill="#CB001C" points="0 10.84408 23.6929412 10.84408 23.6929412 9.63848 0 9.63848"></polygon>
                    <polygon id="Fill-6" fill="#FFFFFF" points="0 9.63928 23.6929412 9.63928 23.6929412 8.43528 0 8.43528"></polygon>
                    <polygon id="Fill-7" fill="#CB001C" points="0 8.43528 23.6929412 8.43528 23.6929412 7.22888 0 7.22888"></polygon>
                    <polygon id="Fill-8" fill="#FFFFFF" points="0 7.22888 23.6929412 7.22888 23.6929412 6.02488 0 6.02488"></polygon>
                    <polygon id="Fill-9" fill="#CB001C" points="0 6.02568 23.6929412 6.02568 23.6929412 4.82008 0 4.82008"></polygon>
                    <polygon id="Fill-10" fill="#FFFFFF" points="0 4.82008 23.6929412 4.82008 23.6929412 3.61448 0 3.61448"></polygon>
                    <polygon id="Fill-11" fill="#CB001C" points="0 3.61448 23.6929412 3.61448 23.6929412 2.40968 0 2.40968"></polygon>
                    <polygon id="Fill-12" fill="#FFFFFF" points="0 2.41048 23.6929412 2.41048 23.6929412 1.20568 0 1.20568"></polygon>
                    <polygon id="Fill-13" fill="#CB001C" points="0 1.20568 23.6929412 1.20568 23.6929412 8e-05 0 8e-05"></polygon>
                    <polygon id="Fill-14" fill="#2A3560" points="0 8.43528 10.8197647 8.43528 10.8197647 8e-05 0 8e-05"></polygon>
                    <polygon id="Fill-15" fill="#FFFFFF" points="0.884964706 1.24952 0.591317647 1.24952 0.831317647 1.44632 0.737435294 1.76472 0.977435294 1.56792 1.21743529 1.76472 1.12637647 1.44632 1.36637647 1.24952 1.06990588 1.24952 0.977435294 0.92952"></polygon>
                    <polygon id="Fill-16" fill="#FFFFFF" points="0.884964706 2.6564 0.591317647 2.6564 0.831317647 2.8524 0.737435294 3.1724 0.977435294 2.9756 1.21743529 3.1724 1.12637647 2.8524 1.36637647 2.6564 1.06990588 2.6564 0.977435294 2.338"></polygon>
                    <polygon id="Fill-17" fill="#FFFFFF" points="0.884964706 4.064 0.591317647 4.064 0.831317647 4.2616 0.737435294 4.58 0.977435294 4.3832 1.21743529 4.58 1.12637647 4.2616 1.36637647 4.064 1.06990588 4.064 0.977435294 3.7456"></polygon>
                    <polygon id="Fill-18" fill="#FFFFFF" points="0.884964706 5.47232 0.591317647 5.47232 0.831317647 5.66992 0.737435294 5.98752 0.977435294 5.79152 1.21743529 5.98752 1.12637647 5.66992 1.36637647 5.47232 1.06990588 5.47232 0.977435294 5.15312"></polygon>
                    <polygon id="Fill-19" fill="#FFFFFF" points="0.884964706 6.88136 0.591317647 6.88136 0.831317647 7.07656 0.737435294 7.39576 0.977435294 7.19816 1.21743529 7.39576 1.12637647 7.07656 1.36637647 6.88136 1.06990588 6.88136 0.977435294 6.56056"></polygon>
                    <polygon id="Fill-20" fill="#FFFFFF" points="1.84334118 1.67112 1.93157647 1.99032 2.22945882 1.99032 1.99087059 2.18792 2.08051765 2.50632 1.84334118 2.31032 1.60475294 2.50632 1.6944 2.18792 1.45581176 1.99032 1.75228235 1.99032"></polygon>
                    <polygon id="Fill-21" fill="#FFFFFF" points="1.84334118 3.07968 1.93157647 3.39728 2.22945882 3.39728 1.99087059 3.59568 2.08051765 3.91328 1.84334118 3.71808 1.60475294 3.91328 1.6944 3.59568 1.45581176 3.39728 1.75228235 3.39728"></polygon>
                    <polygon id="Fill-22" fill="#FFFFFF" points="1.84334118 4.48752 1.93157647 4.80592 2.22945882 4.80592 1.99087059 5.00352 2.08051765 5.32192 1.84334118 5.12512 1.60475294 5.32192 1.6944 5.00352 1.45581176 4.80592 1.75228235 4.80592"></polygon>
                    <polygon id="Fill-23" fill="#FFFFFF" points="1.84334118 5.89608 1.93157647 6.21368 2.22945882 6.21368 1.99087059 6.41128 2.08051765 6.72888 1.84334118 6.53128 1.60475294 6.72888 1.6944 6.41128 1.45581176 6.21368 1.75228235 6.21368"></polygon>
                    <polygon id="Fill-24" fill="#FFFFFF" points="2.71743529 0.92968 2.80990588 1.24888 3.10637647 1.24888 2.86637647 1.44648 2.95884706 1.76488 2.71743529 1.56808 2.48025882 1.76488 2.57131765 1.44648 2.33131765 1.24888 2.62637647 1.24888"></polygon>
                    <polygon id="Fill-25" fill="#FFFFFF" points="2.71743529 2.33832 2.80990588 2.65592 3.10637647 2.65592 2.86637647 2.85272 2.95884706 3.17272 2.71743529 2.97512 2.48025882 3.17272 2.57131765 2.85272 2.33131765 2.65592 2.62637647 2.65592"></polygon>
                    <polygon id="Fill-26" fill="#FFFFFF" points="2.71743529 3.74608 2.80990588 4.06368 3.10637647 4.06368 2.86637647 4.26128 2.95884706 4.58048 2.71743529 4.38288 2.48025882 4.58048 2.57131765 4.26128 2.33131765 4.06368 2.62637647 4.06368"></polygon>
                    <polygon id="Fill-27" fill="#FFFFFF" points="2.71743529 5.15312 2.80990588 5.47232 3.10637647 5.47232 2.86637647 5.66992 2.95884706 5.98752 2.71743529 5.79152 2.48025882 5.98752 2.57131765 5.66992 2.33131765 5.47232 2.62637647 5.47232"></polygon>
                    <polygon id="Fill-28" fill="#FFFFFF" points="2.71743529 6.56096 2.80990588 6.88096 3.10637647 6.88096 2.86637647 7.07696 2.95884706 7.39536 2.71743529 7.19856 2.48025882 7.39536 2.57131765 7.07696 2.33131765 6.88096 2.62637647 6.88096"></polygon>
                    <polygon id="Fill-29" fill="#FFFFFF" points="3.5832 1.67112 3.67425882 1.99032 3.97214118 1.99032 3.73072941 2.18792 3.8232 2.50632 3.5832 2.31032 3.34461176 2.50632 3.43708235 2.18792 3.19567059 1.99032 3.49214118 1.99032"></polygon>
                    <polygon id="Fill-30" fill="#FFFFFF" points="3.5832 3.07968 3.67425882 3.39728 3.97214118 3.39728 3.73072941 3.59568 3.8232 3.91328 3.5832 3.71808 3.34461176 3.91328 3.43708235 3.59568 3.19567059 3.39728 3.49214118 3.39728"></polygon>
                    <polygon id="Fill-31" fill="#FFFFFF" points="3.5832 4.48752 3.67425882 4.80592 3.97214118 4.80592 3.73072941 5.00352 3.8232 5.32192 3.5832 5.12512 3.34461176 5.32192 3.43708235 5.00352 3.19567059 4.80592 3.49214118 4.80592"></polygon>
                    <polygon id="Fill-32" fill="#FFFFFF" points="3.5832 5.89608 3.67425882 6.21368 3.97214118 6.21368 3.73072941 6.41128 3.8232 6.72888 3.5832 6.53128 3.34461176 6.72888 3.43708235 6.41128 3.19567059 6.21368 3.49214118 6.21368"></polygon>
                    <polygon id="Fill-33" fill="#FFFFFF" points="4.46004706 0.92968 4.55251765 1.24888 4.84616471 1.24888 4.60616471 1.44648 4.70145882 1.76488 4.46004706 1.56808 4.22004706 1.76488 4.31110588 1.44648 4.07392941 1.24888 4.36898824 1.24888"></polygon>
                    <polygon id="Fill-34" fill="#FFFFFF" points="4.46004706 2.33832 4.55251765 2.65592 4.84616471 2.65592 4.60616471 2.85272 4.70145882 3.17272 4.46004706 2.97512 4.22004706 3.17272 4.31110588 2.85272 4.07392941 2.65592 4.36898824 2.65592"></polygon>
                    <polygon id="Fill-35" fill="#FFFFFF" points="4.46004706 3.74608 4.55251765 4.06368 4.84616471 4.06368 4.60616471 4.26128 4.70145882 4.58048 4.46004706 4.38288 4.22004706 4.58048 4.31110588 4.26128 4.07392941 4.06368 4.36898824 4.06368"></polygon>
                    <polygon id="Fill-36" fill="#FFFFFF" points="4.46004706 5.15312 4.55251765 5.47232 4.84616471 5.47232 4.60616471 5.66992 4.70145882 5.98752 4.46004706 5.79152 4.22004706 5.98752 4.31110588 5.66992 4.07392941 5.47232 4.36898824 5.47232"></polygon>
                    <polygon id="Fill-37" fill="#FFFFFF" points="4.46004706 6.56096 4.55251765 6.88096 4.84616471 6.88096 4.60616471 7.07696 4.70145882 7.39536 4.46004706 7.19856 4.22004706 7.39536 4.31110588 7.07696 4.07392941 6.88096 4.36898824 6.88096"></polygon>
                    <polygon id="Fill-38" fill="#FFFFFF" points="5.32588235 1.67112 5.41694118 1.99032 5.712 1.99032 5.47341176 2.18792 5.56305882 2.50632 5.32588235 2.31032 5.08729412 2.50632 5.17694118 2.18792 4.93835294 1.99032 5.23341176 1.99032"></polygon>
                    <polygon id="Fill-39" fill="#FFFFFF" points="5.32588235 3.07968 5.41694118 3.39728 5.712 3.39728 5.47341176 3.59568 5.56305882 3.91328 5.32588235 3.71808 5.08729412 3.91328 5.17694118 3.59568 4.93835294 3.39728 5.23341176 3.39728"></polygon>
                    <polygon id="Fill-40" fill="#FFFFFF" points="5.32588235 4.48752 5.41694118 4.80592 5.712 4.80592 5.47341176 5.00352 5.56305882 5.32192 5.32588235 5.12512 5.08729412 5.32192 5.17694118 5.00352 4.93835294 4.80592 5.23341176 4.80592"></polygon>
                    <polygon id="Fill-41" fill="#FFFFFF" points="5.32588235 5.89608 5.41694118 6.21368 5.712 6.21368 5.47341176 6.41128 5.56305882 6.72888 5.32588235 6.53128 5.08729412 6.72888 5.17694118 6.41128 4.93835294 6.21368 5.23341176 6.21368"></polygon>
                    <polygon id="Fill-42" fill="#FFFFFF" points="6.19990588 0.92968 6.29237647 1.24888 6.58743529 1.24888 6.34884706 1.44648 6.44131765 1.76488 6.19990588 1.56808 5.96272941 1.76488 6.05237647 1.44648 5.81378824 1.24888 6.10884706 1.24888"></polygon>
                    <polygon id="Fill-43" fill="#FFFFFF" points="6.19990588 2.33832 6.29237647 2.65592 6.58743529 2.65592 6.34884706 2.85272 6.44131765 3.17272 6.19990588 2.97512 5.96272941 3.17272 6.05237647 2.85272 5.81378824 2.65592 6.10884706 2.65592"></polygon>
                    <polygon id="Fill-44" fill="#FFFFFF" points="6.19990588 3.74608 6.29237647 4.06368 6.58743529 4.06368 6.34884706 4.26128 6.44131765 4.58048 6.19990588 4.38288 5.96272941 4.58048 6.05237647 4.26128 5.81378824 4.06368 6.10884706 4.06368"></polygon>
                    <polygon id="Fill-45" fill="#FFFFFF" points="6.19990588 5.15312 6.29237647 5.47232 6.58743529 5.47232 6.34884706 5.66992 6.44131765 5.98752 6.19990588 5.79152 5.96272941 5.98752 6.05237647 5.66992 5.81378824 5.47232 6.10884706 5.47232"></polygon>
                    <polygon id="Fill-46" fill="#FFFFFF" points="6.19990588 6.56096 6.29237647 6.88096 6.58743529 6.88096 6.34884706 7.07696 6.44131765 7.39536 6.19990588 7.19856 5.96272941 7.39536 6.05237647 7.07696 5.81378824 6.88096 6.10884706 6.88096"></polygon>
                    <polygon id="Fill-47" fill="#FFFFFF" points="7.06574118 1.67112 7.1568 1.99032 7.45468235 1.99032 7.21468235 2.18792 7.30574118 2.50632 7.06574118 2.31032 6.82715294 2.50632 6.91962353 2.18792 6.67962353 1.99032 6.97609412 1.99032"></polygon>
                    <polygon id="Fill-48" fill="#FFFFFF" points="7.06574118 3.07968 7.1568 3.39728 7.45468235 3.39728 7.21468235 3.59568 7.30574118 3.91328 7.06574118 3.71808 6.82715294 3.91328 6.91962353 3.59568 6.67962353 3.39728 6.97609412 3.39728"></polygon>
                    <polygon id="Fill-49" fill="#FFFFFF" points="7.06574118 4.48752 7.1568 4.80592 7.45468235 4.80592 7.21468235 5.00352 7.30574118 5.32192 7.06574118 5.12512 6.82715294 5.32192 6.91962353 5.00352 6.67962353 4.80592 6.97609412 4.80592"></polygon>
                    <polygon id="Fill-50" fill="#FFFFFF" points="7.06574118 5.89608 7.1568 6.21368 7.45468235 6.21368 7.21468235 6.41128 7.30574118 6.72888 7.06574118 6.53128 6.82715294 6.72888 6.91962353 6.41128 6.67962353 6.21368 6.97609412 6.21368"></polygon>
                    <polygon id="Fill-51" fill="#FFFFFF" points="7.94258824 0.92968 8.03505882 1.24888 8.33011765 1.24888 8.09152941 1.44648 8.18117647 1.76488 7.94258824 1.56808 7.70541176 1.76488 7.79505882 1.44648 7.55647059 1.24888 7.85152941 1.24888"></polygon>
                    <polygon id="Fill-52" fill="#FFFFFF" points="7.94258824 2.33832 8.03505882 2.65592 8.33011765 2.65592 8.09152941 2.85272 8.18117647 3.17272 7.94258824 2.97512 7.70541176 3.17272 7.79505882 2.85272 7.55647059 2.65592 7.85152941 2.65592"></polygon>
                    <polygon id="Fill-53" fill="#FFFFFF" points="7.94258824 3.74608 8.03505882 4.06368 8.33011765 4.06368 8.09152941 4.26128 8.18117647 4.58048 7.94258824 4.38288 7.70541176 4.58048 7.79505882 4.26128 7.55647059 4.06368 7.85152941 4.06368"></polygon>
                    <polygon id="Fill-54" fill="#FFFFFF" points="7.94258824 5.15312 8.03505882 5.47232 8.33011765 5.47232 8.09152941 5.66992 8.18117647 5.98752 7.94258824 5.79152 7.70541176 5.98752 7.79505882 5.66992 7.55647059 5.47232 7.85152941 5.47232"></polygon>
                    <polygon id="Fill-55" fill="#FFFFFF" points="7.94258824 6.56096 8.03505882 6.88096 8.33011765 6.88096 8.09152941 7.07696 8.18117647 7.39536 7.94258824 7.19856 7.70541176 7.39536 7.79505882 7.07696 7.55647059 6.88096 7.85152941 6.88096"></polygon>
                    <polygon id="Fill-56" fill="#FFFFFF" points="8.80842353 1.67112 8.89807059 1.99032 9.19454118 1.99032 8.95736471 2.18792 9.0456 2.50632 8.80842353 2.31032 8.56701176 2.50632 8.65948235 2.18792 8.42230588 1.99032 8.71595294 1.99032"></polygon>
                    <polygon id="Fill-57" fill="#FFFFFF" points="8.80842353 3.07968 8.89807059 3.39728 9.19454118 3.39728 8.95736471 3.59568 9.0456 3.91328 8.80842353 3.71808 8.56701176 3.91328 8.65948235 3.59568 8.42230588 3.39728 8.71595294 3.39728"></polygon>
                    <polygon id="Fill-58" fill="#FFFFFF" points="8.80842353 4.48752 8.89807059 4.80592 9.19454118 4.80592 8.95736471 5.00352 9.0456 5.32192 8.80842353 5.12512 8.56701176 5.32192 8.65948235 5.00352 8.42230588 4.80592 8.71595294 4.80592"></polygon>
                    <polygon id="Fill-59" fill="#FFFFFF" points="8.80842353 5.89608 8.89807059 6.21368 9.19454118 6.21368 8.95736471 6.41128 9.0456 6.72888 8.80842353 6.53128 8.56701176 6.72888 8.65948235 6.41128 8.42230588 6.21368 8.71595294 6.21368"></polygon>
                    <polygon id="Fill-60" fill="#FFFFFF" points="9.68244706 0.92968 9.77632941 1.24888 10.0699765 1.24888 9.83138824 1.44648 9.92385882 1.76488 9.68244706 1.56808 9.44527059 1.76488 9.53491765 1.44648 9.29632941 1.24888 9.59138824 1.24888"></polygon>
                    <polygon id="Fill-61" fill="#FFFFFF" points="9.68244706 2.33832 9.77632941 2.65592 10.0699765 2.65592 9.83138824 2.85272 9.92385882 3.17272 9.68244706 2.97512 9.44527059 3.17272 9.53491765 2.85272 9.29632941 2.65592 9.59138824 2.65592"></polygon>
                    <polygon id="Fill-62" fill="#FFFFFF" points="9.68244706 3.74608 9.77632941 4.06368 10.0699765 4.06368 9.83138824 4.26128 9.92385882 4.58048 9.68244706 4.38288 9.44527059 4.58048 9.53491765 4.26128 9.29632941 4.06368 9.59138824 4.06368"></polygon>
                    <polygon id="Fill-63" fill="#FFFFFF" points="9.68244706 5.15312 9.77632941 5.47232 10.0699765 5.47232 9.83138824 5.66992 9.92385882 5.98752 9.68244706 5.79152 9.44527059 5.98752 9.53491765 5.66992 9.29632941 5.47232 9.59138824 5.47232"></polygon>
                    <polygon id="Fill-64" fill="#FFFFFF" points="9.68244706 6.56096 9.77632941 6.88096 10.0699765 6.88096 9.83138824 7.07696 9.92385882 7.39536 9.68244706 7.19856 9.44527059 7.39536 9.53491765 7.07696 9.29632941 6.88096 9.59138824 6.88096"></polygon>
                </g>
            </g>
        </g>
    </g>
</svg>