<?xml version="1.0" encoding="UTF-8"?>
<svg width="1440px" height="528px" viewBox="0 0 1440 528" version="1.1" xmlns="http://www.w3.org/2000/svg" xmlns:xlink="http://www.w3.org/1999/xlink">
    <!-- Generator: Sketch 48.2 (47327) - http://www.bohemiancoding.com/sketch -->
    <title>Group 17</title>
    <desc>Created with Sketch.</desc>
    <defs>
        <linearGradient x1="50%" y1="0%" x2="50%" y2="99.5436065%" id="linearGradient-1">
            <stop stop-color="#F1F7FD" offset="0%"></stop>
            <stop stop-color="#E4F0FC" offset="100%"></stop>
        </linearGradient>
        <rect id="path-2" x="52" y="424" width="1440" height="104"></rect>
        <filter x="-0.0%" y="-0.5%" width="100.1%" height="101.9%" filterUnits="objectBoundingBox" id="filter-3">
            <feOffset dx="0" dy="1" in="SourceAlpha" result="shadowOffsetOuter1"></feOffset>
            <feColorMatrix values="0 0 0 0 0.441457035   0 0 0 0 0.534477455   0 0 0 0 0.627497874  0 0 0 0.19995471 0" type="matrix" in="shadowOffsetOuter1"></feColorMatrix>
        </filter>
    </defs>
    <g id="Aquabyte-Homepage-Final" stroke="none" stroke-width="1" fill="none" fill-rule="evenodd" transform="translate(0.000000, -4690.000000)">
        <g id="Contact-Details" transform="translate(-55.000000, 4690.000000)">
            <g id="Group-17" transform="translate(3.000000, 0.000000)">
                <rect id="BG" fill="url(#linearGradient-1)" x="52" y="0" width="1440" height="424"></rect>
                <path d="M16.3783917,390.177511 C288.528728,421.417057 535.03274,421.417057 755.890428,390.177511 C976.748116,358.937964 1223.2441,358.937964 1495.37839,390.177511 L1495.37839,457.747851 L16.3783917,457.747851 L16.3783917,390.177511 Z" id="BG-Copy" fill="#FFFFFF"></path>
                <path d="M13.5072156,378.938226 C295.238097,410.20554 550.419823,410.20554 779.052394,378.938226 C1007.68496,347.670911 1262.85838,347.670911 1544.57265,378.938226 L1532.63809,469.48774 L1.57265278,469.48774 L13.5072156,378.938226 Z" id="BG-Copy-2" fill="#FFFFFF" opacity="0.60716712" transform="translate(773.072653, 412.487740) rotate(-2.000000) translate(-773.072653, -412.487740) "></path>
                <g id="BG">
                    <use fill="black" fill-opacity="1" filter="url(#filter-3)" xlink:href="#path-2"></use>
                    <use fill="#FFFFFF" fill-rule="evenodd" xlink:href="#path-2"></use>
                </g>
            </g>
        </g>
    </g>
</svg>