<?xml version="1.0" encoding="utf-8"?>
<!-- Generator: Adobe Illustrator 22.0.1, SVG Export Plug-In . SVG Version: 6.00 Build 0)  -->
<svg version="1.1" id="Layer_1" xmlns="http://www.w3.org/2000/svg" xmlns:xlink="http://www.w3.org/1999/xlink" width="16px" x="0px" y="0px"
	 viewBox="0 0 24 24" style="enable-background:new 0 0 24 24;" xml:space="preserve">
<style type="text/css">
	.st0{fill:#2D4359;}
</style>
<g>
	<g>
		<path class="st0" d="M22.1,15.8c-1.5,0-2.9-0.2-4.3-0.7c-0.7-0.2-1.5,0-1.9,0.4l-2.7,2.1c-3.1-1.7-5.1-3.7-6.8-6.8l2-2.7
			c0.5-0.5,0.7-1.2,0.5-1.9C8.4,4.8,8.2,3.4,8.2,1.9c0-1-0.9-1.9-1.9-1.9H1.9C0.9,0,0,0.9,0,1.9C0,14.1,9.9,24,22.1,24
			c1,0,1.9-0.9,1.9-1.9v-4.4C24,16.7,23.1,15.8,22.1,15.8z"/>
	</g>
</g>
</svg>
