<?xml version="1.0" encoding="UTF-8"?>
<svg width="30px" height="21px" viewBox="0 0 30 21" version="1.1" xmlns="http://www.w3.org/2000/svg" xmlns:xlink="http://www.w3.org/1999/xlink">
    <!-- Generator: Sketch 48.2 (47327) - http://www.bohemiancoding.com/sketch -->
    <title>Page 1</title>
    <desc>Created with Sketch.</desc>
    <defs></defs>
    <g id="Aquabyte-Homepage-Final" stroke="none" stroke-width="1" fill="none" fill-rule="evenodd" transform="translate(-1174.000000, -838.000000)">
        <path d="M1175.5,838 C1174.6719,838 1174,838.695069 1174,839.551724 C1174,840.408379 1174.6719,841.103448 1175.5,841.103448 L1202.5,841.103448 C1203.3281,841.103448 1204,840.408379 1204,839.551724 C1204,838.695069 1203.3281,838 1202.5,838 L1175.5,838 Z M1175.5,846.793103 C1174.6719,846.793103 1174,847.488172 1174,848.344828 C1174,849.201483 1174.6719,849.896552 1175.5,849.896552 L1202.5,849.896552 C1203.3281,849.896552 1204,849.201483 1204,848.344828 C1204,847.488172 1203.3281,846.793103 1202.5,846.793103 L1175.5,846.793103 Z M1175.5,855.586207 C1174.6719,855.586207 1174,856.281276 1174,857.137931 C1174,857.994586 1174.6719,858.689655 1175.5,858.689655 L1202.5,858.689655 C1203.3281,858.689655 1204,857.994586 1204,857.137931 C1204,856.281276 1203.3281,855.586207 1202.5,855.586207 L1175.5,855.586207 Z" id="Page-1" fill="#2D4359"></path>
    </g>
</svg>