<?xml version="1.0" encoding="UTF-8"?>
<svg width="176px" height="73px" viewBox="0 0 176 73" version="1.1" xmlns="http://www.w3.org/2000/svg" xmlns:xlink="http://www.w3.org/1999/xlink">
    <!-- Generator: Sketch 48.2 (47327) - http://www.bohemiancoding.com/sketch -->
    <title>Group 6</title>
    <desc>Created with Sketch.</desc>
    <defs>
        <linearGradient x1="50%" y1="0%" x2="50%" y2="97.1679688%" id="linearGradient-1">
            <stop stop-color="#FF9F77" offset="0%"></stop>
            <stop stop-color="#F28C62" offset="100%"></stop>
        </linearGradient>
        <linearGradient x1="50%" y1="100%" x2="100%" y2="0%" id="linearGradient-2">
            <stop stop-color="#DBE8F3" offset="0%"></stop>
            <stop stop-color="#B4CCE4" offset="100%"></stop>
        </linearGradient>
        <linearGradient x1="0%" y1="0%" x2="100%" y2="100%" id="linearGradient-3">
            <stop stop-color="#DBE8F3" offset="0%"></stop>
            <stop stop-color="#B4CCE4" offset="100%"></stop>
        </linearGradient>
        <rect id="path-4" x="16" y="32" width="8" height="40"></rect>
    </defs>
    <g id="Aquabyte-Homepage-Final" stroke="none" stroke-width="1" fill="none" fill-rule="evenodd" transform="translate(-1032.000000, -1120.000000)">
        <g id="Machine-Learning" transform="translate(0.000000, 800.000000)">
            <g id="Feed-Optimization" transform="translate(1032.000000, 320.000000)">
                <g id="Group-6">
                    <g id="Group" transform="translate(0.000000, 1.000000)" fill-rule="nonzero">
                        <g>
                            <g transform="translate(0.000000, 32.000000)" fill="url(#linearGradient-1)">
                                <polygon id="Shape" points="6.94734272 8.42105263 33.0526573 8.42105263 33.6842105 10.5263158 6.31578947 10.5263158"></polygon>
                                <polygon id="Shape" points="2.10526316 37.8947368 37.8947368 37.8947368 38.9473684 40 1.05263158 40"></polygon>
                                <path d="M20,35.7894737 C13.605124,35.7894737 8.42105263,30.6054023 8.42105263,24.2105263 C8.42105263,17.8156503 13.605124,12.6315789 20,12.6315789 C26.394876,12.6315789 31.5789474,17.8156503 31.5789474,24.2105263 C31.5789474,30.6054023 26.394876,35.7894737 20,35.7894737 Z M20,33.6842105 C25.2321714,33.6842105 29.4736842,29.4426977 29.4736842,24.2105263 C29.4736842,18.978355 25.2321714,14.7368421 20,14.7368421 C14.7678287,14.7368421 10.5263158,18.978355 10.5263158,24.2105263 C10.5263158,29.4426977 14.7678287,33.6842105 20,33.6842105 Z" id="Shape"></path>
                                <circle id="Oval" cx="20" cy="24.2105263" r="2.10526316"></circle>
                                <rect id="Rectangle-path" x="18.9473684" y="16.8421053" width="2.10526316" height="8.42105263"></rect>
                                <rect id="Rectangle-path" x="14.7368421" y="2.10526316" width="2.10526316" height="8.42105263"></rect>
                                <rect id="Rectangle-path" x="23.1578947" y="2.10526316" width="2.10526316" height="8.42105263"></rect>
                                <path d="M1.67725292,3.16589878 C2.28171366,3.77035954 3.35018232,4.21052632 4.20858282,4.21052632 L35.7914173,4.21052632 C36.6504718,4.21052632 37.7176785,3.77096724 38.3227472,3.16589878 L39.6916914,1.79695451 C40.1027695,1.38587631 40.1027695,0.719386853 39.6916914,0.308308651 C39.2806131,-0.10276955 38.6141238,-0.10276955 38.2030455,0.308308651 L36.8341013,1.67725292 C36.6249198,1.88643443 36.0936246,2.10526316 35.7914173,2.10526316 L4.20858282,2.10526316 C3.90708211,2.10526316 3.37451065,1.8858648 3.16589878,1.67725292 L1.79695451,0.308308651 C1.38587631,-0.10276955 0.719386853,-0.10276955 0.308308651,0.308308651 C-0.10276955,0.719386853 -0.10276955,1.38587631 0.308308651,1.79695451 L1.67725292,3.16589878 Z" id="Shape"></path>
                                <path d="M37.9157792,39.1567888 C38.0314389,39.7265198 38.5870579,40.0946173 39.1567888,39.9789577 C39.7265198,39.8632979 40.0946173,39.3076789 39.9789577,38.737948 L33.9955781,9.26426383 C33.8799185,8.69453284 33.3242996,8.32643531 32.7545686,8.44209497 C32.1848375,8.55775465 31.81674,9.11337358 31.9323998,9.68310459 L37.9157792,39.1567888 Z" id="Shape"></path>
                                <path d="M8.06760032,9.68310459 C8.18326,9.11337358 7.81516246,8.55775465 7.24543145,8.44209497 C6.67570044,8.32643531 6.12008152,8.69453284 6.00442185,9.26426383 L0.0210423442,38.737948 C-0.0946173331,39.3076789 0.273480206,39.8632979 0.843211208,39.9789577 C1.41294221,40.0946173 1.96856114,39.7265198 2.08422081,39.1567888 L8.06760032,9.68310459 Z" id="Shape"></path>
                            </g>
                            <path d="M21.5117854,7.05711577 C21.1206359,7.05711577 20.7404022,6.94431917 20.4120185,6.73146108 L18.8856259,5.7381233 C18.4326202,5.44339671 18.1215199,4.99039102 18.0087233,4.46097473 C17.8959267,3.93155845 17.9959882,3.39031671 18.2925341,2.93731102 C18.8810776,2.0322093 20.1818771,1.75294675 21.0915271,2.34330959 L22.6179197,3.33573771 C23.0709254,3.63137396 23.3820257,4.08437964 23.4948223,4.61106698 C23.6076189,5.14139292 23.5066478,5.68263465 23.2110115,6.13564034 C22.8371454,6.71235843 22.2013001,7.05711577 21.5117854,7.05711577 Z M19.9908506,3.56405986 C19.8271136,3.56405986 19.6770214,3.64592836 19.5878757,3.78237585 C19.5187423,3.88789525 19.4950914,4.01524625 19.5223809,4.13986829 C19.5487607,4.26539999 19.6224424,4.37273869 19.7306907,4.44278174 L21.2552641,5.43520986 C21.4663029,5.57165736 21.7774032,5.50616256 21.9147603,5.29421411 C21.985713,5.18505612 22.0093639,5.05861477 21.9829841,4.93490237 C21.9566042,4.80937068 21.8829226,4.70294163 21.7746742,4.63198893 L20.2501009,3.64047046 C20.171871,3.59043971 20.0818156,3.56405986 19.9908506,3.56405986 Z M31.5726166,25.3333163 C31.3051795,25.3333163 31.0432003,25.2805566 30.7957755,25.1768565 C29.7678711,24.7511403 29.2757504,23.5658663 29.7014666,22.5343233 L30.4009874,20.8523805 C30.8194264,19.8463076 32.0374477,19.335994 33.0471592,19.7598908 C34.076883,20.188336 34.5671843,21.3745196 34.1396488,22.4042433 L33.4410377,24.0852765 C33.1253891,24.8439246 32.3931209,25.3333163 31.5726166,25.3333163 Z M32.2703181,21.1507457 C32.0765627,21.1507457 31.9037292,21.2671809 31.8291379,21.4463819 L31.1305267,23.1265054 C31.0304652,23.369382 31.1469004,23.6486445 31.3888673,23.7505253 C31.6362921,23.8533157 31.9137354,23.730513 32.0128872,23.4930943 L32.7114984,21.8120612 C32.8124695,21.5691846 32.6960343,21.2899221 32.4522481,21.1880413 C32.3931209,21.1625711 32.3321743,21.1507457 32.2703181,21.1507457 Z M2.38152606,20.8672424 C1.26538553,20.8672424 0.357554857,19.9594117 0.357554857,18.8432712 L0.357554857,17.0239712 C0.357554857,15.9078307 1.26538553,15 2.38152606,15 C3.49766658,15 4.40549725,15.9078307 4.40549725,17.0239712 L4.40549725,18.8432712 C4.40549725,19.9594117 3.49766658,20.8672424 2.38152606,20.8672424 Z M2.38152606,16.546405 C2.11772756,16.546405 1.90395982,16.7601727 1.90395982,17.0239712 L1.90395982,18.8432712 C1.90395982,19.1070696 2.11772756,19.3208374 2.38152606,19.3208374 C2.64532455,19.3208374 2.85909229,19.1070696 2.85909229,18.8432712 L2.85909229,17.0239712 C2.85909229,16.7601727 2.64532455,16.546405 2.38152606,16.546405 Z M32.7347649,3.78685742 C31.9741528,3.78685742 31.3575549,3.17025947 31.3575549,2.40964735 C31.3575549,1.64903524 31.9741528,1.03243729 32.7347649,1.03243729 C33.495377,1.03243729 34.111975,1.64903524 34.111975,2.40964735 C34.111975,3.17025947 33.495377,3.78685742 32.7347649,3.78685742 Z M14.7347649,15.7868574 C13.9741528,15.7868574 13.3575549,15.1702595 13.3575549,14.4096474 C13.3575549,13.6490352 13.9741528,13.0324373 14.7347649,13.0324373 C15.495377,13.0324373 16.111975,13.6490352 16.111975,14.4096474 C16.111975,15.1702595 15.495377,15.7868574 14.7347649,15.7868574 Z M6.73476492,28.7868574 C5.97415281,28.7868574 5.35755486,28.1702595 5.35755486,27.4096474 C5.35755486,26.6490352 5.97415281,26.0324373 6.73476492,26.0324373 C7.49537704,26.0324373 8.11197499,26.6490352 8.11197499,27.4096474 C8.11197499,28.1702595 7.49537704,28.7868574 6.73476492,28.7868574 Z M23.2533551,28.7868574 C22.492743,28.7868574 21.876145,28.1702595 21.876145,27.4096474 C21.876145,26.6490352 22.492743,26.0324373 23.2533551,26.0324373 C24.0139672,26.0324373 24.6305652,26.6490352 24.6305652,27.4096474 C24.6305652,28.1702595 24.0139672,28.7868574 23.2533551,28.7868574 Z M38.7347649,16.7868574 C37.9741528,16.7868574 37.3575549,16.1702595 37.3575549,15.4096474 C37.3575549,14.6490352 37.9741528,14.0324373 38.7347649,14.0324373 C39.495377,14.0324373 40.111975,14.6490352 40.111975,15.4096474 C40.111975,16.1702595 39.495377,16.7868574 38.7347649,16.7868574 Z M24.2533551,17.7868574 C23.492743,17.7868574 22.876145,17.1702595 22.876145,16.4096474 C22.876145,15.6490352 23.492743,15.0324373 24.2533551,15.0324373 C25.0139672,15.0324373 25.6305652,15.6490352 25.6305652,16.4096474 C25.6305652,17.1702595 25.0139672,17.7868574 24.2533551,17.7868574 Z M30.7347649,13.7868574 C29.9741528,13.7868574 29.3575549,13.1702595 29.3575549,12.4096474 C29.3575549,11.6490352 29.9741528,11.0324373 30.7347649,11.0324373 C31.495377,11.0324373 32.111975,11.6490352 32.111975,12.4096474 C32.111975,13.1702595 31.495377,13.7868574 30.7347649,13.7868574 Z M3.73476492,9.78685742 C2.97415281,9.78685742 2.35755486,9.17025947 2.35755486,8.40964735 C2.35755486,7.64903524 2.97415281,7.03243729 3.73476492,7.03243729 C4.49537704,7.03243729 5.11197499,7.64903524 5.11197499,8.40964735 C5.11197499,9.17025947 4.49537704,9.78685742 3.73476492,9.78685742 Z M14.7347649,24.7868574 C13.9741528,24.7868574 13.3575549,24.1702595 13.3575549,23.4096474 C13.3575549,22.6490352 13.9741528,22.0324373 14.7347649,22.0324373 C15.495377,22.0324373 16.111975,22.6490352 16.111975,23.4096474 C16.111975,24.1702595 15.495377,24.7868574 14.7347649,24.7868574 Z M11.7347649,2.78685742 C10.9741528,2.78685742 10.3575549,2.17025947 10.3575549,1.40964735 C10.3575549,0.649035236 10.9741528,0.0324372873 11.7347649,0.0324372873 C12.495377,0.0324372873 13.111975,0.649035236 13.111975,1.40964735 C13.111975,2.17025947 12.495377,2.78685742 11.7347649,2.78685742 Z" id="Shape" fill="url(#linearGradient-2)"></path>
                        </g>
                    </g>
                    <g id="Group-7" transform="translate(72.000000, 0.000000)">
                        <rect id="Rectangle" fill="url(#linearGradient-3)" transform="translate(4.000000, 36.000000) scale(-1, 1) translate(-4.000000, -36.000000) " x="0" y="0" width="8" height="72"></rect>
                        <mask id="mask-5" fill="white">
                            <use xlink:href="#path-4"></use>
                        </mask>
                        <use id="Rectangle-Copy-2" fill="url(#linearGradient-3)" transform="translate(20.000000, 52.000000) scale(-1, 1) translate(-20.000000, -52.000000) " xlink:href="#path-4"></use>
                        <rect id="Rectangle-Copy" fill="url(#linearGradient-3)" transform="translate(36.000000, 44.000000) scale(-1, 1) translate(-36.000000, -44.000000) " x="32" y="16" width="8" height="56"></rect>
                        <rect id="Rectangle-Copy-4" fill="url(#linearGradient-3)" transform="translate(68.000000, 36.500000) scale(-1, 1) translate(-68.000000, -36.500000) " x="64" y="1" width="8" height="71"></rect>
                        <rect id="Rectangle-Copy-3" fill="url(#linearGradient-3)" transform="translate(52.000000, 56.000000) scale(-1, 1) translate(-52.000000, -56.000000) " x="48" y="40" width="8" height="32"></rect>
                        <rect id="Rectangle-Copy-5" fill="url(#linearGradient-3)" transform="translate(84.000000, 52.000000) scale(-1, 1) translate(-84.000000, -52.000000) " x="80" y="32" width="8" height="40"></rect>
                        <rect id="Rectangle-Copy-7" fill="url(#linearGradient-3)" transform="translate(100.000000, 61.000000) scale(-1, 1) translate(-100.000000, -61.000000) " x="96" y="50" width="8" height="22"></rect>
                    </g>
                </g>
            </g>
        </g>
    </g>
</svg>