<?xml version="1.0" encoding="UTF-8"?>
<svg width="176px" height="73px" viewBox="0 0 176 73" version="1.1" xmlns="http://www.w3.org/2000/svg" xmlns:xlink="http://www.w3.org/1999/xlink">
    <!-- Generator: Sketch 48.2 (47327) - http://www.bohemiancoding.com/sketch -->
    <title>Group 8</title>
    <desc>Created with Sketch.</desc>
    <defs>
        <linearGradient x1="0%" y1="0%" x2="100%" y2="100%" id="linearGradient-1">
            <stop stop-color="#DBE8F3" offset="0%"></stop>
            <stop stop-color="#B4CCE4" offset="100%"></stop>
        </linearGradient>
        <linearGradient x1="50%" y1="0%" x2="50%" y2="97.1679688%" id="linearGradient-2">
            <stop stop-color="#FF9F77" offset="0%"></stop>
            <stop stop-color="#F28C62" offset="100%"></stop>
        </linearGradient>
    </defs>
    <g id="Aquabyte-Homepage-Final" stroke="none" stroke-width="1" fill="none" fill-rule="evenodd" transform="translate(-433.000000, -1120.000000)">
        <g id="Machine-Learning" transform="translate(0.000000, 800.000000)" fill-rule="nonzero">
            <g id="Biomass-Estimation" transform="translate(432.000000, 321.000000)">
                <g id="Group-8" transform="translate(1.000000, 0.000000)">
                    <path d="M76,41.0548875 C75.7115351,43.1650139 73.6299382,44.7827422 71.9540942,45.9334321 C69.9422361,46.6614627 67.8606392,47.3725869 65.8847072,48.1185805 C61.7796291,49.3548588 57.3184606,49.990961 53.0168459,50.5118885 C48.809273,50.7369546 44.2075703,51.0655722 40.0686794,50.372411 C39.3638951,51.1469341 38.4847638,51.7365437 37.4217758,51.777753 C36.0914558,51.6266523 34.7051334,51.5695933 33.5026678,51.1300277 C33.582973,50.7950702 34.0690312,50.7834471 34.3342499,50.5118885 C34.6808305,50.2234236 35.2714968,49.9624315 35.3169327,49.5408289 C32.8665656,49.2058714 30.3348366,49.0547707 28.0112673,48.4017622 L27.3181061,48.9512192 C26.6703808,49.2977998 26.4273517,50.2234236 25.6528286,50.1885542 C22.8199549,48.9332562 19.906776,47.8417386 16.9249149,46.9974768 C16.7632477,46.4659827 17.3634238,46.2229537 17.3982932,45.783388 C15.8830598,45.633344 14.554853,44.9338429 12.9931271,44.9982985 C12.7162852,45.1187563 12.6011106,45.3913716 12.2661531,45.3913716 C10.9474562,46.2694462 9.88446819,47.6621085 8.41572725,48.2696811 C5.73395423,49.1953049 3.07437082,50.3280318 0.0576403321,50.2244802 C-0.243504393,49.4784866 0.715932134,49.2534206 1.07519251,48.8138549 C2.56612306,46.5124753 4.95943113,44.7394197 6.93641983,42.8480195 C5.19083708,41.6170244 3.30577677,40.494864 1.87296187,38.81902 C1.17874403,37.5594954 0.115755981,36.4658646 0.12737911,34.9231583 C0.105189499,34.8185501 0.173871629,34.6505431 0.312292538,34.6970356 C0.405277576,34.7435281 0.370408186,34.8301732 0.393654446,34.9231583 C1.09843877,35.5761668 1.96489025,35.8477254 2.85564465,36.0896978 C2.87783426,36.044262 2.94862969,36.0315822 2.93594991,35.96924 C2.89051404,36.0738481 2.99406556,36.0896978 3.04055808,36.1541534 C5.66421545,36.9402996 8.16213169,37.981098 10.4973241,39.4667454 L14.6710843,39.107485 L22.4860541,38.194541 L22.7745191,38.0444969 C23.0746071,38.0909895 23.5596086,38.1364253 23.8607534,37.9694749 C26.7855555,37.8764899 29.6522419,37.1949518 32.5548544,36.8187851 L32.6932753,36.6983272 C32.3002022,35.9523336 31.757085,35.2591724 31.1674754,34.5934841 C31.225591,34.5131788 31.3534454,34.4550631 31.4221276,34.3800411 C32.1047223,34.4265336 32.4048104,33.5938949 33.1106513,33.68054 C33.3885498,33.1553859 34.0235953,33.2874669 34.4399147,32.9577927 C35.4109744,32.6693278 36.1168153,31.9402405 36.9262078,31.3157615 C37.2960347,31.1826238 37.7239772,30.9575577 37.9310802,30.5644846 C38.5904287,30.6395067 38.6369212,29.6050481 39.3184592,29.8649836 C41.1337808,31.6221894 42.1513329,33.6974464 43.3886679,35.680775 C46.7171096,35.4726153 50.1860855,35.1366012 53.527207,35.680775 L60.7874365,36.5873791 C63.1226289,37.182272 65.5624295,37.4834168 67.9198115,38.0159674 C69.1233338,38.2579399 70.347989,38.5474615 71.5155852,38.743998 C72.6018195,39.4836517 74.1751686,39.0271797 75.2265335,39.8302323 C75.3417082,40.1768129 75.1462283,40.6332849 75.1927208,40.9967719 L75.8753155,40.9967719 L76,41.0548875 Z M99.9005502,62.151753 L99.3325502,62.151753 C99.2995502,61.850753 99.4635502,61.472753 99.3645502,61.182753 C98.4895502,60.520753 97.1875502,60.898753 96.2905502,60.285753 C95.3275502,60.121753 94.3105502,59.887753 93.3145502,59.683753 C91.3555502,59.241753 89.3425502,58.994753 87.4065502,58.501753 L81.3885502,57.746753 C78.6315502,57.298753 75.7535502,57.577753 72.9965502,57.746753 C71.9685502,56.105753 71.1255502,54.388753 69.6265502,52.933753 C69.0575502,52.719753 69.0245502,53.573753 68.4785502,53.513753 C68.3145502,53.835753 67.9535502,54.027753 67.6465502,54.136753 C66.9795502,54.651753 66.3885502,55.252753 65.5895502,55.492753 C65.2505502,55.765753 64.7255502,55.656753 64.4845502,56.095753 C63.9055502,56.018753 63.6535502,56.707753 63.0945502,56.669753 C63.0295502,56.734753 62.9305502,56.783753 62.8755502,56.850753 C63.3685502,57.397753 63.8165502,57.971753 64.1455502,58.589753 L64.0365502,58.693753 C61.6185502,59.005753 59.2555502,59.569753 56.8375502,59.645753 C56.5855502,59.782753 56.1815502,59.744753 55.9295502,59.706753 L55.6895502,59.832753 L49.2225502,60.587753 L45.7655502,60.882753 C43.8285502,59.656753 41.7615502,58.792753 39.5835502,58.142753 C39.5505502,58.087753 39.4635502,58.076753 39.5075502,57.989753 C39.5185502,58.044753 39.4525502,58.049753 39.4415502,58.088753 C38.6985502,57.891753 37.9865502,57.666753 37.3955502,57.125753 C37.3845502,57.048753 37.4075502,56.977753 37.3305502,56.938753 C37.2215502,56.900753 37.1555502,57.037753 37.1775502,57.125753 C37.1665502,58.399753 38.0535502,59.308753 38.6215502,60.347753 C39.8135502,61.737753 41.3675502,62.666753 42.8115502,63.684753 C41.1815502,65.248753 39.2015502,66.720753 37.9645502,68.624753 C37.6685502,68.990753 36.8705502,69.176753 37.1215502,69.794753 C39.6165502,69.876753 41.8265502,68.940753 44.0365502,68.175753 C45.2625502,67.672753 46.1375502,66.518753 47.2305502,65.790753 C47.5035502,65.790753 47.6025502,65.565753 47.8335502,65.467753 C49.1245502,65.412753 50.2185502,65.992753 51.4765502,66.118753 C51.4555502,66.479753 50.9525502,66.681753 51.0935502,67.119753 C53.5555502,67.819753 55.9625502,68.727753 58.3155502,69.762753 C58.9495502,69.794753 59.1575502,69.029753 59.6935502,68.739753 L60.2735502,68.285753 C62.1885502,68.827753 64.2895502,68.953753 66.3125502,69.226753 C66.2805502,69.576753 65.7885502,69.794753 65.5025502,70.030753 C65.2835502,70.255753 64.8795502,70.265753 64.8135502,70.545753 C65.8095502,70.906753 66.9585502,70.955753 68.0525502,71.081753 C68.9385502,71.048753 69.6605502,70.561753 70.2515502,69.916753 C73.6755502,70.490753 77.4935502,70.222753 80.9735502,70.030753 C84.5395502,69.603753 88.2275502,69.073753 91.6295502,68.050753 C93.2715502,67.432753 94.9885502,66.847753 96.6515502,66.239753 C98.0415502,65.288753 99.7585502,63.947753 99.9995502,62.202753 L99.9005502,62.151753 Z" id="Shape" fill="url(#linearGradient-1)"></path>
                    <path d="M83.8304348,14.6622917 L83.9410836,14.7348036 C83.9808265,14.7611265 84.0388403,14.7987244 84.0903972,14.8357833 C84.0656913,14.8556603 84.0356173,14.8787492 83.9990864,14.9039942 C83.9142216,14.9614691 83.7820899,15.0484789 83.6102153,15.1607336 C80.8623663,16.9584377 77.1122764,19.6391429 76.2754642,22.1506574 C76.1884544,22.4116869 75.926347,23.3081299 76.2260523,23.8624187 C76.3377681,24.0675902 76.5171667,24.2120749 76.7320072,24.2684718 C77.3400089,24.4269155 79.2746737,23.9392205 80.3940093,23.5170524 C81.0611028,23.265153 82.8410749,22.5115886 84.7263278,21.7129024 C86.5965438,20.9206731 88.5301306,20.1015819 89.25845,19.8255045 C90.8677575,19.2150168 92.0855868,18.8898575 92.7338704,18.9067755 C92.7348824,18.9067755 92.7357514,18.9070395 92.7367524,18.9070395 C92.7431984,18.9070395 92.7485664,18.9070395 92.7539454,18.9070395 C92.7540774,18.9070395 92.7542094,18.9069735 92.7543524,18.9069735 L93.0515057,18.9145745 C93.7774052,18.9309534 95.1824871,18.9662083 96.7507757,19.1598959 C96.7270707,19.2087688 96.6876028,19.2482477 96.6791438,19.3039736 C96.6436909,19.5370741 96.7607857,19.7669626 96.9702582,19.8754554 C100.805213,21.8563091 105.429713,24.2335469 105.677861,24.3076757 C105.714381,24.3184227 105.758425,24.3237907 105.809993,24.3237907 C106.577582,24.3237907 108.843984,23.1520182 109.524773,22.790482 C110.041266,22.9209967 110.71662,23.1148933 111.431377,23.3199329 C112.107061,23.5138295 112.814965,23.716856 113.453051,23.8855076 C114.66812,24.2063659 121.071734,24.9855712 123.518865,25.2682926 C123.184983,25.9645141 122.986995,26.6226097 122.920456,27.2418973 C122.884607,27.3303811 122.877358,27.4260589 122.890844,27.5232107 C122.873519,27.9283948 122.895002,28.321754 122.997456,28.6894062 C123.36161,29.9940474 124.363862,30.5451132 124.406828,30.5676741 C124.476655,30.605272 124.553996,30.627294 124.632415,30.632123 C124.646385,30.633201 124.660344,30.633201 124.675381,30.633201 C125.273725,30.633201 126.403796,29.9016586 127.379186,29.1738781 C127.465129,29.232959 127.555362,29.2764639 127.65204,29.3043929 C127.956047,29.3892577 128.189147,29.2780699 128.299796,29.2125431 C128.621864,28.9830616 130.50792,27.1507845 131.480417,25.8356054 C132.156168,25.8889113 133.898344,26.009229 135.909546,26.009229 C136.375758,26.009229 136.857007,26.002783 137.339323,25.9872071 C139.150447,25.9297322 141.965968,25.7406756 144.688033,25.558054 C146.675333,25.4248553 148.576701,25.2975526 149.902275,25.2341817 C151.518975,25.1573799 153.056177,24.8705555 154.291518,24.640678 C154.688981,24.5665602 155.049912,24.4994163 155.361442,24.4494654 C156.725692,24.2314019 159.06641,23.8027878 160.715339,23.4391616 C162.486721,23.0486845 166.033784,21.9782218 167.410926,21.4862369 C168.875078,20.963628 172.001051,19.1852619 172.799198,18.5998211 C174.209648,17.5653504 174.943336,16.81447 174.980933,16.354176 C175.012085,15.9959288 175.070088,15.3293743 174.633961,14.979718 C174.50613,14.8776712 174.233276,14.7213726 173.815409,14.8529653 C173.749882,14.8739093 173.6865,14.8986152 173.624196,14.9265441 C173.627419,14.8798162 173.627419,14.8298653 173.626341,14.7777695 C173.581219,13.5682011 172.157889,13.2292918 171.622927,13.1019891 C170.591679,12.8559966 166.664347,11.6453503 164.359071,10.7634162 C161.702532,9.74559941 157.618362,8.30722054 152.847772,7.56923215 C148.267514,6.86172469 140.380487,6.1657672 133.112132,6.50058447 C132.243694,4.73920231 130.471972,2.06621912 128.872334,0.4675816 C128.750949,0.346735863 128.576929,0.288182991 128.41149,0.311282941 C128.24176,0.333843891 128.092446,0.433745674 128.006515,0.581981352 C126.656224,2.92914524 123.221954,5.53197058 121.683673,6.40423568 C121.511799,6.50199247 121.405451,6.68406407 121.405451,6.88172264 C121.405451,7.07938121 121.510721,7.26199182 121.682595,7.3602876 C121.682595,7.3602876 121.683398,7.3608266 121.683464,7.3608266 C119.833994,7.61581705 116.921124,8.05631109 113.674305,8.54729502 C106.279395,9.66561859 96.3431606,11.1640903 93.844131,11.2388792 C93.84379,11.2388792 93.843526,11.2387472 93.843196,11.2387472 C93.841447,11.2388792 93.839434,11.2390882 93.837696,11.2392202 C93.6592434,11.2444562 93.5126797,11.2435212 93.4145929,11.2333792 C91.1995608,10.9965167 89.691354,10.2596063 87.6030856,9.24017251 L87.4709539,9.17572365 C81.7958682,6.40370768 78.1843561,5.08940854 76.7159033,5.25698218 C76.399005,5.2940411 76.1809414,5.44013178 76.0692257,5.69042524 C75.8812361,6.11097632 76.0144458,6.69965104 77.2508651,8.46082421 C78.8202867,10.6941273 80.9107111,12.6642451 83.8304348,14.6622917 Z M79.1828349,9.1538337 C81.8141942,9.95983495 84.8275056,11.0499546 86.9778139,12.1012773 C86.5986778,12.226083 86.2688985,12.3678837 86.028747,12.5438503 C85.6279299,12.4188356 85.1679659,12.2613269 84.659723,12.0830833 C83.3110489,11.6108324 81.887707,11.1248864 81.0204139,11.0582156 C80.3430574,10.4361229 79.7333727,9.80366829 79.1828349,9.1538337 Z M84.212849,16.0813216 C84.3933146,15.9626209 84.5340373,15.8707711 84.6221251,15.8095452 C84.7854087,15.6972905 85.2816946,15.3556862 85.2741707,14.8115944 C85.2677247,14.2879185 84.8133267,13.9914252 84.4513174,13.7540237 C83.9158826,13.3877795 83.4185957,13.0227563 82.9398327,12.6573811 C83.3968487,12.8072997 83.8650737,12.9705174 84.2955578,13.1213051 C84.7165819,13.2688807 85.101218,13.4000665 85.4584643,13.5168202 C85.4582663,13.5205162 85.4558463,13.5231342 85.4557143,13.5268192 C85.4277853,14.2288157 86.1840337,14.4656891 86.7920354,14.6563627 C86.8210423,14.6654927 86.8532612,14.6757007 86.8876361,14.6864367 C86.7404675,14.7487405 86.5868528,14.8105054 86.4590221,14.8620733 C85.4879332,15.2536284 84.650043,15.5909317 84.5737692,16.2752072 C84.5508122,16.4817978 84.5864631,16.6566864 84.647887,16.817011 C83.8596837,17.0715285 83.0163486,17.3152439 82.1069585,17.5368055 C82.7526571,17.0675905 83.4412996,16.5861435 84.212849,16.0813216 Z M80.1533188,19.0618091 C82.2907461,18.7090619 84.0454733,18.184979 85.6192729,17.6569362 C85.8692254,17.757102 86.1481188,17.8331118 86.4357461,17.8972197 C84.0808603,18.7925077 80.6786887,20.041687 78.5576403,20.5905528 C78.9868593,20.1111189 79.5212162,19.600588 80.1533188,19.0618091 Z M88.8685118,18.7969407 C88.1208545,19.0805311 86.1765207,19.9039233 84.2966468,20.6999146 C82.5048497,21.4588469 80.6518267,22.2441022 80.0051491,22.4879497 C78.8428476,22.9262327 77.6547622,23.1609502 77.1864053,23.2012321 C77.1896282,23.0325805 77.2293712,22.7667111 77.319604,22.4986967 C77.3813688,22.3133251 77.4728116,22.1189665 77.5811724,21.9194929 C79.7269817,21.6085786 84.7979597,19.7148667 88.5689935,18.2565449 C88.9806236,18.3289907 89.3801647,18.4045826 89.7619079,18.4809224 C89.4734225,18.5795482 89.1881491,18.675688 88.8685118,18.7969407 Z M99.5575626,19.9718702 C99.343525,19.8616284 99.1306975,19.7520576 98.921027,19.6439609 L99.1876334,19.596694 C99.4274549,19.6555108 99.6901673,19.7242607 99.9778497,19.8035485 L99.5575626,19.9718702 Z M101.704252,21.0756298 C101.424149,20.9319481 101.139084,20.7853954 100.852733,20.6382267 L101.690425,20.3027384 C102.02753,20.4053242 102.371884,20.511606 102.724698,20.6219797 C102.343747,20.8014994 101.967899,20.971625 101.704252,21.0756298 Z M102.967126,21.7227803 C103.468186,21.4910879 103.970577,21.2440174 104.248469,21.1054397 C104.555699,21.2040655 104.857142,21.3012173 105.157661,21.3985671 L103.779848,22.1380954 C103.522834,22.0069757 103.24998,21.867529 102.967126,21.7227803 Z M105.923843,23.2184251 C105.756269,23.1384663 105.422453,22.9717616 104.974105,22.7450961 L106.605841,21.869344 C106.622154,21.874646 106.640216,21.880553 106.656463,21.885855 C107.17256,22.0540996 107.614055,22.1975833 108.01441,22.326756 C107.139516,22.7498591 106.253424,23.1287203 105.923843,23.2184251 Z M127.904457,28.1104005 C127.826038,27.9970677 127.705731,27.9165039 127.568232,27.8874969 C127.409249,27.853661 127.244887,27.8917979 127.117057,27.9911607 C126.275943,28.6437453 125.199585,29.3607897 124.795677,29.5084864 C124.59265,29.3521877 124.217749,28.9923235 124.051242,28.3714299 C124.002567,28.1904913 123.989136,27.9947797 123.982085,27.7965931 C124.969828,27.3417991 128.044432,25.9335712 130.063356,25.091985 C130.261015,25.1240059 130.440545,25.1548939 130.596437,25.1842308 C129.846569,26.1980326 128.443313,27.6059855 127.904457,28.1104005 Z M124.203449,26.484978 C124.341081,26.0699929 124.528872,25.6356038 124.798493,25.1708108 C124.94741,25.0605691 125.38918,24.7700597 126.028873,24.7045989 C126.380817,24.6689479 127.123767,24.7216488 127.935334,24.8085266 C126.57599,25.4045823 125.135598,26.0583769 124.203449,26.484978 Z M144.614972,24.4607514 C141.901497,24.642295 139.096724,24.8308236 137.304926,24.8882875 C134.887935,24.9677843 132.547217,24.8152366 131.653469,24.7459588 C131.52456,24.4736434 131.27749,24.2684718 130.972416,24.19596 C129.729551,23.8973326 126.905428,23.5090005 125.917157,23.6099802 C125.11472,23.6927001 124.50993,24.0342933 124.210225,24.2400039 C122.168134,24.0138774 114.936519,23.1400063 113.734464,22.822041 C113.102823,22.6555343 112.402433,22.4541248 111.73535,22.2629122 C110.993072,22.0496776 110.290525,21.8482681 109.759864,21.7155974 C109.427929,21.6323495 108.301081,21.2649613 106.996978,20.8401093 C106.189437,20.5767258 105.287362,20.2831255 104.376762,19.9914831 C104.374617,19.9907461 104.372604,19.9900751 104.370382,19.9894041 C102.481906,19.3846254 100.569868,18.7964237 99.347012,18.5028234 C99.338421,18.5006124 99.3304241,18.4983244 99.3217671,18.4965094 C99.2600022,18.4818024 99.1852024,18.4614634 99.1272655,18.4483735 C96.6866458,17.8956907 94.1568713,17.8392938 93.0762007,17.8151269 L92.7711273,17.8070749 C92.7709293,17.8070749 92.7705223,17.8071409 92.7703243,17.8071409 C92.7702583,17.8071409 92.7701263,17.8070749 92.7700603,17.8070749 C91.8709443,17.7802239 90.9664493,17.5997473 90.0093193,17.4085457 C89.3529728,17.277492 88.6622513,17.1399923 87.9081479,17.0341836 C86.8757562,16.8895669 86.3105884,16.7509892 85.9989261,16.6502844 C85.9066143,16.5740876 85.7964385,16.5248077 85.6753178,16.5203087 C85.6508758,16.5064157 85.6357069,16.4965377 85.6340239,16.4965377 C85.7618546,16.3289641 86.48265,16.0389167 86.8704432,15.8826181 C87.425414,15.6589115 87.9062559,15.462397 88.1805843,15.1973305 C91.3563654,15.2562134 118.033793,15.7459214 129.013023,15.7773373 L132.605209,15.7923743 C141.991708,15.8374962 148.893555,15.8707931 155.869509,14.6155748 C155.207794,16.0351547 154.709353,17.6899801 155.582696,19.5000372 C155.656814,19.6537179 155.735969,19.7930985 155.818755,19.9205883 C155.055456,19.8732554 153.95768,19.8635864 152.879969,19.8556004 C151.787495,19.8480764 150.756247,19.8405634 150.225575,19.7932965 C149.042858,19.6907108 147.495986,19.9254283 147.430459,19.9356252 C147.172642,19.9759072 146.978217,20.1923647 146.966392,20.4528551 C146.964247,20.4791781 146.965314,20.504951 146.96747,20.5301959 C145.728895,20.7482595 144.610638,21.0554888 144.278702,21.4738949 C144.154095,21.6323385 144.097159,21.8235511 144.11972,22.0120797 C144.188128,22.5943085 144.860524,23.1336923 145.744273,23.5670033 C145.753205,23.5711613 145.760927,23.5763313 145.770123,23.5799613 C146.34221,23.8577767 146.998688,24.0918232 147.64255,24.2617508 C146.704252,24.3208977 145.675688,24.3896475 144.614972,24.4607514 Z M149.764764,23.4697855 C149.424568,23.4846905 149.033497,23.4427256 148.628984,23.3682668 C149.569394,23.1862502 150.478784,22.9085668 151.367494,22.5201686 C151.645716,22.3987839 151.772469,22.0743726 151.651084,21.7961502 C151.529699,21.5173888 151.206355,21.3917031 150.927066,21.5125598 C149.400676,22.1792464 147.809222,22.5050656 146.068992,22.5167476 C145.750015,22.356687 145.494761,22.1978363 145.346514,22.0598746 C145.966341,21.8144212 147.554033,21.5206228 148.909692,21.3643241 C149.168577,21.3347782 149.370536,21.1269226 149.394164,20.8680382 C149.644458,20.8637372 149.896896,20.8685772 150.12893,20.8889822 C150.703634,20.9400111 151.757443,20.947524 152.872478,20.955587 C153.538493,20.960416 154.218468,20.965256 154.81251,20.979215 C153.445026,22.2720312 151.068855,23.4133887 149.764764,23.4697855 Z M155.187401,23.3634378 C154.867279,23.4144667 154.497757,23.4832165 154.089548,23.5594794 C153.567819,23.6566971 152.983577,23.7624399 152.371407,23.8589867 C153.9634,23.1528872 155.61849,22.0035437 156.42382,20.7820954 C156.451485,20.7401965 156.455104,20.6905866 156.470284,20.6440567 C156.915145,21.0045259 157.38612,21.1819005 157.775189,21.3229642 C157.970691,21.3938591 158.157614,21.4588579 158.320887,21.5496187 C158.814962,21.8237491 159.067466,22.1188235 159.254785,22.6217534 C157.827758,22.9093808 156.223961,23.1975361 155.187401,23.3634378 Z M166.536505,13.4387534 C166.544029,13.4387534 166.551542,13.4387534 166.559066,13.4392924 C167.096173,13.4650763 167.327128,14.3588244 167.367949,14.537684 C167.462483,14.9517891 167.318537,15.2885644 166.981234,15.8433921 C166.915707,15.9513459 166.772839,16.0002298 166.693342,16.0190288 C166.479569,16.0716636 166.220685,16.0394337 166.063847,15.9427549 C165.890289,15.8359342 165.826984,15.5021949 165.80483,15.1336737 C165.923531,15.3928331 166.149988,15.5721547 166.425867,15.5721547 C166.825474,15.5721547 167.138072,15.2096065 167.138072,14.7471565 C167.138072,14.2847065 166.825474,13.9221583 166.425867,13.9221583 C166.159063,13.9221583 165.940724,14.091745 165.818602,14.3368024 C165.849688,14.0371631 165.950668,13.7776736 166.130463,13.612784 C166.253981,13.4999792 166.396849,13.4387534 166.536505,13.4387534 Z M128.569394,1.74644982 C129.828177,3.14118078 131.12657,5.08726355 131.908261,6.55733335 L130.755222,6.61353223 C129.920291,5.1106385 128.533469,3.3168284 127.937281,2.57132702 C128.163748,2.29872562 128.377588,2.02346221 128.569394,1.74644982 Z M127.191911,3.40221021 C127.749962,4.10816668 128.7833,5.45866674 129.523499,6.6733281 C129.01123,6.69823204 128.582825,6.719451 128.209728,6.73859095 C127.678462,5.86961485 126.882801,4.72812533 126.458961,4.13079363 C126.709793,3.89379915 126.954312,3.65083167 127.191911,3.40221021 Z M125.63558,4.87281901 C125.978592,5.35802796 126.504952,6.11548631 126.953707,6.8088258 C126.504545,6.83742574 126.136431,6.86669668 125.732457,6.90429459 C125.438526,6.46399855 125.043484,5.95287366 124.759685,5.59610044 C125.048522,5.36756494 125.340439,5.12720446 125.63558,4.87281901 Z M123.883999,6.26278699 C124.055609,6.47823252 124.269306,6.75336392 124.47462,7.03179532 C124.357526,7.04414829 124.236614,7.05697426 124.106033,7.07080123 L123.428402,7.14284008 C123.297348,7.05448827 123.157164,6.96317747 123.012482,6.87368166 C123.277064,6.69851804 123.575031,6.4878355 123.883999,6.26278699 Z M93.9420308,12.3344548 C93.9446488,12.3341908 93.9467278,12.3325078 93.9493458,12.3322438 C96.4644903,12.242011 104.164001,11.0987065 113.838666,9.63495065 C118.230066,8.9705521 122.023122,8.39691435 123.343339,8.25780865 L124.22205,8.16489185 C126.536984,7.91889939 126.536984,7.91889939 130.318226,7.73627778 L132.954348,7.60790806 C140.197788,7.25180584 148.107244,7.95005132 152.680187,8.65634878 C157.346586,9.37822221 161.35556,10.7908171 163.965909,11.790374 C164.542693,12.0110555 165.205013,12.247181 165.892181,12.4823055 C165.712112,12.5587773 165.540039,12.6615611 165.387095,12.8017558 C164.96815,13.1857869 164.723225,13.7513617 164.698519,14.3942773 C164.670117,15.1523406 164.689653,15.9725649 165.106717,16.5225637 C164.688179,16.3986269 164.431098,16.1696184 164.219415,15.9701449 C163.89023,15.7132734 163.841357,15.2633744 163.618926,14.9270831 C163.319958,14.4751051 162.789231,14.2756426 162.924982,13.6444639 C162.995877,13.3103837 163.305251,12.9956413 163.769318,13.0783502 C164.060432,13.129918 164.35477,12.9333265 164.407404,12.6341601 C164.461117,12.3349938 164.262381,12.0492474 163.962675,11.9955345 C162.986208,11.8177529 162.05594,12.4440145 161.848612,13.4151144 C161.711783,14.05682 161.885275,14.6035298 162.28266,15.0993538 C162.633119,15.5366248 162.804257,15.9512799 163.121628,16.4066129 C163.685729,17.2161012 164.736106,17.7146751 165.70076,17.7146751 C166.000465,17.7146751 166.24539,17.4740506 166.250758,17.1732672 C166.251099,17.1517183 166.241496,17.1332493 166.239417,17.1123054 C166.320388,17.1217764 166.398532,17.1431933 166.480647,17.1431933 C166.638552,17.1431933 166.797545,17.1254724 166.951149,17.0884134 C167.375462,16.9863667 167.720289,16.7468092 167.922238,16.4143459 C168.290693,15.8068722 168.634442,15.1430127 168.440007,14.2927695 C168.339434,13.8508675 168.180649,13.4722043 167.975412,13.169067 C169.478173,13.6476979 170.82115,14.0417281 171.367254,14.1719128 C171.890402,14.2965205 172.515597,14.509216 172.526333,14.8588723 C172.515586,14.8798162 172.458661,14.9383691 172.416762,14.981335 C172.082682,15.3283073 171.748601,15.7585273 171.649767,16.8515509 C171.625061,17.1217214 171.805526,17.3591228 172.068712,17.4246497 C172.324373,17.4917936 172.606897,17.3446249 172.712166,17.0943314 C172.715389,17.0873464 172.786284,16.9240628 173.033355,16.7355452 C173.15904,16.6399444 173.287949,16.5292957 173.417925,16.4165019 C173.572618,16.2822252 173.741269,16.1361345 173.899174,16.0303257 C173.898096,16.0781316 173.894873,16.1339895 173.890583,16.1978994 C173.723009,16.4363789 172.98072,17.1023944 172.148209,17.7125411 C171.40593,18.2577109 168.348707,19.9834311 167.041382,20.4507211 C165.690013,20.9330481 162.211699,21.9830948 160.478994,22.36497 C160.435962,22.3744409 160.387683,22.3843739 160.343705,22.3939769 C160.34189,22.3878719 160.343507,22.3818219 160.341494,22.3757169 C160.060049,21.5362208 159.630368,21.0184409 158.855849,20.5882208 C158.643153,20.4700591 158.403607,20.3803653 158.15009,20.2885155 C157.547456,20.0699129 156.979198,19.8636634 156.573145,19.0220112 C155.785744,17.3897358 156.396969,15.9610369 157.345508,14.1208949 C157.442187,13.9334443 157.422849,13.7067898 157.296096,13.5381272 C157.169343,13.3694645 156.954492,13.2856887 156.74932,13.3297326 C149.503735,14.7729405 142.423567,14.7401825 132.610599,14.6923766 L129.015201,14.6773397 C117.966958,14.6456487 91.0004942,14.1492308 88.1432834,14.0962549 C87.891175,13.8632865 87.5087608,13.7281297 87.1207586,13.606349 C86.9768129,13.5612271 86.7641174,13.4946333 86.6201717,13.4339354 C87.1712485,12.8334467 91.088912,12.5493173 92.4381251,12.4515605 C92.9763099,12.4128736 93.4876328,12.3758147 93.9420308,12.3344548 Z M86.9875489,10.1640055 L87.1207476,10.2289934 C88.1594424,10.7358943 89.0905243,11.1894783 90.0559812,11.5508825 C89.5433164,11.6028464 89.0621334,11.6608602 88.6246534,11.7279271 C86.0948019,10.2719593 81.454121,8.63156584 78.0438864,7.67121293 C77.5909734,7.01520735 77.3473239,6.59605327 77.2282822,6.3505338 C78.1822001,6.43379262 80.6657857,7.07563022 86.9875489,10.1640055 Z" id="Shape" stroke="url(#linearGradient-2)" fill="url(#linearGradient-2)"></path>
                </g>
            </g>
        </g>
    </g>
</svg>