<?xml version="1.0" encoding="utf-8"?>
<!-- Generator: Adobe Illustrator 22.0.1, SVG Export Plug-In . SVG Version: 6.00 Build 0)  -->
<svg version="1.1" id="Layer_1" xmlns="http://www.w3.org/2000/svg" xmlns:xlink="http://www.w3.org/1999/xlink" x="0px" y="0px"
	 viewBox="0 0 153 32.3" style="enable-background:new 0 0 153 32.3;" xml:space="preserve">
<style type="text/css">
	.st0{fill:#2D4359;}
</style>
<title>Logo</title>
<desc>Created with Sketch.</desc>
<g id="Page-1_1_">
	<g id="Header" transform="translate(0.000000, -10.000000)">
		<path id="Wordmark" class="st0" d="M48.9,36.7h-4.3L43.4,33h-7.5l-1.3,3.7h-4.3l7.7-21h3.2L48.9,36.7z M42.3,29.5l-2.6-7.7
			l-2.7,7.7H42.3z M63.1,42.3h-3.8v-7c-1,1.1-2.2,1.5-3.8,1.5c-1.5,0-2.9-0.5-3.8-1.4c-1.5-1.5-1.6-4.2-1.6-6.5s0-4.9,1.6-6.5
			c0.9-0.9,2.3-1.4,3.8-1.4c1.6,0,2.7,0.4,3.8,1.6v-1.4h3.8L63.1,42.3L63.1,42.3z M59.3,29c0-2.5-0.3-4.4-2.6-4.4s-2.6,1.9-2.6,4.4
			s0.3,4.4,2.6,4.4C59,33.4,59.3,31.5,59.3,29z M79.7,36.7h-3.8v-1.4c-1,1.1-2.4,1.6-3.8,1.6c-1.5,0-2.8-0.5-3.6-1.4
			c-1.2-1.2-1.6-2.7-1.6-4.4v-9.8h3.8v9.3c0,2.1,1.3,2.8,2.5,2.8s2.6-0.7,2.6-2.8v-9.3h3.8L79.7,36.7L79.7,36.7z M95.3,36.7h-3.8
			v-1.3c-1,1-2,1.5-3.8,1.5c-1.7,0-3-0.4-3.9-1.4c-0.8-0.9-1.3-2.1-1.3-3.5c0-2.5,1.7-4.5,5.3-4.5h3.6v-0.8c0-1.7-0.8-2.4-2.9-2.4
			c-1.5,0-2.2,0.4-3,1.3l-2.5-2.4c1.5-1.7,3-2.1,5.6-2.1c4.3,0,6.6,1.8,6.6,5.4V36.7z M91.4,31v-0.8h-3c-1.4,0-2.2,0.6-2.2,1.7
			c0,1.1,0.7,1.8,2.2,1.8c1.1,0,1.7-0.1,2.4-0.7C91.3,32.6,91.4,32,91.4,31z M111.9,29c0,2.3,0,5-1.6,6.5c-0.9,0.9-2.2,1.4-3.8,1.4
			c-1.6,0-2.8-0.4-3.8-1.6v1.4h-3.7v-21h3.8v7c1-1.1,2.2-1.5,3.7-1.5c1.5,0,2.9,0.5,3.8,1.4C111.9,24,111.9,26.7,111.9,29z
			 M108.1,29c0-2.5-0.3-4.4-2.6-4.4c-2.3,0-2.6,1.9-2.6,4.4s0.3,4.4,2.6,4.4S108.1,31.5,108.1,29z M127.6,21.3L121,39.2
			c-0.3,0.9-0.7,1.5-1.2,2c-0.9,0.9-2,1.2-3.3,1.2H115v-3.5h0.9c1.1,0,1.5-0.3,1.9-1.4l0.6-1.9l-5.3-14.3h4l3.2,9.5l3.1-9.5
			C123.5,21.3,127.6,21.3,127.6,21.3z M137.2,36.7h-2.1c-3.1,0-4.5-2.2-4.5-4.4v-7.6h-1.6v-2.9h1.6v-4.5h3.8v4.5h2.7v2.9h-2.7V32
			c0,0.9,0.4,1.4,1.3,1.4h1.4V36.7L137.2,36.7z M153,30.2h-9.6c0,2,1.2,3.4,3.4,3.4c1.7,0,2.5-0.5,3.5-1.4l2.3,2.3
			c-1.6,1.6-3.1,2.4-5.8,2.4c-3.6,0-7.1-1.7-7.1-7.9c0-5,2.7-7.9,6.7-7.9c4.3,0,6.7,3.1,6.7,7.4L153,30.2L153,30.2z M149.2,27.6
			c0-0.7-0.1-1.1-0.4-1.7c-0.4-0.9-1.3-1.6-2.6-1.6s-2.2,0.7-2.6,1.6c-0.2,0.6-0.3,1-0.4,1.7H149.2z"/>
		<g id="Clip-2">
		</g>
		<g>
			<g>
				<path id="Fill-1" class="st0" d="M16.8,28.5c0,2.4-1.9,4.3-4.3,4.3h-3v-5.7H3.9v-3c0-2.4,1.9-4.3,4.3-4.3h8.7V28.5z M26.7,16h-6
					v-6h-3.9v6H8.2C3.7,16,0,19.7,0,24.2V31h5.7v5.7h6.8c4.5,0,8.2-3.7,8.2-8.2v-8.6h6V16z"/>
				<path id="Fill-4" class="st0" d="M8.3,22.3c-1,0-1.9,0.8-1.9,1.9c0,1,0.8,1.9,1.9,1.9s1.9-0.8,1.9-1.9
					C10.1,23.1,9.3,22.3,8.3,22.3"/>
			</g>
			<polygon id="Fill-6" class="st0" points="0,36.7 3.7,36.7 3.7,32.9 0,32.9 			"/>
		</g>
	</g>
</g>
</svg>
