<?xml version="1.0" encoding="utf-8"?>
<!-- Generator: Adobe Illustrator 22.0.1, SVG Export Plug-In . SVG Version: 6.00 Build 0)  -->
<svg version="1.1" id="Layer_1" xmlns="http://www.w3.org/2000/svg" xmlns:xlink="http://www.w3.org/1999/xlink" width="177px" x="0px" y="0px"
	 viewBox="0 0 157.6 41" style="enable-background:new 0 0 157.6 41;" xml:space="preserve">
<style type="text/css">
	.st0{fill:#2D4359;}
</style>
<title>Left</title>
<desc>Created with Sketch.</desc>
<g id="Aquabyte-Homepage-Final" transform="translate(-122.000000, -31.000000)">
	<g id="Header" transform="translate(0.000000, -10.000000)">
		<path id="Wordmark" class="st0" d="M185,71.4h-3.9L180,68h-6.8l-1.2,3.4h-3.9l7-19.1h2.9L185,71.4z M179,64.8l-2.3-7l-2.4,7H179z
			 M197.9,76.5h-3.5v-6.4c-0.9,1-2,1.4-3.4,1.4c-1.4,0-2.6-0.5-3.4-1.3c-1.4-1.4-1.4-3.8-1.4-5.9s0-4.5,1.4-5.9
			c0.8-0.8,2.1-1.3,3.4-1.3c1.5,0,2.5,0.4,3.5,1.5v-1.3h3.4V76.5z M194.4,64.4c0-2.3-0.3-4-2.4-4s-2.4,1.7-2.4,4s0.3,4,2.4,4
			S194.4,66.6,194.4,64.4z M213,71.4h-3.4v-1.3c-0.9,1-2.2,1.5-3.5,1.5c-1.4,0-2.5-0.5-3.3-1.2c-1.1-1.1-1.4-2.4-1.4-4v-8.9h3.5v8.5
			c0,1.9,1.2,2.6,2.3,2.6c1.1,0,2.3-0.6,2.3-2.6v-8.5h3.5V71.4z M227.2,71.4h-3.4v-1.2c-0.9,0.9-1.8,1.3-3.4,1.3
			c-1.6,0-2.7-0.4-3.6-1.2c-0.8-0.8-1.2-1.9-1.2-3.1c0-2.2,1.5-4.1,4.8-4.1h3.3v-0.7c0-1.5-0.8-2.2-2.6-2.2c-1.3,0-2,0.3-2.7,1.2
			l-2.2-2.2c1.4-1.5,2.7-1.9,5.1-1.9c3.9,0,6,1.7,6,4.9V71.4z M223.7,66.2v-0.8h-2.8c-1.3,0-2,0.6-2,1.6c0,1,0.6,1.6,2,1.6
			c1,0,1.6-0.1,2.2-0.7C223.5,67.6,223.7,67.1,223.7,66.2z M242.3,64.4c0,2.1,0,4.5-1.4,5.9c-0.8,0.8-2,1.3-3.4,1.3
			c-1.5,0-2.5-0.4-3.5-1.5v1.3h-3.4V52.2h3.5v6.4c0.9-1,2-1.4,3.4-1.4c1.4,0,2.6,0.5,3.4,1.3C242.3,59.9,242.3,62.3,242.3,64.4z
			 M238.8,64.4c0-2.3-0.3-4-2.4-4s-2.4,1.7-2.4,4s0.3,4,2.4,4S238.8,66.6,238.8,64.4z M256.5,57.4l-6,16.3c-0.3,0.8-0.6,1.4-1,1.8
			c-0.8,0.8-1.9,1.1-3,1.1h-1.4v-3.1h0.8c1,0,1.4-0.2,1.7-1.3l0.6-1.7l-4.8-13h3.7L250,66l2.8-8.7H256.5z M265.3,71.4h-1.9
			c-2.8,0-4.1-2-4.1-4v-6.9h-1.5v-2.7h1.5v-4.1h3.5v4.1h2.5v2.7h-2.5v6.7c0,0.8,0.4,1.3,1.2,1.3h1.3V71.4z M279.6,65.5h-8.8
			c0,1.8,1.1,3.1,3.1,3.1c1.5,0,2.3-0.4,3.2-1.3l2.1,2.1c-1.4,1.4-2.8,2.2-5.3,2.2c-3.3,0-6.5-1.5-6.5-7.2c0-4.6,2.5-7.1,6.1-7.1
			c3.9,0,6.1,2.8,6.1,6.7V65.5z M276.2,63.1c0-0.6-0.1-1-0.3-1.5c-0.4-0.8-1.2-1.5-2.3-1.5s-2,0.6-2.3,1.5c-0.2,0.5-0.3,0.9-0.3,1.5
			H276.2z"/>
		<g>
			<path class="st0" d="M162.8,50.2h-9.1v-9.1h-5.9v9.1h-13.2c-6.9,0-12.6,5.6-12.6,12.6v10.4h8.7v8.7h10.4
				c6.9,0,12.6-5.6,12.6-12.6V56.1h9.1V50.2z M147.8,69.4c0,3.6-2.9,6.6-6.6,6.6h-4.6v-8.7h-8.7v-4.6c0-3.6,2.9-6.6,6.6-6.6h13.3
				l0,0V69.4z"/>
			<circle class="st0" cx="134.4" cy="62.7" r="3"/>
			<rect x="122" y="75.9" class="st0" width="6" height="6"/>
		</g>
	</g>
</g>
</svg>
