<?xml version="1.0" encoding="UTF-8"?>
<svg width="187px" height="41px" viewBox="0 0 187 41" version="1.1" xmlns="http://www.w3.org/2000/svg" xmlns:xlink="http://www.w3.org/1999/xlink">
    <!-- Generator: Sketch 48.2 (47327) - http://www.bohemiancoding.com/sketch -->
    <title>Left</title>
    <desc>Created with Sketch.</desc>
    <defs>
        <linearGradient x1="100%" y1="50%" x2="0%" y2="50%" id="linearGradient-1">
            <stop stop-color="#AAC4DF" offset="0%"></stop>
            <stop stop-color="#BFD8EE" offset="100%"></stop>
        </linearGradient>
        <linearGradient x1="50%" y1="0%" x2="50%" y2="97.1679688%" id="linearGradient-2">
            <stop stop-color="#FF9F77" offset="0%"></stop>
            <stop stop-color="#F28C62" offset="100%"></stop>
        </linearGradient>
        <rect id="path-3" x="1.39040895" y="26.0193398" width="6.71698113" height="6.71698113"></rect>
        <filter x="-208.4%" y="-148.9%" width="516.9%" height="516.9%" filterUnits="objectBoundingBox" id="filter-4">
            <feOffset dx="0" dy="4" in="SourceAlpha" result="shadowOffsetOuter1"></feOffset>
            <feGaussianBlur stdDeviation="4" in="shadowOffsetOuter1" result="shadowBlurOuter1"></feGaussianBlur>
            <feColorMatrix values="0 0 0 0 0   0 0 0 0 0   0 0 0 0 0  0 0 0 0.03 0" type="matrix" in="shadowBlurOuter1"></feColorMatrix>
        </filter>
    </defs>
    <g id="Aquabyte-Homepage-Final" stroke="none" stroke-width="1" fill="none" fill-rule="evenodd" transform="translate(-122.000000, -31.000000)">
        <g id="Header" transform="translate(0.000000, -10.000000)">
            <g id="Left" transform="translate(132.000000, 32.000000)">
                <g id="Logo">
                    <path d="M81.9382138,39.3773585 L78.0423648,39.3773585 L76.9139119,35.992 L70.116327,35.992 L68.9610063,39.3773585 L65.0651572,39.3773585 L72.0239497,20.2473962 L74.9525535,20.2473962 L81.9382138,39.3773585 Z M75.9197987,32.8484528 L73.5822893,25.8896604 L71.1641761,32.8484528 L75.9197987,32.8484528 Z M94.8482516,44.5091321 L91.3554214,44.5091321 L91.3554214,38.141434 C90.4419119,39.1624151 89.367195,39.538566 87.943195,39.538566 C86.5729308,39.538566 85.3101384,39.0549434 84.5309685,38.2757736 C83.1338365,36.8786415 83.1069685,34.4605283 83.1069685,32.3648302 C83.1069685,30.2691321 83.1338365,27.8778868 84.5309685,26.4807547 C85.3101384,25.7015849 86.5997987,25.2179623 87.9700629,25.2179623 C89.4477987,25.2179623 90.4687799,25.6209811 91.4360251,26.6956981 L91.4360251,25.3791698 L94.8482516,25.3791698 L94.8482516,44.5091321 Z M91.3554214,32.3648302 C91.3554214,30.0810566 91.0598742,28.3615094 88.9641761,28.3615094 C86.868478,28.3615094 86.5997987,30.0810566 86.5997987,32.3648302 C86.5997987,34.6486038 86.868478,36.3950189 88.9641761,36.3950189 C91.0598742,36.3950189 91.3554214,34.6486038 91.3554214,32.3648302 Z M109.907723,39.3773585 L106.495497,39.3773585 L106.495497,38.0876981 C105.581987,39.0549434 104.292327,39.538566 103.002667,39.538566 C101.605535,39.538566 100.477082,39.0818113 99.6979119,38.3026415 C98.5694591,37.1741887 98.2739119,35.8576604 98.2739119,34.3261887 L98.2739119,25.3791698 L101.766742,25.3791698 L101.766742,33.842566 C101.766742,35.7501887 102.975799,36.3950189 104.077384,36.3950189 C105.178969,36.3950189 106.414893,35.7501887 106.414893,33.842566 L106.414893,25.3791698 L109.907723,25.3791698 L109.907723,39.3773585 Z M124.080553,39.3773585 L120.668327,39.3773585 L120.668327,38.1683019 C119.72795,39.1086792 118.841308,39.5116981 117.229233,39.5116981 C115.644025,39.5116981 114.488704,39.1086792 113.655799,38.2757736 C112.903497,37.4966038 112.500478,36.3681509 112.500478,35.1322264 C112.500478,32.9021887 114.03195,31.0751698 117.282969,31.0751698 L120.587723,31.0751698 L120.587723,30.3766038 C120.587723,28.8451321 119.835421,28.173434 117.981535,28.173434 C116.638138,28.173434 116.020176,28.4958491 115.294742,29.3287547 L113.064704,27.1524528 C114.434969,25.6478491 115.778365,25.2179623 118.115874,25.2179623 C122.038591,25.2179623 124.080553,26.8837736 124.080553,30.1616604 L124.080553,39.3773585 Z M120.587723,34.218717 L120.587723,33.4664151 L117.820327,33.4664151 C116.557535,33.4664151 115.858969,34.0575094 115.858969,35.0516226 C115.858969,36.0188679 116.503799,36.6636981 117.874063,36.6636981 C118.841308,36.6636981 119.45927,36.5830943 120.077233,35.992 C120.453384,35.642717 120.587723,35.0784906 120.587723,34.218717 Z M139.220629,32.3648302 C139.220629,34.4605283 139.193761,36.8786415 137.796629,38.2757736 C137.017459,39.0549434 135.754667,39.538566 134.384402,39.538566 C132.906667,39.538566 131.858818,39.1355472 130.891572,38.0608302 L130.891572,39.3773585 L127.506214,39.3773585 L127.506214,20.2473962 L130.999044,20.2473962 L130.999044,26.6150943 C131.912553,25.5941132 132.960402,25.2179623 134.384402,25.2179623 C135.754667,25.2179623 137.017459,25.7015849 137.796629,26.4807547 C139.193761,27.8778868 139.220629,30.2691321 139.220629,32.3648302 Z M135.727799,32.3648302 C135.727799,30.0810566 135.459119,28.3615094 133.363421,28.3615094 C131.267723,28.3615094 130.999044,30.0810566 130.999044,32.3648302 C130.999044,34.6486038 131.267723,36.3950189 133.363421,36.3950189 C135.459119,36.3950189 135.727799,34.6486038 135.727799,32.3648302 Z M153.420327,25.3791698 L147.42878,41.6342642 C147.133233,42.413434 146.810818,43.0045283 146.380931,43.4344151 C145.574893,44.2404528 144.527044,44.5091321 143.371723,44.5091321 L142.001459,44.5091321 L142.001459,41.3655849 L142.807497,41.3655849 C143.80161,41.3655849 144.204629,41.1237736 144.553912,40.1027925 L145.145006,38.3832453 L140.362516,25.3791698 L144.043421,25.3791698 L146.945157,34.0306415 L149.739421,25.3791698 L153.420327,25.3791698 Z M162.22405,39.3773585 L160.316428,39.3773585 C157.468428,39.3773585 156.259371,37.3622642 156.259371,35.3740377 L156.259371,28.4421132 L154.781635,28.4421132 L154.781635,25.7821887 L156.259371,25.7821887 L156.259371,21.6445283 L159.752201,21.6445283 L159.752201,25.7821887 L162.22405,25.7821887 L162.22405,28.4421132 L159.752201,28.4421132 L159.752201,35.1590943 C159.752201,35.9651321 160.128352,36.4218868 160.961258,36.4218868 L162.22405,36.4218868 L162.22405,39.3773585 Z M176.558088,33.4664151 L167.799145,33.4664151 C167.799145,35.266566 168.900729,36.5830943 170.862088,36.5830943 C172.39356,36.5830943 173.145862,36.1532075 174.032503,35.266566 L176.155069,37.3353962 C174.731069,38.7593962 173.360805,39.538566 170.83522,39.538566 C167.530465,39.538566 164.36005,38.0339623 164.36005,32.3648302 C164.36005,27.797283 166.831899,25.2179623 170.459069,25.2179623 C174.354918,25.2179623 176.558088,28.0659623 176.558088,31.9080755 L176.558088,33.4664151 Z M173.118994,31.0751698 C173.092126,30.4572075 173.011522,30.0810566 172.796579,29.570566 C172.420428,28.7376604 171.641258,28.1196981 170.459069,28.1196981 C169.27688,28.1196981 168.497711,28.7376604 168.12156,29.570566 C167.906616,30.0810566 167.826013,30.4572075 167.799145,31.0751698 L173.118994,31.0751698 Z" id="Wordmark" fill="#2D4359"></path>
                    <g id="Group-4">
                        <path d="M47.7610394,22.0126117 L47.7610394,35.648726 C47.7610394,40.6389881 47.2414495,42.4485778 46.2657683,44.272943 C45.2900871,46.0973082 43.8583145,47.5290808 42.0339493,48.504762 C40.209584,49.4804432 38.3999944,50.0000331 33.4097323,50.0000331 L19.773618,50.0000331 L19.773618,43.2781323 L13.0566369,43.2781323 L13.0566369,29.6469377 C13.0566369,24.6566755 13.5762268,22.8470859 14.551908,21.0227207 C15.5275892,19.1983554 16.9593617,17.7665829 18.7837269,16.7909017 C20.6080922,15.8152205 22.4176818,15.2956306 27.407944,15.2956306 L41.0440582,15.2956306 L41.0440582,8.57864944 L47.7610394,8.57864944 L47.7610394,15.2956306 L54.4780205,15.2956306 L54.4780205,22.0126117 L47.7610394,22.0126117 Z M26.4905991,22.0126117 C22.7809129,22.0126117 19.773618,25.0199066 19.773618,28.7295928 L19.773618,36.5660708 L26.4905991,36.5660708 L26.4905991,43.283052 L34.3270771,43.283052 C38.0367634,43.283052 41.0440582,40.2757571 41.0440582,36.5660708 L41.0440582,22.0126117 L26.4905991,22.0126117 Z M30.4486182,29.0574859 C32.3034613,29.0574859 33.8071088,30.5611333 33.8071088,32.4159764 C33.8071088,34.2708196 32.3034613,35.774467 30.4486182,35.774467 C28.5937751,35.774467 27.0901276,34.2708196 27.0901276,32.4159764 C27.0901276,30.5611333 28.5937751,29.0574859 30.4486182,29.0574859 Z M13.0566369,46.6415425 L16.4151274,46.6415425 L16.4151274,50.0000331 L13.0566369,50.0000331 L13.0566369,46.6415425 Z" id="Rectangle-5-Copy-2" fill="url(#linearGradient-1)" transform="translate(33.767329, 29.289341) rotate(-315.000000) translate(-33.767329, -29.289341) "></path>
                        <g id="Path-Copy" transform="translate(4.748900, 29.377830) rotate(44.000000) translate(-4.748900, -29.377830) ">
                            <use fill="black" fill-opacity="1" filter="url(#filter-4)" xlink:href="#path-3"></use>
                            <use fill="url(#linearGradient-2)" fill-rule="evenodd" xlink:href="#path-3"></use>
                        </g>
                    </g>
                </g>
            </g>
        </g>
    </g>
</svg>