<?xml version="1.0" encoding="UTF-8"?>
<svg width="18px" height="16px" viewBox="0 0 18 16" version="1.1" xmlns="http://www.w3.org/2000/svg" xmlns:xlink="http://www.w3.org/1999/xlink">
    <!-- Generator: Sketch 48.2 (47327) - http://www.bohemiancoding.com/sketch -->
    <title>medium-m</title>
    <desc>Created with Sketch.</desc>
    <defs></defs>
    <g id="Aquabyte-Homepage-Final" stroke="none" stroke-width="1" fill="none" fill-rule="evenodd" transform="translate(-1187.000000, -4856.000000)">
        <g id="Contact-Details" transform="translate(-55.000000, 4690.000000)" fill-rule="nonzero">
            <g id="Group-16" transform="translate(1187.000000, 80.000000)">
                <g id="Social" transform="translate(55.000000, 85.000000)">
                    <g id="medium-m" transform="translate(0.000000, 1.000000)">
                        <path d="M12.1546392,0.018556701 C12.0618557,-0.024742268 11.9876289,0.018556701 11.9876289,0.12371134 L11.9876289,12.6742268 L17.4865979,15.4206186 C17.7587629,15.556701 17.9814433,15.4206186 17.9814433,15.1113402 L17.9814433,3.03092784 C17.9814433,2.96907216 17.9505155,2.91340206 17.8948454,2.88865979 L12.1546392,0.018556701 Z" id="XMLID_103_" fill="#7D91A5"></path>
                        <path d="M5.99381443,9.68041237 L11.8886598,0.0989690722 C11.9443299,0.012371134 12.0618557,-0.024742268 12.1546392,0.024742268 L17.8515464,2.87010309 C17.9195876,2.90721649 17.9505155,2.99381443 17.9072165,3.06185567 L11.9876289,12.6742268 L5.99381443,9.68041237 Z" id="XMLID_102_" fill="#617890"></path>
                        <path d="M0.66185567,0.272164948 C0.296907216,0.0865979381 0.173195876,0.222680412 0.389690722,0.575257732 L5.99381443,9.68041237 L11.9876289,12.6804124 L6.03092784,3 C6.00618557,2.95670103 5.96907216,2.9257732 5.9257732,2.90103093 L0.66185567,0.272164948 Z" id="XMLID_101_" fill="#486079"></path>
                        <path d="M5.99381443,15.1175258 C5.99381443,15.4206186 5.77113402,15.5628866 5.49896907,15.4268041 L0.334020619,12.8412371 C0.148453608,12.7484536 0,12.5072165 0,12.3030928 L0,0.309278351 C0,0.105154639 0.148453608,0.012371134 0.334020619,0.105154639 L5.91958763,2.90103093 C5.9628866,2.9257732 5.99381443,2.96907216 5.99381443,3.0185567 L5.99381443,15.1175258 Z" id="XMLID_100_" fill="#2D4359"></path>
                    </g>
                </g>
            </g>
        </g>
    </g>
</svg>