<?xml version="1.0" encoding="utf-8"?>
<!-- Generator: Adobe Illustrator 22.0.1, SVG Export Plug-In . SVG Version: 6.00 Build 0)  -->
<svg version="1.1" id="Layer_1" xmlns="http://www.w3.org/2000/svg" xmlns:xlink="http://www.w3.org/1999/xlink" width="22px" x="0px" y="0px"
	 viewBox="0 0 18 12.6" style="enable-background:new 0 0 18 12.6;" xml:space="preserve">
<style type="text/css">
	.st0{fill:#FFFFFF;}
	.st1{opacity:0.12;fill:#420000;enable-background:new    ;}
	.st2{fill:#2D4359;}
</style>
<title>medium-m</title>
<desc>Created with Sketch.</desc>
<g>
	<g>
		<path class="st0" d="M7.1,8.6L12,6.1L7.1,3.6V8.6L7.1,8.6z"/>
		<path class="st1" d="M7.1,3.6l4.3,2.8L12,6.1L7.1,3.6L7.1,3.6z"/>
		<path class="st2" d="M17.8,2.7c0,0-0.2-1.2-0.7-1.8c-0.7-0.7-1.4-0.7-1.8-0.8C12.8,0,9,0,9,0h0c0,0-3.8,0-6.3,0.2
			c-0.4,0-1.1,0-1.8,0.8C0.4,1.5,0.2,2.7,0.2,2.7S0,4.2,0,5.6V7c0,1.5,0.2,2.9,0.2,2.9s0.2,1.2,0.7,1.8c0.7,0.7,1.6,0.7,2,0.8
			C4.3,12.6,9,12.6,9,12.6s3.8,0,6.3-0.2c0.4,0,1.1,0,1.8-0.8c0.5-0.5,0.7-1.8,0.7-1.8S18,8.4,18,7V5.6C18,4.2,17.8,2.7,17.8,2.7
			L17.8,2.7z M7.1,8.6V3.6L12,6.1L7.1,8.6L7.1,8.6z"/>
	</g>
</g>
</svg>
